<mxfile host="app.diagrams.net" agent="Mozilla/5.0 (Windows NT 10.0; Win64; x64) AppleWebKit/537.36 (KHTML, like Gecko) Chrome/132.0.0.0 Safari/537.36 Edg/132.0.0.0" version="26.0.11">
  <diagram name="Page-1" id="blp2moSxYA46N9ZSHRac">
    <mxGraphModel dx="868" dy="3786" grid="1" gridSize="10" guides="1" tooltips="1" connect="1" arrows="1" fold="1" page="1" pageScale="1" pageWidth="1169" pageHeight="827" math="0" shadow="0">
      <root>
        <mxCell id="0" />
        <mxCell id="1" parent="0" />
        <mxCell id="wox2muzZV0Ju8DuhNdnR-3" value="" style="rounded=0;whiteSpace=wrap;html=1;fillStyle=auto;" parent="1" vertex="1">
          <mxGeometry y="-2790" width="6960" height="9260" as="geometry" />
        </mxCell>
        <mxCell id="SJlRQKeIQYPIyshb4TZr-37" value="sdffdssf" style="rounded=1;whiteSpace=wrap;html=1;" parent="1" vertex="1">
          <mxGeometry x="20" y="-2240" width="3190" height="1000" as="geometry" />
        </mxCell>
        <mxCell id="7rvljQhCplWetMC_5oCt-16" value="" style="rounded=1;whiteSpace=wrap;html=1;" parent="1" vertex="1">
          <mxGeometry x="1480" y="-1200" width="960" height="1340" as="geometry" />
        </mxCell>
        <mxCell id="IkhU0RiVINw_qmBYVu9J-47" style="edgeStyle=orthogonalEdgeStyle;rounded=0;orthogonalLoop=1;jettySize=auto;html=1;" parent="1" source="kQ6tzHzIxeLgxoE7xuQt-5" edge="1">
          <mxGeometry relative="1" as="geometry">
            <mxPoint x="141.00000000000023" y="-260" as="targetPoint" />
          </mxGeometry>
        </mxCell>
        <mxCell id="kQ6tzHzIxeLgxoE7xuQt-5" value="RelayLaser" style="swimlane;fontStyle=1;align=center;verticalAlign=top;childLayout=stackLayout;horizontal=1;startSize=26;horizontalStack=0;resizeParent=1;resizeParentMax=0;resizeLast=0;collapsible=1;marginBottom=0;whiteSpace=wrap;html=1;" parent="1" vertex="1">
          <mxGeometry x="41" y="-160" width="200" height="240" as="geometry" />
        </mxCell>
        <mxCell id="kQ6tzHzIxeLgxoE7xuQt-6" value="&lt;div&gt;&lt;div&gt;- m_rightLaserPin int&lt;/div&gt;&lt;div&gt;&lt;span style=&quot;white-space: normal;&quot;&gt;- m_leftLaserPin int&lt;/span&gt;&lt;/div&gt;&lt;div&gt;&lt;span style=&quot;white-space: normal;&quot;&gt;- m_laserOnValue int&lt;/span&gt;&lt;/div&gt;&lt;div&gt;&lt;span style=&quot;white-space: normal;&quot;&gt;- m_laserOffValue int&lt;/span&gt;&lt;/div&gt;&lt;div&gt;&lt;span style=&quot;white-space: normal;&quot;&gt;- m_rightLaserOn bool&lt;/span&gt;&lt;/div&gt;&lt;div&gt;&lt;span style=&quot;white-space: normal;&quot;&gt;- m_leftLaserOn bool&lt;/span&gt;&lt;/div&gt;&lt;/div&gt;" style="text;strokeColor=none;fillColor=none;align=left;verticalAlign=top;spacingLeft=4;spacingRight=4;overflow=hidden;rotatable=0;points=[[0,0.5],[1,0.5]];portConstraint=eastwest;html=1;whiteSpace=wrap;" parent="kQ6tzHzIxeLgxoE7xuQt-5" vertex="1">
          <mxGeometry y="26" width="200" height="100" as="geometry" />
        </mxCell>
        <mxCell id="kQ6tzHzIxeLgxoE7xuQt-7" value="" style="line;strokeWidth=1;fillColor=none;align=left;verticalAlign=middle;spacingTop=-1;spacingLeft=3;spacingRight=3;rotatable=0;labelPosition=right;points=[];portConstraint=eastwest;strokeColor=inherit;" parent="kQ6tzHzIxeLgxoE7xuQt-5" vertex="1">
          <mxGeometry y="126" width="200" height="8" as="geometry" />
        </mxCell>
        <mxCell id="kQ6tzHzIxeLgxoE7xuQt-8" value="&lt;div&gt;&lt;span style=&quot;background-color: transparent; color: light-dark(rgb(0, 0, 0), rgb(255, 255, 255));&quot;&gt;+ RelayLaser()&lt;/span&gt;&lt;/div&gt;&lt;div&gt;&lt;span style=&quot;background-color: transparent; color: light-dark(rgb(0, 0, 0), rgb(255, 255, 255));&quot;&gt;+ ~RelayLaser()&lt;/span&gt;&lt;/div&gt;&lt;div&gt;&lt;span style=&quot;background-color: transparent; color: light-dark(rgb(0, 0, 0), rgb(255, 255, 255));&quot;&gt;+(s) initialize ( ) void&lt;/span&gt;&lt;/div&gt;&lt;div&gt;+&amp;nbsp;turnOn ( LaserSide ) void&lt;/div&gt;&lt;div&gt;+ turnOff ( LaserSide ) void&lt;br&gt;&lt;div&gt;+ isOn ( LaserSide ) bool&lt;/div&gt;&lt;/div&gt;" style="text;strokeColor=none;fillColor=none;align=left;verticalAlign=top;spacingLeft=4;spacingRight=4;overflow=hidden;rotatable=0;points=[[0,0.5],[1,0.5]];portConstraint=eastwest;whiteSpace=wrap;html=1;" parent="kQ6tzHzIxeLgxoE7xuQt-5" vertex="1">
          <mxGeometry y="134" width="200" height="106" as="geometry" />
        </mxCell>
        <mxCell id="kQ6tzHzIxeLgxoE7xuQt-9" value="PresetManager" style="swimlane;fontStyle=1;align=center;verticalAlign=top;childLayout=stackLayout;horizontal=1;startSize=26;horizontalStack=0;resizeParent=1;resizeParentMax=0;resizeLast=0;collapsible=1;marginBottom=0;whiteSpace=wrap;html=1;" parent="1" vertex="1">
          <mxGeometry x="1749" y="2210" width="280" height="290" as="geometry" />
        </mxCell>
        <mxCell id="kQ6tzHzIxeLgxoE7xuQt-10" value="-(s) *m_instance PresetManager&lt;div&gt;- m_presets Preset []&lt;/div&gt;&lt;div&gt;- m_nextID int&lt;/div&gt;&lt;div&gt;- m_activePresetIndex int&lt;/div&gt;" style="text;strokeColor=none;fillColor=none;align=left;verticalAlign=top;spacingLeft=4;spacingRight=4;overflow=hidden;rotatable=0;points=[[0,0.5],[1,0.5]];portConstraint=eastwest;whiteSpace=wrap;html=1;" parent="kQ6tzHzIxeLgxoE7xuQt-9" vertex="1">
          <mxGeometry y="26" width="280" height="74" as="geometry" />
        </mxCell>
        <mxCell id="kQ6tzHzIxeLgxoE7xuQt-11" value="" style="line;strokeWidth=1;fillColor=none;align=left;verticalAlign=middle;spacingTop=-1;spacingLeft=3;spacingRight=3;rotatable=0;labelPosition=right;points=[];portConstraint=eastwest;strokeColor=inherit;" parent="kQ6tzHzIxeLgxoE7xuQt-9" vertex="1">
          <mxGeometry y="100" width="280" height="8" as="geometry" />
        </mxCell>
        <mxCell id="kQ6tzHzIxeLgxoE7xuQt-12" value="- PresetManager()&lt;div&gt;- migratePresets ( Preset [], int, int ) void&lt;/div&gt;&lt;div&gt;+(s) get() PresetManager*&lt;/div&gt;&lt;div&gt;+(s) release() void&lt;/div&gt;&lt;div&gt;+ getActivePreset () Preset&amp;amp;&lt;/div&gt;&lt;div&gt;+ setActivePreset ( int ) void&lt;/div&gt;&lt;div&gt;+ removeActivePreset () void&lt;/div&gt;&lt;div&gt;+ getPresets () Preset []&lt;/div&gt;&lt;div&gt;+ addPreset ( Preset ) int&lt;/div&gt;&lt;div&gt;+ encodeProperties ( Property [] ) void&lt;/div&gt;&lt;div&gt;+ decodeProperties ( Property [] ) void&lt;/div&gt;" style="text;strokeColor=none;fillColor=none;align=left;verticalAlign=top;spacingLeft=4;spacingRight=4;overflow=hidden;rotatable=0;points=[[0,0.5],[1,0.5]];portConstraint=eastwest;whiteSpace=wrap;html=1;" parent="kQ6tzHzIxeLgxoE7xuQt-9" vertex="1">
          <mxGeometry y="108" width="280" height="182" as="geometry" />
        </mxCell>
        <mxCell id="kQ6tzHzIxeLgxoE7xuQt-13" value="A4988TurnTable" style="swimlane;fontStyle=1;align=center;verticalAlign=top;childLayout=stackLayout;horizontal=1;startSize=26;horizontalStack=0;resizeParent=1;resizeParentMax=0;resizeLast=0;collapsible=1;marginBottom=0;whiteSpace=wrap;html=1;" parent="1" vertex="1">
          <mxGeometry x="3511" y="2640" width="380" height="250" as="geometry" />
        </mxCell>
        <mxCell id="kQ6tzHzIxeLgxoE7xuQt-14" value="- m_stepDelay int&lt;div&gt;- m_responseDelay int&lt;/div&gt;&lt;div&gt;- m_enablePin int&lt;/div&gt;&lt;div&gt;- m_stepPin int&lt;/div&gt;&lt;div&gt;- m_directionPin int&lt;/div&gt;&lt;div&gt;- m_stepsPerRevolution int&lt;/div&gt;&lt;div&gt;- m_stabilityDelay int&lt;/div&gt;" style="text;strokeColor=none;fillColor=none;align=left;verticalAlign=top;spacingLeft=4;spacingRight=4;overflow=hidden;rotatable=0;points=[[0,0.5],[1,0.5]];portConstraint=eastwest;whiteSpace=wrap;html=1;" parent="kQ6tzHzIxeLgxoE7xuQt-13" vertex="1">
          <mxGeometry y="26" width="380" height="114" as="geometry" />
        </mxCell>
        <mxCell id="kQ6tzHzIxeLgxoE7xuQt-15" value="" style="line;strokeWidth=1;fillColor=none;align=left;verticalAlign=middle;spacingTop=-1;spacingLeft=3;spacingRight=3;rotatable=0;labelPosition=right;points=[];portConstraint=eastwest;strokeColor=inherit;" parent="kQ6tzHzIxeLgxoE7xuQt-13" vertex="1">
          <mxGeometry y="140" width="380" height="8" as="geometry" />
        </mxCell>
        <mxCell id="kQ6tzHzIxeLgxoE7xuQt-16" value="+ A4988TurnTable()&lt;div&gt;+ ~A4988TurnTable()&lt;/div&gt;&lt;div&gt;+ rotate( real ) int&lt;/div&gt;&lt;div&gt;+ setMotorEnabled( bool )&amp;nbsp; void&lt;/div&gt;&lt;div&gt;+(s) initialize() void&lt;/div&gt;&lt;div&gt;- step() void&lt;/div&gt;" style="text;strokeColor=none;fillColor=none;align=left;verticalAlign=top;spacingLeft=4;spacingRight=4;overflow=hidden;rotatable=0;points=[[0,0.5],[1,0.5]];portConstraint=eastwest;whiteSpace=wrap;html=1;" parent="kQ6tzHzIxeLgxoE7xuQt-13" vertex="1">
          <mxGeometry y="148" width="380" height="102" as="geometry" />
        </mxCell>
        <mxCell id="yn2US-jf_UVP24uLlLP8-1" value="UpdateManager" style="swimlane;fontStyle=1;align=center;verticalAlign=top;childLayout=stackLayout;horizontal=1;startSize=26;horizontalStack=0;resizeParent=1;resizeParentMax=0;resizeLast=0;collapsible=1;marginBottom=0;whiteSpace=wrap;html=1;" parent="1" vertex="1">
          <mxGeometry x="5833" y="880" width="440" height="260" as="geometry" />
        </mxCell>
        <mxCell id="yn2US-jf_UVP24uLlLP8-2" value="-(s) *m_instance UpdateManager&lt;div&gt;-(s) UPDATE_URL const string&lt;/div&gt;&lt;div&gt;- m_cs CriticalSection&lt;/div&gt;&lt;div&gt;- m_updates SoftwareUpdates []&lt;/div&gt;" style="text;strokeColor=none;fillColor=none;align=left;verticalAlign=top;spacingLeft=4;spacingRight=4;overflow=hidden;rotatable=0;points=[[0,0.5],[1,0.5]];portConstraint=eastwest;whiteSpace=wrap;html=1;" parent="yn2US-jf_UVP24uLlLP8-1" vertex="1">
          <mxGeometry y="26" width="440" height="74" as="geometry" />
        </mxCell>
        <mxCell id="yn2US-jf_UVP24uLlLP8-3" value="" style="line;strokeWidth=1;fillColor=none;align=left;verticalAlign=middle;spacingTop=-1;spacingLeft=3;spacingRight=3;rotatable=0;labelPosition=right;points=[];portConstraint=eastwest;strokeColor=inherit;" parent="yn2US-jf_UVP24uLlLP8-1" vertex="1">
          <mxGeometry y="100" width="440" height="8" as="geometry" />
        </mxCell>
        <mxCell id="yn2US-jf_UVP24uLlLP8-4" value="+(s) get() UpdateManager *&lt;div&gt;+(s) release() void&lt;/div&gt;&lt;div&gt;+&amp;nbsp;getLatestUpdate() SoftwareUpdate *&lt;/div&gt;&lt;div&gt;+&amp;nbsp;checkForUpdates() void&lt;/div&gt;&lt;div&gt;+&amp;nbsp;applyUpdate(&amp;nbsp;SoftwareUpdate * ) void&lt;/div&gt;&lt;div&gt;+-&amp;nbsp;UpdateManager()&lt;/div&gt;&lt;div&gt;-&amp;nbsp;downloadFile( const string &amp;amp;,&lt;span style=&quot;background-color: transparent; color: light-dark(rgb(0, 0, 0), rgb(255, 255, 255));&quot;&gt;&amp;nbsp;&lt;/span&gt;&lt;span style=&quot;background-color: transparent; color: light-dark(rgb(0, 0, 0), rgb(255, 255, 255));&quot;&gt;const string &amp;amp;,&lt;/span&gt;&lt;span style=&quot;background-color: transparent; color: light-dark(rgb(0, 0, 0), rgb(255, 255, 255));&quot;&gt;&amp;nbsp;&lt;/span&gt;&lt;span style=&quot;background-color: transparent; color: light-dark(rgb(0, 0, 0), rgb(255, 255, 255));&quot;&gt;const string &amp;amp;&lt;/span&gt;&lt;span style=&quot;background-color: transparent; color: light-dark(rgb(0, 0, 0), rgb(255, 255, 255));&quot;&gt;&amp;nbsp;) void&amp;nbsp;&amp;nbsp;&lt;/span&gt;&lt;/div&gt;&lt;div&gt;&lt;span style=&quot;background-color: transparent; color: light-dark(rgb(0, 0, 0), rgb(255, 255, 255));&quot;&gt;-&amp;nbsp;&lt;/span&gt;&lt;span style=&quot;background-color: transparent;&quot;&gt;downloadUpdate(&amp;nbsp;&lt;/span&gt;&lt;span style=&quot;background-color: transparent; color: light-dark(rgb(0, 0, 0), rgb(255, 255, 255));&quot;&gt;const string &amp;amp;,&lt;/span&gt;&lt;span style=&quot;background-color: transparent; color: light-dark(rgb(0, 0, 0), rgb(255, 255, 255));&quot;&gt;&amp;nbsp;&lt;/span&gt;&lt;span style=&quot;background-color: transparent; color: light-dark(rgb(0, 0, 0), rgb(255, 255, 255));&quot;&gt;const string &amp;amp;,&lt;/span&gt;&lt;span style=&quot;background-color: transparent; color: light-dark(rgb(0, 0, 0), rgb(255, 255, 255));&quot;&gt;&amp;nbsp;&lt;/span&gt;&lt;span style=&quot;background-color: transparent; color: light-dark(rgb(0, 0, 0), rgb(255, 255, 255));&quot;&gt;const string &amp;amp;, int, int&lt;/span&gt;&lt;span style=&quot;background-color: transparent; color: light-dark(rgb(0, 0, 0), rgb(255, 255, 255));&quot;&gt;&amp;nbsp;) void&lt;/span&gt;&lt;/div&gt;&lt;div&gt;&lt;span style=&quot;background-color: transparent; color: light-dark(rgb(0, 0, 0), rgb(255, 255, 255));&quot;&gt;-&amp;nbsp;&lt;/span&gt;&lt;span style=&quot;background-color: transparent;&quot;&gt;readUpdates( const string &amp;amp; )&amp;nbsp;&lt;/span&gt;&lt;span style=&quot;background-color: transparent;&quot;&gt;SoftwareUpdate []&lt;/span&gt;&lt;/div&gt;" style="text;strokeColor=none;fillColor=none;align=left;verticalAlign=top;spacingLeft=4;spacingRight=4;overflow=hidden;rotatable=0;points=[[0,0.5],[1,0.5]];portConstraint=eastwest;whiteSpace=wrap;html=1;" parent="yn2US-jf_UVP24uLlLP8-1" vertex="1">
          <mxGeometry y="108" width="440" height="152" as="geometry" />
        </mxCell>
        <mxCell id="yn2US-jf_UVP24uLlLP8-5" value="Setup" style="swimlane;fontStyle=1;align=center;verticalAlign=top;childLayout=stackLayout;horizontal=1;startSize=26;horizontalStack=0;resizeParent=1;resizeParentMax=0;resizeLast=0;collapsible=1;marginBottom=0;whiteSpace=wrap;html=1;" parent="1" vertex="1">
          <mxGeometry x="4308" y="-490" width="280" height="680" as="geometry" />
        </mxCell>
        <mxCell id="yn2US-jf_UVP24uLlLP8-6" value="&lt;div&gt;-(s) *m_instance Setup&lt;span style=&quot;white-space: pre;&quot;&gt;&#x9;&lt;/span&gt;&lt;/div&gt;&lt;div&gt;+ cameraLocation Vector3&lt;/div&gt;&lt;div&gt;&lt;span style=&quot;white-space: normal;&quot;&gt;+ leftLaserLocation&amp;nbsp;&lt;/span&gt;&lt;span style=&quot;background-color: transparent; color: light-dark(rgb(0, 0, 0), rgb(255, 255, 255));&quot;&gt;Vector3&lt;/span&gt;&lt;/div&gt;&lt;div&gt;&lt;span style=&quot;white-space: normal;&quot;&gt;+ rightLaserLocation&amp;nbsp;&lt;/span&gt;&lt;span style=&quot;background-color: transparent; color: light-dark(rgb(0, 0, 0), rgb(255, 255, 255));&quot;&gt;Vector3&lt;/span&gt;&lt;/div&gt;&lt;div&gt;&lt;span style=&quot;white-space: normal;&quot;&gt;+ rightLaserPin int&lt;/span&gt;&lt;/div&gt;&lt;div&gt;&lt;span style=&quot;white-space: normal;&quot;&gt;+ leftLaserPin int&lt;/span&gt;&lt;/div&gt;&lt;div&gt;&lt;span style=&quot;white-space: normal;&quot;&gt;+ motorEnablePin int&lt;/span&gt;&lt;/div&gt;&lt;div&gt;&lt;span style=&quot;white-space: normal;&quot;&gt;+ motorStepPin int&lt;/span&gt;&lt;/div&gt;&lt;div&gt;&lt;span style=&quot;white-space: normal;&quot;&gt;+ motorDirPin int&lt;/span&gt;&lt;/div&gt;&lt;div&gt;&lt;span style=&quot;white-space: normal;&quot;&gt;+ motorDirPinValue int&lt;/span&gt;&lt;/div&gt;&lt;div&gt;&lt;span style=&quot;white-space: normal;&quot;&gt;+ laserOnValue int&lt;/span&gt;&lt;/div&gt;&lt;div&gt;&lt;span style=&quot;white-space: normal;&quot;&gt;+ stepsPerRevolution int&lt;/span&gt;&lt;/div&gt;&lt;div&gt;&lt;span style=&quot;white-space: normal;&quot;&gt;+ motorResponseDelay int&lt;/span&gt;&lt;/div&gt;&lt;div&gt;&lt;span style=&quot;white-space: normal;&quot;&gt;+ motorStepDelay int&lt;/span&gt;&lt;/div&gt;&lt;div&gt;&lt;span style=&quot;white-space: normal;&quot;&gt;+ httpPort int&lt;/span&gt;&lt;/div&gt;&lt;div&gt;&lt;span style=&quot;white-space: normal;&quot;&gt;+ serialNumber string&lt;/span&gt;&lt;/div&gt;&lt;div&gt;&lt;span style=&quot;white-space: normal;&quot;&gt;+ unitOfLength&amp;nbsp;&lt;/span&gt;&lt;span style=&quot;background-color: transparent; color: light-dark(rgb(0, 0, 0), rgb(255, 255, 255));&quot;&gt;UnitOfLength&lt;/span&gt;&lt;/div&gt;&lt;div&gt;&lt;span style=&quot;white-space: normal;&quot;&gt;+ haveLaserPlaneNormals bool&lt;/span&gt;&lt;/div&gt;&lt;div&gt;&lt;span style=&quot;white-space: normal;&quot;&gt;+ leftLaserPlaneNormal&amp;nbsp;&lt;/span&gt;&lt;span style=&quot;background-color: transparent; color: light-dark(rgb(0, 0, 0), rgb(255, 255, 255));&quot;&gt;Vector3&lt;/span&gt;&lt;span style=&quot;background-color: transparent; color: light-dark(rgb(0, 0, 0), rgb(255, 255, 255));&quot;&gt;&amp;nbsp;&lt;/span&gt;&lt;/div&gt;&lt;div&gt;&lt;span style=&quot;white-space: normal;&quot;&gt;+ rightLaserPlaneNormal&amp;nbsp;&lt;/span&gt;&lt;span style=&quot;background-color: transparent; color: light-dark(rgb(0, 0, 0), rgb(255, 255, 255));&quot;&gt;Vector3&lt;/span&gt;&lt;/div&gt;&lt;div&gt;&lt;span style=&quot;white-space: normal;&quot;&gt;+ leftLaserCalibrationTop&amp;nbsp;&lt;/span&gt;&lt;span style=&quot;background-color: transparent; color: light-dark(rgb(0, 0, 0), rgb(255, 255, 255));&quot;&gt;PixelLocation&lt;/span&gt;&lt;span style=&quot;background-color: transparent; color: light-dark(rgb(0, 0, 0), rgb(255, 255, 255));&quot;&gt;&amp;nbsp;&lt;/span&gt;&lt;/div&gt;&lt;div&gt;&lt;span style=&quot;white-space: normal;&quot;&gt;+ leftLaserCalibrationBottom&amp;nbsp;&lt;/span&gt;&lt;span style=&quot;background-color: transparent; color: light-dark(rgb(0, 0, 0), rgb(255, 255, 255));&quot;&gt;PixelLocation&lt;/span&gt;&lt;span style=&quot;background-color: transparent; color: light-dark(rgb(0, 0, 0), rgb(255, 255, 255));&quot;&gt;&amp;nbsp;&lt;/span&gt;&lt;/div&gt;&lt;div&gt;&lt;span style=&quot;white-space: normal;&quot;&gt;+ rightLaserCalibrationTop&amp;nbsp;&lt;/span&gt;&lt;span style=&quot;background-color: transparent; color: light-dark(rgb(0, 0, 0), rgb(255, 255, 255));&quot;&gt;PixelLocation&lt;/span&gt;&lt;span style=&quot;background-color: transparent; color: light-dark(rgb(0, 0, 0), rgb(255, 255, 255));&quot;&gt;&amp;nbsp;&lt;/span&gt;&lt;/div&gt;&lt;div&gt;&lt;span style=&quot;white-space: normal;&quot;&gt;+ rightLaserCalibrationBottom&amp;nbsp;&lt;/span&gt;&lt;span style=&quot;background-color: transparent; color: light-dark(rgb(0, 0, 0), rgb(255, 255, 255));&quot;&gt;PixelLocation&lt;/span&gt;&lt;span style=&quot;background-color: transparent; color: light-dark(rgb(0, 0, 0), rgb(255, 255, 255));&quot;&gt;&amp;nbsp;&lt;/span&gt;&lt;/div&gt;&lt;div&gt;&lt;span style=&quot;white-space: normal;&quot;&gt;+ enableLighting bool&lt;/span&gt;&lt;/div&gt;&lt;div&gt;&lt;span style=&quot;white-space: normal;&quot;&gt;+ lightingPin int&lt;/span&gt;&lt;/div&gt;&lt;div&gt;&lt;span style=&quot;white-space: normal;&quot;&gt;+ enableAuthentication bool&lt;/span&gt;&lt;/div&gt;&lt;div&gt;&lt;span style=&quot;white-space: normal;&quot;&gt;+ passwordHash string&lt;/span&gt;&lt;/div&gt;&lt;div&gt;&lt;span style=&quot;white-space: normal;&quot;&gt;+ enableUsbNetworkConfig bool&lt;/span&gt;&lt;/div&gt;&lt;div&gt;&lt;span style=&quot;white-space: normal;&quot;&gt;+ enableExperimental bool&lt;/span&gt;&lt;/div&gt;&lt;div&gt;&lt;span style=&quot;white-space: normal;&quot;&gt;+ enableWebGLWhenAvailable bool&lt;/span&gt;&lt;/div&gt;&lt;div&gt;&lt;span style=&quot;white-space: normal;&quot;&gt;+ enablePointCloudRenderer bool&lt;/span&gt;&lt;/div&gt;&lt;div&gt;&lt;span style=&quot;white-space: normal;&quot;&gt;+ overrideFocalLength bool&lt;/span&gt;&lt;/div&gt;&lt;div&gt;&lt;span style=&quot;white-space: normal;&quot;&gt;+ overriddenFocalLength string&lt;/span&gt;&lt;/div&gt;&lt;div&gt;&lt;span style=&quot;white-space: normal;&quot;&gt;+ mmalFlipRedBlue bool&lt;/span&gt;&lt;/div&gt;&lt;div&gt;&lt;span style=&quot;white-space: normal;&quot;&gt;+ maxObjectSize real&lt;/span&gt;&lt;/div&gt;" style="text;strokeColor=none;fillColor=none;align=left;verticalAlign=top;spacingLeft=4;spacingRight=4;overflow=hidden;rotatable=0;points=[[0,0.5],[1,0.5]];portConstraint=eastwest;whiteSpace=wrap;html=1;" parent="yn2US-jf_UVP24uLlLP8-5" vertex="1">
          <mxGeometry y="26" width="280" height="534" as="geometry" />
        </mxCell>
        <mxCell id="yn2US-jf_UVP24uLlLP8-7" value="" style="line;strokeWidth=1;fillColor=none;align=left;verticalAlign=middle;spacingTop=-1;spacingLeft=3;spacingRight=3;rotatable=0;labelPosition=right;points=[];portConstraint=eastwest;strokeColor=inherit;" parent="yn2US-jf_UVP24uLlLP8-5" vertex="1">
          <mxGeometry y="560" width="280" height="8" as="geometry" />
        </mxCell>
        <mxCell id="yn2US-jf_UVP24uLlLP8-8" value="- Setup()&lt;div&gt;+(s) get() *Setup&lt;/div&gt;&lt;div&gt;+(s) release() void&lt;/div&gt;&lt;div&gt;+ encodeProperties ( Property [] ) void&lt;/div&gt;&lt;div&gt;+ decodeProperties ( Property [] ) void&amp;nbsp;&lt;/div&gt;&lt;div&gt;+ reinit() void&lt;/div&gt;" style="text;strokeColor=none;fillColor=none;align=left;verticalAlign=top;spacingLeft=4;spacingRight=4;overflow=hidden;rotatable=0;points=[[0,0.5],[1,0.5]];portConstraint=eastwest;whiteSpace=wrap;html=1;" parent="yn2US-jf_UVP24uLlLP8-5" vertex="1">
          <mxGeometry y="568" width="280" height="112" as="geometry" />
        </mxCell>
        <mxCell id="yn2US-jf_UVP24uLlLP8-9" value="Lightning" style="swimlane;fontStyle=1;align=center;verticalAlign=top;childLayout=stackLayout;horizontal=1;startSize=26;horizontalStack=0;resizeParent=1;resizeParentMax=0;resizeLast=0;collapsible=1;marginBottom=0;whiteSpace=wrap;html=1;" parent="1" vertex="1">
          <mxGeometry x="4310" y="399" width="280" height="190" as="geometry" />
        </mxCell>
        <mxCell id="yn2US-jf_UVP24uLlLP8-10" value="-(s) *m_instance Lightning&lt;div&gt;- m_pin int&lt;/div&gt;&lt;div&gt;- m_intensity int&lt;/div&gt;" style="text;strokeColor=none;fillColor=none;align=left;verticalAlign=top;spacingLeft=4;spacingRight=4;overflow=hidden;rotatable=0;points=[[0,0.5],[1,0.5]];portConstraint=eastwest;whiteSpace=wrap;html=1;" parent="yn2US-jf_UVP24uLlLP8-9" vertex="1">
          <mxGeometry y="26" width="280" height="64" as="geometry" />
        </mxCell>
        <mxCell id="yn2US-jf_UVP24uLlLP8-11" value="" style="line;strokeWidth=1;fillColor=none;align=left;verticalAlign=middle;spacingTop=-1;spacingLeft=3;spacingRight=3;rotatable=0;labelPosition=right;points=[];portConstraint=eastwest;strokeColor=inherit;" parent="yn2US-jf_UVP24uLlLP8-9" vertex="1">
          <mxGeometry y="90" width="280" height="8" as="geometry" />
        </mxCell>
        <mxCell id="yn2US-jf_UVP24uLlLP8-12" value="+(s) get() Lighting *&lt;div&gt;+(s) release() void&lt;/div&gt;&lt;div&gt;+ Lighting()&lt;/div&gt;&lt;div&gt;+ setIntensity( int ) void&lt;/div&gt;&lt;div&gt;+ getIntensity() int&lt;/div&gt;" style="text;strokeColor=none;fillColor=none;align=left;verticalAlign=top;spacingLeft=4;spacingRight=4;overflow=hidden;rotatable=0;points=[[0,0.5],[1,0.5]];portConstraint=eastwest;whiteSpace=wrap;html=1;" parent="yn2US-jf_UVP24uLlLP8-9" vertex="1">
          <mxGeometry y="98" width="280" height="92" as="geometry" />
        </mxCell>
        <mxCell id="yn2US-jf_UVP24uLlLP8-13" value="WifiConfig" style="swimlane;fontStyle=1;align=center;verticalAlign=top;childLayout=stackLayout;horizontal=1;startSize=26;horizontalStack=0;resizeParent=1;resizeParentMax=0;resizeLast=0;collapsible=1;marginBottom=0;whiteSpace=wrap;html=1;" parent="1" vertex="1">
          <mxGeometry x="6120" y="2640" width="320" height="426" as="geometry" />
        </mxCell>
        <mxCell id="r98dHUCxIxOdtPytR6p3-1" value="&lt;span style=&quot;font-weight: normal;&quot;&gt;+ AccessPoint&lt;/span&gt;" style="swimlane;fontStyle=1;align=center;verticalAlign=top;childLayout=stackLayout;horizontal=1;startSize=26;horizontalStack=0;resizeParent=1;resizeParentMax=0;resizeLast=0;collapsible=1;marginBottom=0;whiteSpace=wrap;html=1;fillStyle=zigzag-line;fillColor=#FFE599;" parent="yn2US-jf_UVP24uLlLP8-13" vertex="1">
          <mxGeometry y="26" width="320" height="90" as="geometry">
            <mxRectangle y="26" width="320" height="30" as="alternateBounds" />
          </mxGeometry>
        </mxCell>
        <mxCell id="r98dHUCxIxOdtPytR6p3-2" value="+ essid string&lt;div&gt;+ interface string&lt;/div&gt;&lt;div&gt;+ encrypted bool&lt;/div&gt;" style="text;strokeColor=none;fillColor=default;align=left;verticalAlign=top;spacingLeft=4;spacingRight=4;overflow=hidden;rotatable=0;points=[[0,0.5],[1,0.5]];portConstraint=eastwest;whiteSpace=wrap;html=1;fillStyle=zigzag-line;" parent="r98dHUCxIxOdtPytR6p3-1" vertex="1">
          <mxGeometry y="26" width="320" height="64" as="geometry" />
        </mxCell>
        <mxCell id="yn2US-jf_UVP24uLlLP8-14" value="+(s) *m_instance WifiConfig&lt;div&gt;+(s)&amp;nbsp;PROC_NET_WIRELESS const string&lt;/div&gt;&lt;div&gt;+(s)&amp;nbsp;PROC_NET_DEV const string&lt;/div&gt;&lt;div&gt;+(s)&amp;nbsp;WPA_SUPPLICANT const string&lt;/div&gt;" style="text;strokeColor=none;fillColor=none;align=left;verticalAlign=top;spacingLeft=4;spacingRight=4;overflow=hidden;rotatable=0;points=[[0,0.5],[1,0.5]];portConstraint=eastwest;whiteSpace=wrap;html=1;" parent="yn2US-jf_UVP24uLlLP8-13" vertex="1">
          <mxGeometry y="116" width="320" height="80" as="geometry" />
        </mxCell>
        <mxCell id="yn2US-jf_UVP24uLlLP8-15" value="" style="line;strokeWidth=1;fillColor=none;align=left;verticalAlign=middle;spacingTop=-1;spacingLeft=3;spacingRight=3;rotatable=0;labelPosition=right;points=[];portConstraint=eastwest;strokeColor=inherit;" parent="yn2US-jf_UVP24uLlLP8-13" vertex="1">
          <mxGeometry y="196" width="320" height="8" as="geometry" />
        </mxCell>
        <mxCell id="yn2US-jf_UVP24uLlLP8-16" value="+(s) get() WifiConfig *&lt;div&gt;+(s) release() void&lt;/div&gt;&lt;div&gt;+&amp;nbsp;WifiConfig()&lt;/div&gt;&lt;div&gt;+&amp;nbsp;getAccessPoints() WifiConfig::AccessPoint []&lt;/div&gt;&lt;div&gt;+&amp;nbsp;getStoredAccessPointName() string&lt;/div&gt;&lt;div&gt;+&amp;nbsp;getAllInterfaces() string []&lt;/div&gt;&lt;div&gt;+&amp;nbsp;getWifiInterfaces() string []&lt;/div&gt;&lt;div&gt;+&amp;nbsp;getIpAddress( const string &amp;amp; ) string&lt;/div&gt;&lt;div&gt;+&amp;nbsp;scan() void&lt;/div&gt;&lt;div&gt;+&amp;nbsp;connect( const string &amp;amp;, const string &amp;amp; ) void&lt;/div&gt;&lt;div&gt;-(s) enumerateDevices( int, char *, char * [], int ) int&lt;/div&gt;&lt;div&gt;-&amp;nbsp;m_accessPoints()&amp;nbsp;&lt;span style=&quot;background-color: transparent; color: light-dark(rgb(0, 0, 0), rgb(255, 255, 255));&quot;&gt;AccessPoint []&lt;/span&gt;&lt;/div&gt;&lt;div&gt;&lt;span style=&quot;background-color: transparent; color: light-dark(rgb(0, 0, 0), rgb(255, 255, 255));&quot;&gt;-&amp;nbsp;&lt;/span&gt;&lt;span style=&quot;background-color: transparent;&quot;&gt;getInterfaces( const string &amp;amp; ) string []&amp;nbsp;&lt;/span&gt;&lt;/div&gt;&lt;div&gt;&lt;span style=&quot;background-color: transparent;&quot;&gt;-&amp;nbsp;&lt;/span&gt;&lt;span style=&quot;background-color: transparent;&quot;&gt;parseInterface( const string &amp;amp; ) string&lt;/span&gt;&lt;/div&gt;" style="text;strokeColor=none;fillColor=none;align=left;verticalAlign=top;spacingLeft=4;spacingRight=4;overflow=hidden;rotatable=0;points=[[0,0.5],[1,0.5]];portConstraint=eastwest;whiteSpace=wrap;html=1;" parent="yn2US-jf_UVP24uLlLP8-13" vertex="1">
          <mxGeometry y="204" width="320" height="222" as="geometry" />
        </mxCell>
        <mxCell id="yn2US-jf_UVP24uLlLP8-17" value="HttpServer" style="swimlane;fontStyle=1;align=center;verticalAlign=top;childLayout=stackLayout;horizontal=1;startSize=26;horizontalStack=0;resizeParent=1;resizeParentMax=0;resizeLast=0;collapsible=1;marginBottom=0;whiteSpace=wrap;html=1;" parent="1" vertex="1">
          <mxGeometry x="3811" y="4840" width="400" height="230" as="geometry" />
        </mxCell>
        <mxCell id="yn2US-jf_UVP24uLlLP8-18" value="&lt;div&gt;- *m_daemon MHD_Daemon&lt;/div&gt;&lt;div&gt;- *m_scanner Scanner&lt;/div&gt;-(s) *m_instance HttpServer" style="text;strokeColor=none;fillColor=none;align=left;verticalAlign=top;spacingLeft=4;spacingRight=4;overflow=hidden;rotatable=0;points=[[0,0.5],[1,0.5]];portConstraint=eastwest;whiteSpace=wrap;html=1;" parent="yn2US-jf_UVP24uLlLP8-17" vertex="1">
          <mxGeometry y="26" width="400" height="64" as="geometry" />
        </mxCell>
        <mxCell id="yn2US-jf_UVP24uLlLP8-19" value="" style="line;strokeWidth=1;fillColor=none;align=left;verticalAlign=middle;spacingTop=-1;spacingLeft=3;spacingRight=3;rotatable=0;labelPosition=right;points=[];portConstraint=eastwest;strokeColor=inherit;" parent="yn2US-jf_UVP24uLlLP8-17" vertex="1">
          <mxGeometry y="90" width="400" height="8" as="geometry" />
        </mxCell>
        <mxCell id="yn2US-jf_UVP24uLlLP8-20" value="+ ~HttpServer()&lt;div&gt;+ start( int ) void&lt;/div&gt;&lt;div&gt;+ stop() void&lt;/div&gt;&lt;div&gt;+ reinitialize() void&lt;/div&gt;&lt;div&gt;+(s) get() HttpServer *&lt;/div&gt;&lt;div&gt;+(s) release() void&lt;/div&gt;&lt;div&gt;+ getScanner() Scanner&lt;/div&gt;&lt;div&gt;- HttpServer()&lt;/div&gt;" style="text;strokeColor=none;fillColor=none;align=left;verticalAlign=top;spacingLeft=4;spacingRight=4;overflow=hidden;rotatable=0;points=[[0,0.5],[1,0.5]];portConstraint=eastwest;whiteSpace=wrap;html=1;" parent="yn2US-jf_UVP24uLlLP8-17" vertex="1">
          <mxGeometry y="98" width="400" height="132" as="geometry" />
        </mxCell>
        <mxCell id="yn2US-jf_UVP24uLlLP8-21" value="MountManager" style="swimlane;fontStyle=1;align=center;verticalAlign=top;childLayout=stackLayout;horizontal=1;startSize=26;horizontalStack=0;resizeParent=1;resizeParentMax=0;resizeLast=0;collapsible=1;marginBottom=0;whiteSpace=wrap;html=1;" parent="1" vertex="1">
          <mxGeometry x="5273" y="880" width="400" height="240" as="geometry" />
        </mxCell>
        <mxCell id="yn2US-jf_UVP24uLlLP8-22" value="-(s) *m_instance MountManager&lt;div&gt;-(s) MTAB_PATH const string&lt;/div&gt;&lt;div&gt;-(s) MEDIA_PATH const string&lt;/div&gt;&lt;div&gt;-(s) MNT_PATH const string&lt;/div&gt;" style="text;strokeColor=none;fillColor=none;align=left;verticalAlign=top;spacingLeft=4;spacingRight=4;overflow=hidden;rotatable=0;points=[[0,0.5],[1,0.5]];portConstraint=eastwest;whiteSpace=wrap;html=1;" parent="yn2US-jf_UVP24uLlLP8-21" vertex="1">
          <mxGeometry y="26" width="400" height="74" as="geometry" />
        </mxCell>
        <mxCell id="yn2US-jf_UVP24uLlLP8-23" value="" style="line;strokeWidth=1;fillColor=none;align=left;verticalAlign=middle;spacingTop=-1;spacingLeft=3;spacingRight=3;rotatable=0;labelPosition=right;points=[];portConstraint=eastwest;strokeColor=inherit;" parent="yn2US-jf_UVP24uLlLP8-21" vertex="1">
          <mxGeometry y="100" width="400" height="8" as="geometry" />
        </mxCell>
        <mxCell id="yn2US-jf_UVP24uLlLP8-24" value="+ MountManager()&lt;div&gt;+(s) get() MountManager *&lt;/div&gt;&lt;div&gt;+(s) release() void&amp;nbsp;&lt;/div&gt;&lt;div&gt;+ mount( const string&amp;amp;,&amp;nbsp;&lt;span style=&quot;background-color: transparent; color: light-dark(rgb(0, 0, 0), rgb(255, 255, 255));&quot;&gt;const string&amp;amp;,&amp;nbsp;&lt;/span&gt;&lt;span style=&quot;background-color: transparent; color: light-dark(rgb(0, 0, 0), rgb(255, 255, 255));&quot;&gt;const string&amp;amp;,&amp;nbsp;&lt;/span&gt;&lt;span style=&quot;background-color: transparent; color: light-dark(rgb(0, 0, 0), rgb(255, 255, 255));&quot;&gt;const string&amp;amp;&lt;/span&gt;&lt;span style=&quot;background-color: transparent; color: light-dark(rgb(0, 0, 0), rgb(255, 255, 255));&quot;&gt;&amp;nbsp;) string&lt;/span&gt;&lt;/div&gt;&lt;div&gt;&lt;span style=&quot;background-color: transparent; color: light-dark(rgb(0, 0, 0), rgb(255, 255, 255));&quot;&gt;+ isMounted( const string &amp;amp; ) bool&lt;/span&gt;&lt;/div&gt;&lt;div&gt;&lt;span style=&quot;background-color: transparent; color: light-dark(rgb(0, 0, 0), rgb(255, 255, 255));&quot;&gt;+ getValidMounts() string []&lt;/span&gt;&lt;/div&gt;&lt;div&gt;&lt;span style=&quot;background-color: transparent; color: light-dark(rgb(0, 0, 0), rgb(255, 255, 255));&quot;&gt;+ getMounts() string []&lt;/span&gt;&lt;/div&gt;&lt;div&gt;&lt;span style=&quot;background-color: transparent; color: light-dark(rgb(0, 0, 0), rgb(255, 255, 255));&quot;&gt;- parseMtabLab( const string &amp;amp;) string&amp;nbsp;&lt;/span&gt;&lt;/div&gt;" style="text;strokeColor=none;fillColor=none;align=left;verticalAlign=top;spacingLeft=4;spacingRight=4;overflow=hidden;rotatable=0;points=[[0,0.5],[1,0.5]];portConstraint=eastwest;whiteSpace=wrap;html=1;" parent="yn2US-jf_UVP24uLlLP8-21" vertex="1">
          <mxGeometry y="108" width="400" height="132" as="geometry" />
        </mxCell>
        <mxCell id="yn2US-jf_UVP24uLlLP8-25" value="BootConfigManager" style="swimlane;fontStyle=1;align=center;verticalAlign=top;childLayout=stackLayout;horizontal=1;startSize=26;horizontalStack=0;resizeParent=1;resizeParentMax=0;resizeLast=0;collapsible=1;marginBottom=0;whiteSpace=wrap;html=1;" parent="1" vertex="1">
          <mxGeometry x="6438" y="880" width="435" height="380" as="geometry" />
        </mxCell>
        <mxCell id="6D_M0ysuMkQ9SjPejFWx-14" value="&lt;span style=&quot;font-weight: normal;&quot;&gt;+ Settings&lt;/span&gt;" style="swimlane;fontStyle=1;align=center;verticalAlign=top;childLayout=stackLayout;horizontal=1;startSize=26;horizontalStack=0;resizeParent=1;resizeParentMax=0;resizeLast=0;collapsible=1;marginBottom=0;whiteSpace=wrap;html=1;fillStyle=zigzag-line;" parent="yn2US-jf_UVP24uLlLP8-25" vertex="1">
          <mxGeometry y="26" width="435" height="140" as="geometry" />
        </mxCell>
        <mxCell id="6D_M0ysuMkQ9SjPejFWx-15" value="+ gpuMemoryMb int&lt;div&gt;+ ledDisabled bool&lt;/div&gt;" style="text;strokeColor=none;fillColor=default;align=left;verticalAlign=top;spacingLeft=4;spacingRight=4;overflow=hidden;rotatable=0;points=[[0,0.5],[1,0.5]];portConstraint=eastwest;whiteSpace=wrap;html=1;fillStyle=zigzag-line;" parent="6D_M0ysuMkQ9SjPejFWx-14" vertex="1">
          <mxGeometry y="26" width="435" height="44" as="geometry" />
        </mxCell>
        <mxCell id="6D_M0ysuMkQ9SjPejFWx-16" value="" style="line;strokeWidth=1;fillColor=none;align=left;verticalAlign=middle;spacingTop=-1;spacingLeft=3;spacingRight=3;rotatable=0;labelPosition=right;points=[];portConstraint=eastwest;strokeColor=inherit;" parent="6D_M0ysuMkQ9SjPejFWx-14" vertex="1">
          <mxGeometry y="70" width="435" height="8" as="geometry" />
        </mxCell>
        <mxCell id="6D_M0ysuMkQ9SjPejFWx-17" value="+ operator == ( const Settings &amp;amp; ) bool&lt;div&gt;+ operator != ( const Settings &amp;amp; ) bool&amp;nbsp;&lt;/div&gt;" style="text;strokeColor=none;fillColor=default;align=left;verticalAlign=top;spacingLeft=4;spacingRight=4;overflow=hidden;rotatable=0;points=[[0,0.5],[1,0.5]];portConstraint=eastwest;whiteSpace=wrap;html=1;fillStyle=zigzag-line;" parent="6D_M0ysuMkQ9SjPejFWx-14" vertex="1">
          <mxGeometry y="78" width="435" height="62" as="geometry" />
        </mxCell>
        <mxCell id="yn2US-jf_UVP24uLlLP8-26" value="-(s) GPU_MEM string&lt;div&gt;-(s)&amp;nbsp;DISABLE_CAMERA_LED string&lt;/div&gt;&lt;div&gt;-(s)&amp;nbsp;BOOT_CONFIG string&lt;/div&gt;&lt;div&gt;-(s) *m_instance BootConfigManager&amp;nbsp;&lt;/div&gt;" style="text;strokeColor=none;fillColor=none;align=left;verticalAlign=top;spacingLeft=4;spacingRight=4;overflow=hidden;rotatable=0;points=[[0,0.5],[1,0.5]];portConstraint=eastwest;whiteSpace=wrap;html=1;" parent="yn2US-jf_UVP24uLlLP8-25" vertex="1">
          <mxGeometry y="166" width="435" height="74" as="geometry" />
        </mxCell>
        <mxCell id="yn2US-jf_UVP24uLlLP8-27" value="" style="line;strokeWidth=1;fillColor=none;align=left;verticalAlign=middle;spacingTop=-1;spacingLeft=3;spacingRight=3;rotatable=0;labelPosition=right;points=[];portConstraint=eastwest;strokeColor=inherit;" parent="yn2US-jf_UVP24uLlLP8-25" vertex="1">
          <mxGeometry y="240" width="435" height="8" as="geometry" />
        </mxCell>
        <mxCell id="yn2US-jf_UVP24uLlLP8-28" value="+ BootConfigManager()&lt;div&gt;+&amp;nbsp;readSettings() BootConfigManager::Settings&lt;/div&gt;&lt;div&gt;+&amp;nbsp;writeSettings(&amp;nbsp;BootConfigManager::Settings &amp;amp; ) void&lt;/div&gt;&lt;div&gt;+(s) get()&amp;nbsp;BootConfigManager *&lt;/div&gt;&lt;div&gt;+(s) release() void&lt;/div&gt;&lt;div&gt;- readFileLines ( const string &amp;amp; ) string []&lt;/div&gt;&lt;div&gt;-&amp;nbsp;parseLine ( const string &amp;amp;, const string &amp;amp;, string &amp;amp; ) bool&lt;/div&gt;" style="text;strokeColor=none;fillColor=none;align=left;verticalAlign=top;spacingLeft=4;spacingRight=4;overflow=hidden;rotatable=0;points=[[0,0.5],[1,0.5]];portConstraint=eastwest;whiteSpace=wrap;html=1;" parent="yn2US-jf_UVP24uLlLP8-25" vertex="1">
          <mxGeometry y="248" width="435" height="132" as="geometry" />
        </mxCell>
        <mxCell id="yn2US-jf_UVP24uLlLP8-29" value="MmalUtil" style="swimlane;fontStyle=1;align=center;verticalAlign=top;childLayout=stackLayout;horizontal=1;startSize=26;horizontalStack=0;resizeParent=1;resizeParentMax=0;resizeLast=0;collapsible=1;marginBottom=0;whiteSpace=wrap;html=1;" parent="1" vertex="1">
          <mxGeometry x="2104" y="399" width="440" height="220" as="geometry" />
        </mxCell>
        <mxCell id="yn2US-jf_UVP24uLlLP8-30" value="-(s) *m_instance Mmal_Util&lt;div&gt;+(s) IMX219 const string&lt;/div&gt;&lt;div&gt;+(s) OV5647 const string&lt;/div&gt;" style="text;strokeColor=none;fillColor=none;align=left;verticalAlign=top;spacingLeft=4;spacingRight=4;overflow=hidden;rotatable=0;points=[[0,0.5],[1,0.5]];portConstraint=eastwest;whiteSpace=wrap;html=1;" parent="yn2US-jf_UVP24uLlLP8-29" vertex="1">
          <mxGeometry y="26" width="440" height="64" as="geometry" />
        </mxCell>
        <mxCell id="yn2US-jf_UVP24uLlLP8-31" value="" style="line;strokeWidth=1;fillColor=none;align=left;verticalAlign=middle;spacingTop=-1;spacingLeft=3;spacingRight=3;rotatable=0;labelPosition=right;points=[];portConstraint=eastwest;strokeColor=inherit;" parent="yn2US-jf_UVP24uLlLP8-29" vertex="1">
          <mxGeometry y="90" width="440" height="8" as="geometry" />
        </mxCell>
        <mxCell id="yn2US-jf_UVP24uLlLP8-32" value="+ Mmal_Util&lt;div&gt;+ getCameraName() string&lt;/div&gt;&lt;div&gt;+ getSensorProperties( const string&amp;amp;, real&amp;amp;, real&amp;amp;, real&amp;amp; )&amp;nbsp;&lt;/div&gt;&lt;div&gt;+&amp;nbsp;getSupportedResolutions( const string&amp;amp; )&amp;nbsp;&lt;span style=&quot;background-color: transparent; color: light-dark(rgb(0, 0, 0), rgb(255, 255, 255));&quot;&gt;CameraResolution []&lt;/span&gt;&lt;/div&gt;&lt;div&gt;&lt;span style=&quot;background-color: transparent; color: light-dark(rgb(0, 0, 0), rgb(255, 255, 255));&quot;&gt;+&amp;nbsp;&lt;/span&gt;&lt;span style=&quot;background-color: transparent;&quot;&gt;getClosestResolution( const string&amp;amp;, CameraMode ) CameraResolution&lt;/span&gt;&lt;/div&gt;&lt;div&gt;&lt;span style=&quot;background-color: transparent;&quot;&gt;+(s) get() MmalUtil *&lt;/span&gt;&lt;/div&gt;&lt;div&gt;&lt;span style=&quot;background-color: transparent;&quot;&gt;+(s) release() void&amp;nbsp;&lt;/span&gt;&lt;/div&gt;" style="text;strokeColor=none;fillColor=none;align=left;verticalAlign=top;spacingLeft=4;spacingRight=4;overflow=hidden;rotatable=0;points=[[0,0.5],[1,0.5]];portConstraint=eastwest;whiteSpace=wrap;html=1;" parent="yn2US-jf_UVP24uLlLP8-29" vertex="1">
          <mxGeometry y="98" width="440" height="122" as="geometry" />
        </mxCell>
        <mxCell id="yn2US-jf_UVP24uLlLP8-33" value="Preset" style="swimlane;fontStyle=1;align=center;verticalAlign=top;childLayout=stackLayout;horizontal=1;startSize=26;horizontalStack=0;resizeParent=1;resizeParentMax=0;resizeLast=0;collapsible=1;marginBottom=0;whiteSpace=wrap;html=1;" parent="1" vertex="1">
          <mxGeometry x="1724" y="1590" width="340" height="460" as="geometry" />
        </mxCell>
        <mxCell id="yn2US-jf_UVP24uLlLP8-34" value="+&amp;nbsp;LaserMergeAction enum&lt;div&gt;&lt;div&gt;+ name string&lt;/div&gt;&lt;div&gt;&lt;span style=&quot;background-color: transparent; color: light-dark(rgb(0, 0, 0), rgb(255, 255, 255));&quot;&gt;+ laserSide&amp;nbsp;&lt;/span&gt;&lt;span style=&quot;background-color: transparent; color: light-dark(rgb(0, 0, 0), rgb(255, 255, 255));&quot;&gt;LaserSide&lt;/span&gt;&lt;span style=&quot;background-color: transparent; color: light-dark(rgb(0, 0, 0), rgb(255, 255, 255));&quot;&gt;&amp;nbsp;&lt;/span&gt;&lt;/div&gt;&lt;div&gt;&lt;span style=&quot;white-space: normal;&quot;&gt;+ cameraMode&amp;nbsp;&lt;/span&gt;&lt;span style=&quot;background-color: transparent; color: light-dark(rgb(0, 0, 0), rgb(255, 255, 255));&quot;&gt;CameraMode&lt;/span&gt;&lt;/div&gt;&lt;div&gt;&lt;span style=&quot;white-space: normal;&quot;&gt;+&amp;nbsp;laserThreshold real&lt;/span&gt;&lt;/div&gt;&lt;div&gt;&lt;span style=&quot;white-space: normal;&quot;&gt;+ minLaserWidth int&lt;/span&gt;&lt;/div&gt;&lt;div&gt;&lt;span style=&quot;white-space: normal;&quot;&gt;+ maxLaserWidth int&lt;/span&gt;&lt;/div&gt;&lt;div&gt;&lt;span style=&quot;white-space: normal;&quot;&gt;+ maxTriangleEdgeLength real&lt;/span&gt;&lt;/div&gt;&lt;div&gt;&lt;span style=&quot;white-space: normal;&quot;&gt;+ numLaserRowBins int&lt;/span&gt;&lt;/div&gt;&lt;div&gt;&lt;span style=&quot;white-space: normal;&quot;&gt;+ stabilityDelay int&lt;/span&gt;&lt;/div&gt;&lt;div&gt;&lt;span style=&quot;white-space: normal;&quot;&gt;+ id int&lt;/span&gt;&lt;/div&gt;&lt;div&gt;&lt;span style=&quot;white-space: normal;&quot;&gt;+ framesPerRevolution int&lt;/span&gt;&lt;/div&gt;&lt;div&gt;&lt;span style=&quot;white-space: normal;&quot;&gt;+ generateXyz bool&lt;/span&gt;&lt;/div&gt;&lt;div&gt;&lt;span style=&quot;white-space: normal;&quot;&gt;+ generateStl bool&lt;/span&gt;&lt;/div&gt;&lt;div&gt;&lt;span style=&quot;white-space: normal;&quot;&gt;+ generatePly bool&lt;/span&gt;&lt;/div&gt;&lt;div&gt;&lt;span style=&quot;white-space: normal;&quot;&gt;+ createBaseForObject bool&lt;/span&gt;&lt;/div&gt;&lt;div&gt;&lt;span style=&quot;white-space: normal;&quot;&gt;+ enableBurstModeForStillImages bool&lt;/span&gt;&lt;/div&gt;&lt;div&gt;&lt;span style=&quot;white-space: normal;&quot;&gt;+ noiseRemovalSetting&amp;nbsp;&lt;/span&gt;&lt;span style=&quot;background-color: transparent; color: light-dark(rgb(0, 0, 0), rgb(255, 255, 255));&quot;&gt;Setting&lt;/span&gt;&lt;/div&gt;&lt;div&gt;&lt;span style=&quot;white-space: normal;&quot;&gt;+ imageThresholdMode&amp;nbsp;&lt;/span&gt;&lt;span style=&quot;background-color: transparent; color: light-dark(rgb(0, 0, 0), rgb(255, 255, 255));&quot;&gt;ThresholdMode&lt;/span&gt;&lt;span style=&quot;background-color: transparent; color: light-dark(rgb(0, 0, 0), rgb(255, 255, 255));&quot;&gt;&amp;nbsp;&lt;/span&gt;&lt;/div&gt;&lt;div&gt;&lt;span style=&quot;white-space: normal;&quot;&gt;+ groundPlaneHeight real&lt;/span&gt;&lt;/div&gt;&lt;div&gt;&lt;span style=&quot;white-space: normal;&quot;&gt;+ laserMergeAction&amp;nbsp;&lt;/span&gt;&lt;span style=&quot;background-color: transparent; color: light-dark(rgb(0, 0, 0), rgb(255, 255, 255));&quot;&gt;LaserMergeAction&lt;/span&gt;&lt;/div&gt;&lt;div&gt;&lt;span style=&quot;white-space: normal;&quot;&gt;+ plyDataFormat&amp;nbsp;&lt;/span&gt;&lt;span style=&quot;background-color: transparent; color: light-dark(rgb(0, 0, 0), rgb(255, 255, 255));&quot;&gt;PlyDataFormat&lt;/span&gt;&lt;/div&gt;&lt;div&gt;&lt;span style=&quot;white-space: normal;&quot;&gt;+ cameraExposureTime&amp;nbsp;&lt;/span&gt;&lt;span style=&quot;background-color: transparent; color: light-dark(rgb(0, 0, 0), rgb(255, 255, 255));&quot;&gt;CameraExposureTime&lt;/span&gt;&lt;/div&gt;&lt;/div&gt;" style="text;strokeColor=none;fillColor=none;align=left;verticalAlign=top;spacingLeft=4;spacingRight=4;overflow=hidden;rotatable=0;points=[[0,0.5],[1,0.5]];portConstraint=eastwest;whiteSpace=wrap;html=1;" parent="yn2US-jf_UVP24uLlLP8-33" vertex="1">
          <mxGeometry y="26" width="340" height="344" as="geometry" />
        </mxCell>
        <mxCell id="yn2US-jf_UVP24uLlLP8-35" value="" style="line;strokeWidth=1;fillColor=none;align=left;verticalAlign=middle;spacingTop=-1;spacingLeft=3;spacingRight=3;rotatable=0;labelPosition=right;points=[];portConstraint=eastwest;strokeColor=inherit;" parent="yn2US-jf_UVP24uLlLP8-33" vertex="1">
          <mxGeometry y="370" width="340" height="8" as="geometry" />
        </mxCell>
        <mxCell id="yn2US-jf_UVP24uLlLP8-36" value="+ Preset()&lt;div&gt;+ encodeProperties ( Property [], bool ) void&lt;/div&gt;&lt;div&gt;+ decodeProperties ( Property [], string, bool ) void&lt;/div&gt;&lt;div&gt;+(s) detectPresetNames ( Properties [] )&lt;/div&gt;" style="text;strokeColor=none;fillColor=none;align=left;verticalAlign=top;spacingLeft=4;spacingRight=4;overflow=hidden;rotatable=0;points=[[0,0.5],[1,0.5]];portConstraint=eastwest;whiteSpace=wrap;html=1;" parent="yn2US-jf_UVP24uLlLP8-33" vertex="1">
          <mxGeometry y="378" width="340" height="82" as="geometry" />
        </mxCell>
        <mxCell id="RxCuROtgY9JJL6FJJ5Lr-5" value="Camera" style="swimlane;fontStyle=1;align=center;verticalAlign=top;childLayout=stackLayout;horizontal=1;startSize=26;horizontalStack=0;resizeParent=1;resizeParentMax=0;resizeLast=0;collapsible=1;marginBottom=0;whiteSpace=wrap;html=1;" parent="1" vertex="1">
          <mxGeometry x="1704" y="-477" width="360" height="540" as="geometry" />
        </mxCell>
        <mxCell id="RxCuROtgY9JJL6FJJ5Lr-6" value="+- m_name string&lt;div&gt;+- m_suportedResolutions CameraResolution []&lt;/div&gt;&lt;div&gt;+- m_resolution CameraResolution&lt;/div&gt;&lt;div&gt;-&amp;nbsp;m_nextAcquisitionTimeSet double&lt;/div&gt;&lt;div&gt;- m_sensorWidth real&lt;/div&gt;&lt;div&gt;-&amp;nbsp;m_sensorHeight real&lt;/div&gt;&lt;div&gt;-&amp;nbsp;m_focalLength real&lt;/div&gt;&lt;div&gt;-(s) *m_instance Camera&lt;/div&gt;&lt;div&gt;- m_cs CriticalSection&lt;/div&gt;" style="text;strokeColor=none;fillColor=none;align=left;verticalAlign=top;spacingLeft=4;spacingRight=4;overflow=hidden;rotatable=0;points=[[0,0.5],[1,0.5]];portConstraint=eastwest;whiteSpace=wrap;html=1;" parent="RxCuROtgY9JJL6FJJ5Lr-5" vertex="1">
          <mxGeometry y="26" width="360" height="154" as="geometry" />
        </mxCell>
        <mxCell id="RxCuROtgY9JJL6FJJ5Lr-7" value="" style="line;strokeWidth=1;fillColor=none;align=left;verticalAlign=middle;spacingTop=-1;spacingLeft=3;spacingRight=3;rotatable=0;labelPosition=right;points=[];portConstraint=eastwest;strokeColor=inherit;" parent="RxCuROtgY9JJL6FJJ5Lr-5" vertex="1">
          <mxGeometry y="180" width="360" height="8" as="geometry" />
        </mxCell>
        <mxCell id="RxCuROtgY9JJL6FJJ5Lr-8" value="+(s) getInstance() Camera*&lt;div&gt;+(s) release() void&lt;/div&gt;&lt;div&gt;+(s) reinitialize() void&lt;/div&gt;&lt;div&gt;+(v) ~Camera()&lt;/div&gt;&lt;div&gt;+(v)&amp;nbsp;getSensorWidth() real&lt;/div&gt;&lt;div&gt;+(v)&amp;nbsp;getSensorHeight() real&lt;/div&gt;&lt;div&gt;+(v)&amp;nbsp;getFocalLength() real&lt;/div&gt;&lt;div&gt;+(v)&amp;nbsp;getName() string&lt;/div&gt;&lt;div&gt;+(v)&amp;nbsp;getSupportedResolutions()&amp;nbsp;CameraResolution []&lt;/div&gt;&lt;div&gt;+(v) acquireImage() = 0 Image*&lt;/div&gt;&lt;div&gt;+(v)&amp;nbsp;releaseImage( Image* ) = 0 void&lt;/div&gt;&lt;div&gt;+(v)&amp;nbsp;acquireJpeg( byte*, unsigned* ) bool&lt;/div&gt;&lt;div&gt;+(v)&amp;nbsp;getImageHeight() = 0 int&lt;/div&gt;&lt;div&gt;+(v)&amp;nbsp;getImageWidth() = 0 int&lt;/div&gt;&lt;div&gt;+(v)&amp;nbsp;getImageComponents() = 0 int&lt;/div&gt;&lt;div&gt;+(v)&amp;nbsp;setAcquisitionDelay( double ) void&lt;/div&gt;&lt;div&gt;+(v)&amp;nbsp;setExposureTime( CameraExposureTime ) void&amp;nbsp;&lt;/div&gt;&lt;div&gt;+(v)&amp;nbsp;getCameraResolution()&amp;nbsp;CameraResolution&lt;/div&gt;&lt;div&gt;+-&amp;nbsp;Camera()&lt;/div&gt;&lt;div&gt;+-(v)&amp;nbsp;handleAcquisitionDelay() void&lt;/div&gt;&lt;div&gt;+-(v)&amp;nbsp;setShutterSpeed( unsigned ) = 0 void&lt;/div&gt;&lt;div&gt;+-&amp;nbsp;setSensorProperties( real, real, real ) void&lt;/div&gt;&lt;div&gt;-(s) convertToShutterSpeed(&amp;nbsp;CameraExposureTime )&amp;nbsp; unsigned&lt;/div&gt;" style="text;strokeColor=none;fillColor=none;align=left;verticalAlign=top;spacingLeft=4;spacingRight=4;overflow=hidden;rotatable=0;points=[[0,0.5],[1,0.5]];portConstraint=eastwest;whiteSpace=wrap;html=1;" parent="RxCuROtgY9JJL6FJJ5Lr-5" vertex="1">
          <mxGeometry y="188" width="360" height="352" as="geometry" />
        </mxCell>
        <mxCell id="RxCuROtgY9JJL6FJJ5Lr-9" value="TurnTable" style="swimlane;fontStyle=1;align=center;verticalAlign=top;childLayout=stackLayout;horizontal=1;startSize=26;horizontalStack=0;resizeParent=1;resizeParentMax=0;resizeLast=0;collapsible=1;marginBottom=0;whiteSpace=wrap;html=1;" parent="1" vertex="1">
          <mxGeometry x="3594" y="2280" width="239" height="170" as="geometry" />
        </mxCell>
        <mxCell id="RxCuROtgY9JJL6FJJ5Lr-10" value="-(s) *m_instance TurnTable" style="text;strokeColor=none;fillColor=none;align=left;verticalAlign=top;spacingLeft=4;spacingRight=4;overflow=hidden;rotatable=0;points=[[0,0.5],[1,0.5]];portConstraint=eastwest;whiteSpace=wrap;html=1;" parent="RxCuROtgY9JJL6FJJ5Lr-9" vertex="1">
          <mxGeometry y="26" width="239" height="34" as="geometry" />
        </mxCell>
        <mxCell id="RxCuROtgY9JJL6FJJ5Lr-11" value="" style="line;strokeWidth=1;fillColor=none;align=left;verticalAlign=middle;spacingTop=-1;spacingLeft=3;spacingRight=3;rotatable=0;labelPosition=right;points=[];portConstraint=eastwest;strokeColor=inherit;" parent="RxCuROtgY9JJL6FJJ5Lr-9" vertex="1">
          <mxGeometry y="60" width="239" height="8" as="geometry" />
        </mxCell>
        <mxCell id="RxCuROtgY9JJL6FJJ5Lr-12" value="+(s) getInstance() TurnTable *&lt;div&gt;+(s) release() void&lt;/div&gt;&lt;div&gt;+(v) ~TurnTable()&lt;/div&gt;&lt;div&gt;+(v) rotate( real ) int = 0&lt;/div&gt;&lt;div&gt;+(v) setMotorEnabled( bool ) void = 0&lt;/div&gt;&lt;div&gt;+- TurnTable()&lt;/div&gt;" style="text;strokeColor=none;fillColor=none;align=left;verticalAlign=top;spacingLeft=4;spacingRight=4;overflow=hidden;rotatable=0;points=[[0,0.5],[1,0.5]];portConstraint=eastwest;whiteSpace=wrap;html=1;" parent="RxCuROtgY9JJL6FJJ5Lr-9" vertex="1">
          <mxGeometry y="68" width="239" height="102" as="geometry" />
        </mxCell>
        <mxCell id="RxCuROtgY9JJL6FJJ5Lr-13" value="Laser" style="swimlane;fontStyle=1;align=center;verticalAlign=top;childLayout=stackLayout;horizontal=1;startSize=26;horizontalStack=0;resizeParent=1;resizeParentMax=0;resizeLast=0;collapsible=1;marginBottom=0;whiteSpace=wrap;html=1;" parent="1" vertex="1">
          <mxGeometry x="41" y="-567" width="200" height="308" as="geometry" />
        </mxCell>
        <mxCell id="HAzIw1MznUn47DCdTM_P-8" value="&lt;p style=&quot;margin:0px;margin-top:6px;text-align:center;&quot;&gt;LaserSide&lt;/p&gt;&lt;hr size=&quot;1&quot; style=&quot;border-style:solid;&quot;&gt;&lt;p style=&quot;margin:0px;margin-left:8px;&quot;&gt;+ LEFT_LASER&lt;br&gt;+&amp;nbsp;RIGHT_LASER&lt;/p&gt;&lt;p style=&quot;margin:0px;margin-left:8px;&quot;&gt;+&amp;nbsp;ALL_LASERS&lt;/p&gt;" style="align=left;overflow=fill;html=1;dropTarget=0;whiteSpace=wrap;fillStyle=dots;fillColor=#D5E8D4;" parent="RxCuROtgY9JJL6FJJ5Lr-13" vertex="1">
          <mxGeometry y="26" width="200" height="90" as="geometry" />
        </mxCell>
        <mxCell id="HAzIw1MznUn47DCdTM_P-9" value="" style="shape=component;jettyWidth=8;jettyHeight=4;" parent="HAzIw1MznUn47DCdTM_P-8" vertex="1">
          <mxGeometry x="1" width="20" height="20" relative="1" as="geometry">
            <mxPoint x="-24" y="4" as="offset" />
          </mxGeometry>
        </mxCell>
        <mxCell id="RxCuROtgY9JJL6FJJ5Lr-14" value="-(s) *m_instance Laser" style="text;strokeColor=none;fillColor=none;align=left;verticalAlign=top;spacingLeft=4;spacingRight=4;overflow=hidden;rotatable=0;points=[[0,0.5],[1,0.5]];portConstraint=eastwest;whiteSpace=wrap;html=1;" parent="RxCuROtgY9JJL6FJJ5Lr-13" vertex="1">
          <mxGeometry y="116" width="200" height="44" as="geometry" />
        </mxCell>
        <mxCell id="RxCuROtgY9JJL6FJJ5Lr-15" value="" style="line;strokeWidth=1;fillColor=none;align=left;verticalAlign=middle;spacingTop=-1;spacingLeft=3;spacingRight=3;rotatable=0;labelPosition=right;points=[];portConstraint=eastwest;strokeColor=inherit;" parent="RxCuROtgY9JJL6FJJ5Lr-13" vertex="1">
          <mxGeometry y="160" width="200" height="8" as="geometry" />
        </mxCell>
        <mxCell id="RxCuROtgY9JJL6FJJ5Lr-16" value="&lt;div&gt;+- Laser()&lt;/div&gt;+(s) getInstance (): Laser*&lt;div&gt;+(s) release () void&lt;/div&gt;&lt;div&gt;+(s) toString ( LaserSide ) string&lt;/div&gt;&lt;div&gt;+(v) ~Laser ()&lt;/div&gt;&lt;div&gt;+(v) turnOn ( LaserSide ) void = 0&lt;/div&gt;&lt;div&gt;+(v) turnOff ( LaserSide ) void = 0&lt;/div&gt;&lt;div&gt;+(v) isOn ( LaserSide ) void = 0&lt;/div&gt;" style="text;strokeColor=none;fillColor=none;align=left;verticalAlign=top;spacingLeft=4;spacingRight=4;overflow=hidden;rotatable=0;points=[[0,0.5],[1,0.5]];portConstraint=eastwest;whiteSpace=wrap;html=1;" parent="RxCuROtgY9JJL6FJJ5Lr-13" vertex="1">
          <mxGeometry y="168" width="200" height="140" as="geometry" />
        </mxCell>
        <mxCell id="4PzJdXpib3MUYdSoOykR-1" value="Property" style="swimlane;fontStyle=1;align=center;verticalAlign=top;childLayout=stackLayout;horizontal=1;startSize=26;horizontalStack=0;resizeParent=1;resizeParentMax=0;resizeLast=0;collapsible=1;marginBottom=0;whiteSpace=wrap;html=1;" parent="1" vertex="1">
          <mxGeometry x="1366" y="-1837" width="160" height="120" as="geometry" />
        </mxCell>
        <mxCell id="4PzJdXpib3MUYdSoOykR-2" value="+ name string&lt;div&gt;+ value string&lt;/div&gt;" style="text;strokeColor=none;fillColor=none;align=left;verticalAlign=top;spacingLeft=4;spacingRight=4;overflow=hidden;rotatable=0;points=[[0,0.5],[1,0.5]];portConstraint=eastwest;whiteSpace=wrap;html=1;" parent="4PzJdXpib3MUYdSoOykR-1" vertex="1">
          <mxGeometry y="26" width="160" height="44" as="geometry" />
        </mxCell>
        <mxCell id="4PzJdXpib3MUYdSoOykR-3" value="" style="line;strokeWidth=1;fillColor=none;align=left;verticalAlign=middle;spacingTop=-1;spacingLeft=3;spacingRight=3;rotatable=0;labelPosition=right;points=[];portConstraint=eastwest;strokeColor=inherit;" parent="4PzJdXpib3MUYdSoOykR-1" vertex="1">
          <mxGeometry y="70" width="160" height="8" as="geometry" />
        </mxCell>
        <mxCell id="4PzJdXpib3MUYdSoOykR-4" value="+ Property ()&lt;div&gt;+ Property (string, string)&lt;/div&gt;" style="text;strokeColor=none;fillColor=none;align=left;verticalAlign=top;spacingLeft=4;spacingRight=4;overflow=hidden;rotatable=0;points=[[0,0.5],[1,0.5]];portConstraint=eastwest;whiteSpace=wrap;html=1;" parent="4PzJdXpib3MUYdSoOykR-1" vertex="1">
          <mxGeometry y="78" width="160" height="42" as="geometry" />
        </mxCell>
        <mxCell id="4PzJdXpib3MUYdSoOykR-9" value="PixelLocation" style="swimlane;fontStyle=1;align=center;verticalAlign=top;childLayout=stackLayout;horizontal=1;startSize=26;horizontalStack=0;resizeParent=1;resizeParentMax=0;resizeLast=0;collapsible=1;marginBottom=0;whiteSpace=wrap;html=1;" parent="1" vertex="1">
          <mxGeometry x="300" y="-2023" width="160" height="114" as="geometry" />
        </mxCell>
        <mxCell id="4PzJdXpib3MUYdSoOykR-10" value="+ x real&lt;div&gt;+ y real&lt;/div&gt;" style="text;strokeColor=none;fillColor=none;align=left;verticalAlign=top;spacingLeft=4;spacingRight=4;overflow=hidden;rotatable=0;points=[[0,0.5],[1,0.5]];portConstraint=eastwest;whiteSpace=wrap;html=1;" parent="4PzJdXpib3MUYdSoOykR-9" vertex="1">
          <mxGeometry y="26" width="160" height="54" as="geometry" />
        </mxCell>
        <mxCell id="4PzJdXpib3MUYdSoOykR-11" value="" style="line;strokeWidth=1;fillColor=none;align=left;verticalAlign=middle;spacingTop=-1;spacingLeft=3;spacingRight=3;rotatable=0;labelPosition=right;points=[];portConstraint=eastwest;strokeColor=inherit;" parent="4PzJdXpib3MUYdSoOykR-9" vertex="1">
          <mxGeometry y="80" width="160" height="8" as="geometry" />
        </mxCell>
        <mxCell id="4PzJdXpib3MUYdSoOykR-12" value="+&amp;nbsp;" style="text;strokeColor=none;fillColor=none;align=left;verticalAlign=top;spacingLeft=4;spacingRight=4;overflow=hidden;rotatable=0;points=[[0,0.5],[1,0.5]];portConstraint=eastwest;whiteSpace=wrap;html=1;" parent="4PzJdXpib3MUYdSoOykR-9" vertex="1">
          <mxGeometry y="88" width="160" height="26" as="geometry" />
        </mxCell>
        <mxCell id="4PzJdXpib3MUYdSoOykR-13" value="Vector3" style="swimlane;fontStyle=1;align=center;verticalAlign=top;childLayout=stackLayout;horizontal=1;startSize=26;horizontalStack=0;resizeParent=1;resizeParentMax=0;resizeLast=0;collapsible=1;marginBottom=0;whiteSpace=wrap;html=1;" parent="1" vertex="1">
          <mxGeometry x="610" y="-2023" width="200" height="190" as="geometry" />
        </mxCell>
        <mxCell id="4PzJdXpib3MUYdSoOykR-14" value="+ x real&lt;div&gt;+ y real&lt;/div&gt;&lt;div&gt;+ z real&lt;/div&gt;" style="text;strokeColor=none;fillColor=none;align=left;verticalAlign=top;spacingLeft=4;spacingRight=4;overflow=hidden;rotatable=0;points=[[0,0.5],[1,0.5]];portConstraint=eastwest;whiteSpace=wrap;html=1;" parent="4PzJdXpib3MUYdSoOykR-13" vertex="1">
          <mxGeometry y="26" width="200" height="64" as="geometry" />
        </mxCell>
        <mxCell id="4PzJdXpib3MUYdSoOykR-15" value="" style="line;strokeWidth=1;fillColor=none;align=left;verticalAlign=middle;spacingTop=-1;spacingLeft=3;spacingRight=3;rotatable=0;labelPosition=right;points=[];portConstraint=eastwest;strokeColor=inherit;" parent="4PzJdXpib3MUYdSoOykR-13" vertex="1">
          <mxGeometry y="90" width="200" height="8" as="geometry" />
        </mxCell>
        <mxCell id="4PzJdXpib3MUYdSoOykR-16" value="+ Vector3 ()&lt;div&gt;+ Vector3 (real, real, real)&lt;/div&gt;&lt;div&gt;+ normalize () void&lt;/div&gt;&lt;div&gt;+ dot ( Vector3 ) real&lt;/div&gt;&lt;div&gt;+ cross ( Vector3, Vector3 ) void&lt;/div&gt;" style="text;strokeColor=none;fillColor=none;align=left;verticalAlign=top;spacingLeft=4;spacingRight=4;overflow=hidden;rotatable=0;points=[[0,0.5],[1,0.5]];portConstraint=eastwest;whiteSpace=wrap;html=1;" parent="4PzJdXpib3MUYdSoOykR-13" vertex="1">
          <mxGeometry y="98" width="200" height="92" as="geometry" />
        </mxCell>
        <mxCell id="4PzJdXpib3MUYdSoOykR-17" value="ColoredPoint" style="swimlane;fontStyle=1;align=center;verticalAlign=top;childLayout=stackLayout;horizontal=1;startSize=26;horizontalStack=0;resizeParent=1;resizeParentMax=0;resizeLast=0;collapsible=1;marginBottom=0;whiteSpace=wrap;html=1;" parent="1" vertex="1">
          <mxGeometry x="610" y="-1790" width="160" height="184" as="geometry" />
        </mxCell>
        <mxCell id="4PzJdXpib3MUYdSoOykR-18" value="+ x real32&lt;div&gt;+ y real32&lt;/div&gt;&lt;div&gt;+ z real32&lt;/div&gt;&lt;div&gt;+ normal Vector3&lt;/div&gt;&lt;div&gt;+ r char&lt;/div&gt;&lt;div&gt;+ g char&lt;/div&gt;&lt;div&gt;+ b char&lt;/div&gt;" style="text;strokeColor=none;fillColor=none;align=left;verticalAlign=top;spacingLeft=4;spacingRight=4;overflow=hidden;rotatable=0;points=[[0,0.5],[1,0.5]];portConstraint=eastwest;whiteSpace=wrap;html=1;" parent="4PzJdXpib3MUYdSoOykR-17" vertex="1">
          <mxGeometry y="26" width="160" height="124" as="geometry" />
        </mxCell>
        <mxCell id="4PzJdXpib3MUYdSoOykR-19" value="" style="line;strokeWidth=1;fillColor=none;align=left;verticalAlign=middle;spacingTop=-1;spacingLeft=3;spacingRight=3;rotatable=0;labelPosition=right;points=[];portConstraint=eastwest;strokeColor=inherit;" parent="4PzJdXpib3MUYdSoOykR-17" vertex="1">
          <mxGeometry y="150" width="160" height="8" as="geometry" />
        </mxCell>
        <mxCell id="4PzJdXpib3MUYdSoOykR-20" value="+&amp;nbsp;" style="text;strokeColor=none;fillColor=none;align=left;verticalAlign=top;spacingLeft=4;spacingRight=4;overflow=hidden;rotatable=0;points=[[0,0.5],[1,0.5]];portConstraint=eastwest;whiteSpace=wrap;html=1;" parent="4PzJdXpib3MUYdSoOykR-17" vertex="1">
          <mxGeometry y="158" width="160" height="26" as="geometry" />
        </mxCell>
        <mxCell id="4PzJdXpib3MUYdSoOykR-21" value="Hsv" style="swimlane;fontStyle=1;align=center;verticalAlign=top;childLayout=stackLayout;horizontal=1;startSize=26;horizontalStack=0;resizeParent=1;resizeParentMax=0;resizeLast=0;collapsible=1;marginBottom=0;whiteSpace=wrap;html=1;" parent="1" vertex="1">
          <mxGeometry x="1594" y="-1837" width="160" height="114" as="geometry" />
        </mxCell>
        <mxCell id="4PzJdXpib3MUYdSoOykR-22" value="+ h float&lt;div&gt;+ s float&lt;/div&gt;&lt;div&gt;+ v float&lt;/div&gt;" style="text;strokeColor=none;fillColor=none;align=left;verticalAlign=top;spacingLeft=4;spacingRight=4;overflow=hidden;rotatable=0;points=[[0,0.5],[1,0.5]];portConstraint=eastwest;whiteSpace=wrap;html=1;" parent="4PzJdXpib3MUYdSoOykR-21" vertex="1">
          <mxGeometry y="26" width="160" height="54" as="geometry" />
        </mxCell>
        <mxCell id="4PzJdXpib3MUYdSoOykR-23" value="" style="line;strokeWidth=1;fillColor=none;align=left;verticalAlign=middle;spacingTop=-1;spacingLeft=3;spacingRight=3;rotatable=0;labelPosition=right;points=[];portConstraint=eastwest;strokeColor=inherit;" parent="4PzJdXpib3MUYdSoOykR-21" vertex="1">
          <mxGeometry y="80" width="160" height="8" as="geometry" />
        </mxCell>
        <mxCell id="4PzJdXpib3MUYdSoOykR-24" value="+&amp;nbsp;" style="text;strokeColor=none;fillColor=none;align=left;verticalAlign=top;spacingLeft=4;spacingRight=4;overflow=hidden;rotatable=0;points=[[0,0.5],[1,0.5]];portConstraint=eastwest;whiteSpace=wrap;html=1;" parent="4PzJdXpib3MUYdSoOykR-21" vertex="1">
          <mxGeometry y="88" width="160" height="26" as="geometry" />
        </mxCell>
        <mxCell id="4PzJdXpib3MUYdSoOykR-25" value="Plane" style="swimlane;fontStyle=1;align=center;verticalAlign=top;childLayout=stackLayout;horizontal=1;startSize=26;horizontalStack=0;resizeParent=1;resizeParentMax=0;resizeLast=0;collapsible=1;marginBottom=0;whiteSpace=wrap;html=1;" parent="1" vertex="1">
          <mxGeometry x="850" y="-1530" width="160" height="114" as="geometry" />
        </mxCell>
        <mxCell id="4PzJdXpib3MUYdSoOykR-26" value="+ normal Vector3&lt;div&gt;+ point Vector3&lt;/div&gt;" style="text;strokeColor=none;fillColor=none;align=left;verticalAlign=top;spacingLeft=4;spacingRight=4;overflow=hidden;rotatable=0;points=[[0,0.5],[1,0.5]];portConstraint=eastwest;whiteSpace=wrap;html=1;" parent="4PzJdXpib3MUYdSoOykR-25" vertex="1">
          <mxGeometry y="26" width="160" height="54" as="geometry" />
        </mxCell>
        <mxCell id="4PzJdXpib3MUYdSoOykR-27" value="" style="line;strokeWidth=1;fillColor=none;align=left;verticalAlign=middle;spacingTop=-1;spacingLeft=3;spacingRight=3;rotatable=0;labelPosition=right;points=[];portConstraint=eastwest;strokeColor=inherit;" parent="4PzJdXpib3MUYdSoOykR-25" vertex="1">
          <mxGeometry y="80" width="160" height="8" as="geometry" />
        </mxCell>
        <mxCell id="4PzJdXpib3MUYdSoOykR-28" value="+&amp;nbsp;" style="text;strokeColor=none;fillColor=none;align=left;verticalAlign=top;spacingLeft=4;spacingRight=4;overflow=hidden;rotatable=0;points=[[0,0.5],[1,0.5]];portConstraint=eastwest;whiteSpace=wrap;html=1;" parent="4PzJdXpib3MUYdSoOykR-25" vertex="1">
          <mxGeometry y="88" width="160" height="26" as="geometry" />
        </mxCell>
        <mxCell id="4PzJdXpib3MUYdSoOykR-29" value="FaceMap" style="swimlane;fontStyle=1;align=center;verticalAlign=top;childLayout=stackLayout;horizontal=1;startSize=26;horizontalStack=0;resizeParent=1;resizeParentMax=0;resizeLast=0;collapsible=1;marginBottom=0;whiteSpace=wrap;html=1;" parent="1" vertex="1">
          <mxGeometry x="1820" y="-1837" width="200" height="86" as="geometry" />
        </mxCell>
        <mxCell id="4PzJdXpib3MUYdSoOykR-30" value="+ triangles unsigned []" style="text;strokeColor=none;fillColor=none;align=left;verticalAlign=top;spacingLeft=4;spacingRight=4;overflow=hidden;rotatable=0;points=[[0,0.5],[1,0.5]];portConstraint=eastwest;whiteSpace=wrap;html=1;" parent="4PzJdXpib3MUYdSoOykR-29" vertex="1">
          <mxGeometry y="26" width="200" height="26" as="geometry" />
        </mxCell>
        <mxCell id="4PzJdXpib3MUYdSoOykR-31" value="" style="line;strokeWidth=1;fillColor=none;align=left;verticalAlign=middle;spacingTop=-1;spacingLeft=3;spacingRight=3;rotatable=0;labelPosition=right;points=[];portConstraint=eastwest;strokeColor=inherit;" parent="4PzJdXpib3MUYdSoOykR-29" vertex="1">
          <mxGeometry y="52" width="200" height="8" as="geometry" />
        </mxCell>
        <mxCell id="4PzJdXpib3MUYdSoOykR-32" value="+&amp;nbsp;" style="text;strokeColor=none;fillColor=none;align=left;verticalAlign=top;spacingLeft=4;spacingRight=4;overflow=hidden;rotatable=0;points=[[0,0.5],[1,0.5]];portConstraint=eastwest;whiteSpace=wrap;html=1;" parent="4PzJdXpib3MUYdSoOykR-29" vertex="1">
          <mxGeometry y="60" width="200" height="26" as="geometry" />
        </mxCell>
        <mxCell id="4PzJdXpib3MUYdSoOykR-33" value="Ray" style="swimlane;fontStyle=1;align=center;verticalAlign=top;childLayout=stackLayout;horizontal=1;startSize=26;horizontalStack=0;resizeParent=1;resizeParentMax=0;resizeLast=0;collapsible=1;marginBottom=0;whiteSpace=wrap;html=1;" parent="1" vertex="1">
          <mxGeometry x="1110" y="-1530" width="160" height="104" as="geometry" />
        </mxCell>
        <mxCell id="4PzJdXpib3MUYdSoOykR-34" value="+ origin Vector3&lt;div&gt;+ direction Vector3&lt;/div&gt;" style="text;strokeColor=none;fillColor=none;align=left;verticalAlign=top;spacingLeft=4;spacingRight=4;overflow=hidden;rotatable=0;points=[[0,0.5],[1,0.5]];portConstraint=eastwest;whiteSpace=wrap;html=1;" parent="4PzJdXpib3MUYdSoOykR-33" vertex="1">
          <mxGeometry y="26" width="160" height="44" as="geometry" />
        </mxCell>
        <mxCell id="4PzJdXpib3MUYdSoOykR-35" value="" style="line;strokeWidth=1;fillColor=none;align=left;verticalAlign=middle;spacingTop=-1;spacingLeft=3;spacingRight=3;rotatable=0;labelPosition=right;points=[];portConstraint=eastwest;strokeColor=inherit;" parent="4PzJdXpib3MUYdSoOykR-33" vertex="1">
          <mxGeometry y="70" width="160" height="8" as="geometry" />
        </mxCell>
        <mxCell id="4PzJdXpib3MUYdSoOykR-36" value="+&amp;nbsp;" style="text;strokeColor=none;fillColor=none;align=left;verticalAlign=top;spacingLeft=4;spacingRight=4;overflow=hidden;rotatable=0;points=[[0,0.5],[1,0.5]];portConstraint=eastwest;whiteSpace=wrap;html=1;" parent="4PzJdXpib3MUYdSoOykR-33" vertex="1">
          <mxGeometry y="78" width="160" height="26" as="geometry" />
        </mxCell>
        <mxCell id="4PzJdXpib3MUYdSoOykR-37" value="DataPoint" style="swimlane;fontStyle=1;align=center;verticalAlign=top;childLayout=stackLayout;horizontal=1;startSize=26;horizontalStack=0;resizeParent=1;resizeParentMax=0;resizeLast=0;collapsible=1;marginBottom=0;whiteSpace=wrap;html=1;" parent="1" vertex="1">
          <mxGeometry x="300" y="-1530" width="480" height="230" as="geometry" />
        </mxCell>
        <mxCell id="4PzJdXpib3MUYdSoOykR-38" value="+ pixel PixelLocation&lt;div&gt;+ point ColoreadPoint&lt;/div&gt;&lt;div&gt;+ rotation real&lt;/div&gt;&lt;div&gt;+ frame uint16&lt;/div&gt;&lt;div&gt;+ laserSide uint8&lt;/div&gt;&lt;div&gt;+ pseudoFrame uint16&lt;/div&gt;&lt;div&gt;+ index uint32&lt;/div&gt;" style="text;strokeColor=none;fillColor=none;align=left;verticalAlign=top;spacingLeft=4;spacingRight=4;overflow=hidden;rotatable=0;points=[[0,0.5],[1,0.5]];portConstraint=eastwest;whiteSpace=wrap;html=1;" parent="4PzJdXpib3MUYdSoOykR-37" vertex="1">
          <mxGeometry y="26" width="480" height="114" as="geometry" />
        </mxCell>
        <mxCell id="4PzJdXpib3MUYdSoOykR-39" value="" style="line;strokeWidth=1;fillColor=none;align=left;verticalAlign=middle;spacingTop=-1;spacingLeft=3;spacingRight=3;rotatable=0;labelPosition=right;points=[];portConstraint=eastwest;strokeColor=inherit;" parent="4PzJdXpib3MUYdSoOykR-37" vertex="1">
          <mxGeometry y="140" width="480" height="8" as="geometry" />
        </mxCell>
        <mxCell id="4PzJdXpib3MUYdSoOykR-40" value="+ readNextFrame ( DataPoint [], DataPoint [], size_t ) bool&lt;div&gt;+ readNextFrame ( DataPoint [], size_t ) bool&lt;/div&gt;&lt;div&gt;+ lowpassFilter ( DataPoint [], DataPoint [], unsigned, unsigned ) void&lt;/div&gt;&lt;div&gt;+ computeAverage ( DataPoint [], DataPoint ) void&lt;br&gt;&lt;div&gt;&lt;br&gt;&lt;/div&gt;&lt;/div&gt;" style="text;strokeColor=none;fillColor=none;align=left;verticalAlign=top;spacingLeft=4;spacingRight=4;overflow=hidden;rotatable=0;points=[[0,0.5],[1,0.5]];portConstraint=eastwest;whiteSpace=wrap;html=1;" parent="4PzJdXpib3MUYdSoOykR-37" vertex="1">
          <mxGeometry y="148" width="480" height="82" as="geometry" />
        </mxCell>
        <mxCell id="4PzJdXpib3MUYdSoOykR-41" value="ScanResultFile" style="swimlane;fontStyle=1;align=center;verticalAlign=top;childLayout=stackLayout;horizontal=1;startSize=26;horizontalStack=0;resizeParent=1;resizeParentMax=0;resizeLast=0;collapsible=1;marginBottom=0;whiteSpace=wrap;html=1;" parent="1" vertex="1">
          <mxGeometry x="2120" y="-2040" width="160" height="124" as="geometry" />
        </mxCell>
        <mxCell id="4PzJdXpib3MUYdSoOykR-42" value="+ extension string&lt;div&gt;+ creationTime time_t&lt;/div&gt;&lt;div&gt;+ fileSize __off_t&lt;/div&gt;" style="text;strokeColor=none;fillColor=none;align=left;verticalAlign=top;spacingLeft=4;spacingRight=4;overflow=hidden;rotatable=0;points=[[0,0.5],[1,0.5]];portConstraint=eastwest;whiteSpace=wrap;html=1;" parent="4PzJdXpib3MUYdSoOykR-41" vertex="1">
          <mxGeometry y="26" width="160" height="64" as="geometry" />
        </mxCell>
        <mxCell id="4PzJdXpib3MUYdSoOykR-43" value="" style="line;strokeWidth=1;fillColor=none;align=left;verticalAlign=middle;spacingTop=-1;spacingLeft=3;spacingRight=3;rotatable=0;labelPosition=right;points=[];portConstraint=eastwest;strokeColor=inherit;" parent="4PzJdXpib3MUYdSoOykR-41" vertex="1">
          <mxGeometry y="90" width="160" height="8" as="geometry" />
        </mxCell>
        <mxCell id="4PzJdXpib3MUYdSoOykR-44" value="+&amp;nbsp;" style="text;strokeColor=none;fillColor=none;align=left;verticalAlign=top;spacingLeft=4;spacingRight=4;overflow=hidden;rotatable=0;points=[[0,0.5],[1,0.5]];portConstraint=eastwest;whiteSpace=wrap;html=1;" parent="4PzJdXpib3MUYdSoOykR-41" vertex="1">
          <mxGeometry y="98" width="160" height="26" as="geometry" />
        </mxCell>
        <mxCell id="4PzJdXpib3MUYdSoOykR-45" value="ScanResult" style="swimlane;fontStyle=1;align=center;verticalAlign=top;childLayout=stackLayout;horizontal=1;startSize=26;horizontalStack=0;resizeParent=1;resizeParentMax=0;resizeLast=0;collapsible=1;marginBottom=0;whiteSpace=wrap;html=1;" parent="1" vertex="1">
          <mxGeometry x="2120" y="-1837" width="200" height="90" as="geometry" />
        </mxCell>
        <mxCell id="4PzJdXpib3MUYdSoOykR-46" value="+ files ScanResultFile []" style="text;strokeColor=none;fillColor=none;align=left;verticalAlign=top;spacingLeft=4;spacingRight=4;overflow=hidden;rotatable=0;points=[[0,0.5],[1,0.5]];portConstraint=eastwest;whiteSpace=wrap;html=1;" parent="4PzJdXpib3MUYdSoOykR-45" vertex="1">
          <mxGeometry y="26" width="200" height="26" as="geometry" />
        </mxCell>
        <mxCell id="4PzJdXpib3MUYdSoOykR-47" value="" style="line;strokeWidth=1;fillColor=none;align=left;verticalAlign=middle;spacingTop=-1;spacingLeft=3;spacingRight=3;rotatable=0;labelPosition=right;points=[];portConstraint=eastwest;strokeColor=inherit;" parent="4PzJdXpib3MUYdSoOykR-45" vertex="1">
          <mxGeometry y="52" width="200" height="8" as="geometry" />
        </mxCell>
        <mxCell id="4PzJdXpib3MUYdSoOykR-48" value="+ getScanDate() time_t" style="text;strokeColor=none;fillColor=none;align=left;verticalAlign=top;spacingLeft=4;spacingRight=4;overflow=hidden;rotatable=0;points=[[0,0.5],[1,0.5]];portConstraint=eastwest;whiteSpace=wrap;html=1;" parent="4PzJdXpib3MUYdSoOykR-45" vertex="1">
          <mxGeometry y="60" width="200" height="30" as="geometry" />
        </mxCell>
        <mxCell id="4PzJdXpib3MUYdSoOykR-49" value="SoftwareUpdate" style="swimlane;fontStyle=1;align=center;verticalAlign=top;childLayout=stackLayout;horizontal=1;startSize=26;horizontalStack=0;resizeParent=1;resizeParentMax=0;resizeLast=0;collapsible=1;marginBottom=0;whiteSpace=wrap;html=1;" parent="1" vertex="1">
          <mxGeometry x="2440" y="-1837" width="160" height="154" as="geometry" />
        </mxCell>
        <mxCell id="4PzJdXpib3MUYdSoOykR-50" value="+ name string&lt;div&gt;+ description string&lt;/div&gt;&lt;div&gt;+ url string&lt;/div&gt;&lt;div&gt;+ releaseDate string&lt;/div&gt;&lt;div&gt;+ majorVersion int&lt;/div&gt;&lt;div&gt;+ minorVersion int&lt;/div&gt;" style="text;strokeColor=none;fillColor=none;align=left;verticalAlign=top;spacingLeft=4;spacingRight=4;overflow=hidden;rotatable=0;points=[[0,0.5],[1,0.5]];portConstraint=eastwest;whiteSpace=wrap;html=1;" parent="4PzJdXpib3MUYdSoOykR-49" vertex="1">
          <mxGeometry y="26" width="160" height="94" as="geometry" />
        </mxCell>
        <mxCell id="4PzJdXpib3MUYdSoOykR-51" value="" style="line;strokeWidth=1;fillColor=none;align=left;verticalAlign=middle;spacingTop=-1;spacingLeft=3;spacingRight=3;rotatable=0;labelPosition=right;points=[];portConstraint=eastwest;strokeColor=inherit;" parent="4PzJdXpib3MUYdSoOykR-49" vertex="1">
          <mxGeometry y="120" width="160" height="8" as="geometry" />
        </mxCell>
        <mxCell id="4PzJdXpib3MUYdSoOykR-52" value="+&amp;nbsp;" style="text;strokeColor=none;fillColor=none;align=left;verticalAlign=top;spacingLeft=4;spacingRight=4;overflow=hidden;rotatable=0;points=[[0,0.5],[1,0.5]];portConstraint=eastwest;whiteSpace=wrap;html=1;" parent="4PzJdXpib3MUYdSoOykR-49" vertex="1">
          <mxGeometry y="128" width="160" height="26" as="geometry" />
        </mxCell>
        <mxCell id="4PzJdXpib3MUYdSoOykR-53" value="PlyWriter" style="swimlane;fontStyle=1;align=center;verticalAlign=top;childLayout=stackLayout;horizontal=1;startSize=26;horizontalStack=0;resizeParent=1;resizeParentMax=0;resizeLast=0;collapsible=1;marginBottom=0;whiteSpace=wrap;html=1;" parent="1" vertex="1">
          <mxGeometry x="2953" y="2640" width="330" height="250" as="geometry" />
        </mxCell>
        <mxCell id="4PzJdXpib3MUYdSoOykR-54" value="- *m_writer IWriter&lt;div&gt;-&amp;nbsp;m_totalNumPoints int&lt;/div&gt;&lt;div&gt;-&amp;nbsp;m_totalNumFaces int&lt;/div&gt;&lt;div&gt;-&amp;nbsp;m_numPointsWritten int&lt;/div&gt;&lt;div&gt;-&amp;nbsp;m_dataFormat&amp;nbsp;PlyDataFormat&lt;/div&gt;" style="text;strokeColor=none;fillColor=none;align=left;verticalAlign=top;spacingLeft=4;spacingRight=4;overflow=hidden;rotatable=0;points=[[0,0.5],[1,0.5]];portConstraint=eastwest;whiteSpace=wrap;html=1;" parent="4PzJdXpib3MUYdSoOykR-53" vertex="1">
          <mxGeometry y="26" width="330" height="84" as="geometry" />
        </mxCell>
        <mxCell id="4PzJdXpib3MUYdSoOykR-55" value="" style="line;strokeWidth=1;fillColor=none;align=left;verticalAlign=middle;spacingTop=-1;spacingLeft=3;spacingRight=3;rotatable=0;labelPosition=right;points=[];portConstraint=eastwest;strokeColor=inherit;" parent="4PzJdXpib3MUYdSoOykR-53" vertex="1">
          <mxGeometry y="110" width="330" height="8" as="geometry" />
        </mxCell>
        <mxCell id="4PzJdXpib3MUYdSoOykR-56" value="+&amp;nbsp;PlyWriter()&lt;div&gt;+&amp;nbsp;setDataFormat(&amp;nbsp;PlyDataFormat ) void&lt;/div&gt;&lt;div&gt;+&amp;nbsp;setTotalNumPoints( int ) void&lt;/div&gt;&lt;div&gt;+&amp;nbsp;setTotalNumFacesFromFaceMap( const FaceMap&amp;amp; ) void&lt;/div&gt;&lt;div&gt;+ begin( IWriter * ) void&lt;/div&gt;&lt;div&gt;+&amp;nbsp;writePoints( ColoredPoints *, int )&lt;/div&gt;&lt;div&gt;+ writeFaces( const FaceMap&amp;amp; )&lt;/div&gt;&lt;div&gt;+ end() void&lt;/div&gt;" style="text;strokeColor=none;fillColor=none;align=left;verticalAlign=top;spacingLeft=4;spacingRight=4;overflow=hidden;rotatable=0;points=[[0,0.5],[1,0.5]];portConstraint=eastwest;whiteSpace=wrap;html=1;" parent="4PzJdXpib3MUYdSoOykR-53" vertex="1">
          <mxGeometry y="118" width="330" height="132" as="geometry" />
        </mxCell>
        <mxCell id="4PzJdXpib3MUYdSoOykR-57" value="NoiseRemover" style="swimlane;fontStyle=1;align=center;verticalAlign=top;childLayout=stackLayout;horizontal=1;startSize=26;horizontalStack=0;resizeParent=1;resizeParentMax=0;resizeLast=0;collapsible=1;marginBottom=0;whiteSpace=wrap;html=1;" parent="1" vertex="1">
          <mxGeometry x="5600" y="2640" width="360" height="250" as="geometry" />
        </mxCell>
        <mxCell id="6D_M0ysuMkQ9SjPejFWx-30" value="&lt;p style=&quot;margin:0px;margin-top:6px;text-align:center;&quot;&gt;+ Setting&lt;/p&gt;&lt;hr size=&quot;1&quot; style=&quot;border-style:solid;&quot;&gt;&lt;p style=&quot;margin:0px;margin-left:8px;&quot;&gt;+&amp;nbsp;NRS_DISABLED&lt;br&gt;+&amp;nbsp;NRS_LOW&lt;/p&gt;&lt;p style=&quot;margin:0px;margin-left:8px;&quot;&gt;+&amp;nbsp;NRS_MEDIUM&lt;/p&gt;&lt;p style=&quot;margin:0px;margin-left:8px;&quot;&gt;+&amp;nbsp;NRS_HIGH&lt;/p&gt;" style="align=left;overflow=fill;html=1;dropTarget=0;whiteSpace=wrap;fillStyle=dots;" parent="4PzJdXpib3MUYdSoOykR-57" vertex="1">
          <mxGeometry y="26" width="360" height="104" as="geometry" />
        </mxCell>
        <mxCell id="6D_M0ysuMkQ9SjPejFWx-31" value="" style="shape=component;jettyWidth=8;jettyHeight=4;" parent="6D_M0ysuMkQ9SjPejFWx-30" vertex="1">
          <mxGeometry x="1" width="20" height="20" relative="1" as="geometry">
            <mxPoint x="-24" y="4" as="offset" />
          </mxGeometry>
        </mxCell>
        <mxCell id="4PzJdXpib3MUYdSoOykR-58" value="-&amp;nbsp;m_setting&amp;nbsp;NoiseRemover::Setting&lt;div&gt;-&amp;nbsp;m_distanceThreshold real&lt;/div&gt;&lt;div&gt;-&amp;nbsp;m_halfWindowSize real&lt;/div&gt;" style="text;strokeColor=none;fillColor=none;align=left;verticalAlign=top;spacingLeft=4;spacingRight=4;overflow=hidden;rotatable=0;points=[[0,0.5],[1,0.5]];portConstraint=eastwest;whiteSpace=wrap;html=1;" parent="4PzJdXpib3MUYdSoOykR-57" vertex="1">
          <mxGeometry y="130" width="360" height="60" as="geometry" />
        </mxCell>
        <mxCell id="4PzJdXpib3MUYdSoOykR-59" value="" style="line;strokeWidth=1;fillColor=none;align=left;verticalAlign=middle;spacingTop=-1;spacingLeft=3;spacingRight=3;rotatable=0;labelPosition=right;points=[];portConstraint=eastwest;strokeColor=inherit;" parent="4PzJdXpib3MUYdSoOykR-57" vertex="1">
          <mxGeometry y="190" width="360" height="8" as="geometry" />
        </mxCell>
        <mxCell id="4PzJdXpib3MUYdSoOykR-60" value="+&amp;nbsp;NoiseRemover()&lt;div&gt;+&amp;nbsp;removeNoise(&amp;nbsp;PixelLocation *,&amp;nbsp;ColoredPoint *, int, int &amp;amp; ) void&lt;/div&gt;" style="text;strokeColor=none;fillColor=none;align=left;verticalAlign=top;spacingLeft=4;spacingRight=4;overflow=hidden;rotatable=0;points=[[0,0.5],[1,0.5]];portConstraint=eastwest;whiteSpace=wrap;html=1;" parent="4PzJdXpib3MUYdSoOykR-57" vertex="1">
          <mxGeometry y="198" width="360" height="52" as="geometry" />
        </mxCell>
        <mxCell id="IkhU0RiVINw_qmBYVu9J-1" value="&lt;p style=&quot;margin:0px;margin-top:6px;text-align:center;&quot;&gt;&lt;b&gt;UnitOfLength&lt;/b&gt;&lt;/p&gt;&lt;hr size=&quot;1&quot; style=&quot;border-style:solid;&quot;&gt;&lt;p style=&quot;margin:0px;margin-left:8px;&quot;&gt;+ UL_UNKNOWN&lt;br&gt;+ UL_MILIMETERS&lt;/p&gt;&lt;p style=&quot;margin:0px;margin-left:8px;&quot;&gt;+ UL_INCHES&lt;/p&gt;&lt;p style=&quot;margin:0px;margin-left:8px;&quot;&gt;+ UL_CENTIMETERS&lt;/p&gt;" style="align=left;overflow=fill;html=1;dropTarget=0;whiteSpace=wrap;" parent="1" vertex="1">
          <mxGeometry x="2680" y="-1837" width="200" height="90" as="geometry" />
        </mxCell>
        <mxCell id="IkhU0RiVINw_qmBYVu9J-2" value="" style="shape=component;jettyWidth=8;jettyHeight=4;" parent="IkhU0RiVINw_qmBYVu9J-1" vertex="1">
          <mxGeometry x="1" width="20" height="20" relative="1" as="geometry">
            <mxPoint x="-24" y="4" as="offset" />
          </mxGeometry>
        </mxCell>
        <mxCell id="IkhU0RiVINw_qmBYVu9J-3" value="&lt;p style=&quot;margin:0px;margin-top:6px;text-align:center;&quot;&gt;&lt;b&gt;PlyDataFormat&lt;/b&gt;&lt;/p&gt;&lt;hr size=&quot;1&quot; style=&quot;border-style:solid;&quot;&gt;&lt;p style=&quot;margin:0px;margin-left:8px;&quot;&gt;+ PLY_ASCII&lt;/p&gt;&lt;p style=&quot;margin:0px;margin-left:8px;&quot;&gt;+ PLY_BINIARY&lt;/p&gt;" style="align=left;overflow=fill;html=1;dropTarget=0;whiteSpace=wrap;" parent="1" vertex="1">
          <mxGeometry x="2960" y="-1837" width="180" height="90" as="geometry" />
        </mxCell>
        <mxCell id="IkhU0RiVINw_qmBYVu9J-4" value="" style="shape=component;jettyWidth=8;jettyHeight=4;" parent="IkhU0RiVINw_qmBYVu9J-3" vertex="1">
          <mxGeometry x="1" width="20" height="20" relative="1" as="geometry">
            <mxPoint x="-24" y="4" as="offset" />
          </mxGeometry>
        </mxCell>
        <mxCell id="IkhU0RiVINw_qmBYVu9J-20" value="&lt;p style=&quot;margin:0px;margin-top:6px;text-align:center;&quot;&gt;&lt;b&gt;CameraExposureTime&lt;/b&gt;&lt;/p&gt;&lt;hr size=&quot;1&quot; style=&quot;border-style:solid;&quot;&gt;&lt;p style=&quot;margin:0px;margin-left:8px;&quot;&gt;+ CET_AUTO&lt;br&gt;+ CET_VERYSHORT&lt;/p&gt;&lt;p style=&quot;margin:0px;margin-left:8px;&quot;&gt;+&amp;nbsp;CET_SHORT&lt;/p&gt;&lt;p style=&quot;margin:0px;margin-left:8px;&quot;&gt;+&amp;nbsp;CET_MEDIUM&lt;/p&gt;&lt;p style=&quot;margin:0px;margin-left:8px;&quot;&gt;+&amp;nbsp;CET_LONG&lt;/p&gt;&lt;p style=&quot;margin:0px;margin-left:8px;&quot;&gt;+&amp;nbsp;CET_VERYLONG&lt;/p&gt;" style="align=left;overflow=fill;html=1;dropTarget=0;whiteSpace=wrap;" parent="1" vertex="1">
          <mxGeometry x="2149" y="-1031" width="180" height="130" as="geometry" />
        </mxCell>
        <mxCell id="IkhU0RiVINw_qmBYVu9J-21" value="" style="shape=component;jettyWidth=8;jettyHeight=4;" parent="IkhU0RiVINw_qmBYVu9J-20" vertex="1">
          <mxGeometry x="1" width="20" height="20" relative="1" as="geometry">
            <mxPoint x="-24" y="4" as="offset" />
          </mxGeometry>
        </mxCell>
        <mxCell id="IkhU0RiVINw_qmBYVu9J-22" value="&lt;p style=&quot;margin:0px;margin-top:6px;text-align:center;&quot;&gt;&lt;b&gt;CameraMode&lt;/b&gt;&lt;/p&gt;&lt;hr size=&quot;1&quot; style=&quot;border-style:solid;&quot;&gt;&lt;div&gt;&lt;span style=&quot;background-color: transparent; color: light-dark(rgb(0, 0, 0), rgb(255, 255, 255));&quot;&gt;+&amp;nbsp;CM_STILL_5MP&lt;/span&gt;&lt;/div&gt;&lt;div&gt;&lt;span style=&quot;background-color: transparent; color: light-dark(rgb(0, 0, 0), rgb(255, 255, 255));&quot;&gt;+&amp;nbsp;CM_VIDEO_5MP&lt;/span&gt;&lt;/div&gt;&lt;div&gt;+ CM_VIDEO_HD&lt;/div&gt;&lt;div&gt;+ CM_VIDEO_1P2MP&lt;/div&gt;&lt;div&gt;+&amp;nbsp;CM_VIDEO_VGA&lt;/div&gt;&lt;div&gt;+&amp;nbsp;CM_STILL_8MP&lt;/div&gt;&lt;div&gt;+&amp;nbsp;CM_STILL_VGA&lt;/div&gt;&lt;div&gt;+&amp;nbsp;CM_STILL_HD&lt;/div&gt;" style="align=left;overflow=fill;html=1;dropTarget=0;whiteSpace=wrap;" parent="1" vertex="1">
          <mxGeometry x="1869" y="-1031" width="200" height="160" as="geometry" />
        </mxCell>
        <mxCell id="IkhU0RiVINw_qmBYVu9J-23" value="" style="shape=component;jettyWidth=8;jettyHeight=4;" parent="IkhU0RiVINw_qmBYVu9J-22" vertex="1">
          <mxGeometry x="1" width="20" height="20" relative="1" as="geometry">
            <mxPoint x="-24" y="4" as="offset" />
          </mxGeometry>
        </mxCell>
        <mxCell id="IkhU0RiVINw_qmBYVu9J-24" value="&lt;p style=&quot;margin:0px;margin-top:6px;text-align:center;&quot;&gt;&lt;b&gt;CameraAquisitionType&lt;/b&gt;&lt;/p&gt;&lt;hr size=&quot;1&quot; style=&quot;border-style:solid;&quot;&gt;&lt;p style=&quot;margin:0px;margin-left:8px;&quot;&gt;+ CT_UNKNOWN&lt;/p&gt;&lt;p style=&quot;margin:0px;margin-left:8px;&quot;&gt;+ CT_MMALSTILL&lt;/p&gt;&lt;p style=&quot;margin:0px;margin-left:8px;&quot;&gt;+ CT_MMALVIDEO&lt;/p&gt;" style="align=left;overflow=fill;html=1;dropTarget=0;whiteSpace=wrap;" parent="1" vertex="1">
          <mxGeometry x="1589" y="-1031" width="200" height="90" as="geometry" />
        </mxCell>
        <mxCell id="IkhU0RiVINw_qmBYVu9J-25" value="" style="shape=component;jettyWidth=8;jettyHeight=4;" parent="IkhU0RiVINw_qmBYVu9J-24" vertex="1">
          <mxGeometry x="1" width="20" height="20" relative="1" as="geometry">
            <mxPoint x="-24" y="4" as="offset" />
          </mxGeometry>
        </mxCell>
        <mxCell id="IkhU0RiVINw_qmBYVu9J-26" value="CameraResolution" style="swimlane;fontStyle=1;align=center;verticalAlign=top;childLayout=stackLayout;horizontal=1;startSize=26;horizontalStack=0;resizeParent=1;resizeParentMax=0;resizeLast=0;collapsible=1;marginBottom=0;whiteSpace=wrap;html=1;" parent="1" vertex="1">
          <mxGeometry x="1774" y="-766" width="240" height="160" as="geometry" />
        </mxCell>
        <mxCell id="IkhU0RiVINw_qmBYVu9J-27" value="+ width int&lt;div&gt;+ height int&lt;/div&gt;&lt;div&gt;+ frameRate int&lt;/div&gt;&lt;div&gt;+ cameraType CameraAquisitionType&lt;/div&gt;&lt;div&gt;+ cameraMode CameraMode&lt;/div&gt;&lt;div&gt;+ name string&lt;/div&gt;" style="text;strokeColor=none;fillColor=none;align=left;verticalAlign=top;spacingLeft=4;spacingRight=4;overflow=hidden;rotatable=0;points=[[0,0.5],[1,0.5]];portConstraint=eastwest;whiteSpace=wrap;html=1;" parent="IkhU0RiVINw_qmBYVu9J-26" vertex="1">
          <mxGeometry y="26" width="240" height="104" as="geometry" />
        </mxCell>
        <mxCell id="IkhU0RiVINw_qmBYVu9J-28" value="" style="line;strokeWidth=1;fillColor=none;align=left;verticalAlign=middle;spacingTop=-1;spacingLeft=3;spacingRight=3;rotatable=0;labelPosition=right;points=[];portConstraint=eastwest;strokeColor=inherit;" parent="IkhU0RiVINw_qmBYVu9J-26" vertex="1">
          <mxGeometry y="130" width="240" height="8" as="geometry" />
        </mxCell>
        <mxCell id="IkhU0RiVINw_qmBYVu9J-29" value="+" style="text;strokeColor=none;fillColor=none;align=left;verticalAlign=top;spacingLeft=4;spacingRight=4;overflow=hidden;rotatable=0;points=[[0,0.5],[1,0.5]];portConstraint=eastwest;whiteSpace=wrap;html=1;" parent="IkhU0RiVINw_qmBYVu9J-26" vertex="1">
          <mxGeometry y="138" width="240" height="22" as="geometry" />
        </mxCell>
        <mxCell id="IkhU0RiVINw_qmBYVu9J-30" value="CriticalSection" style="swimlane;fontStyle=1;align=center;verticalAlign=top;childLayout=stackLayout;horizontal=1;startSize=26;horizontalStack=0;resizeParent=1;resizeParentMax=0;resizeLast=0;collapsible=1;marginBottom=0;whiteSpace=wrap;html=1;" parent="1" vertex="1">
          <mxGeometry x="2560" y="-780" width="290" height="200" as="geometry" />
        </mxCell>
        <mxCell id="IkhU0RiVINw_qmBYVu9J-31" value="-&amp;nbsp;m_handle pthread_mutex_t" style="text;strokeColor=none;fillColor=none;align=left;verticalAlign=top;spacingLeft=4;spacingRight=4;overflow=hidden;rotatable=0;points=[[0,0.5],[1,0.5]];portConstraint=eastwest;whiteSpace=wrap;html=1;" parent="IkhU0RiVINw_qmBYVu9J-30" vertex="1">
          <mxGeometry y="26" width="290" height="26" as="geometry" />
        </mxCell>
        <mxCell id="IkhU0RiVINw_qmBYVu9J-32" value="" style="line;strokeWidth=1;fillColor=none;align=left;verticalAlign=middle;spacingTop=-1;spacingLeft=3;spacingRight=3;rotatable=0;labelPosition=right;points=[];portConstraint=eastwest;strokeColor=inherit;" parent="IkhU0RiVINw_qmBYVu9J-30" vertex="1">
          <mxGeometry y="52" width="290" height="8" as="geometry" />
        </mxCell>
        <mxCell id="IkhU0RiVINw_qmBYVu9J-33" value="+&amp;nbsp;CriticalSection()&lt;div&gt;+ ~CriticalSection()&lt;/div&gt;&lt;div&gt;+ enter() void&lt;/div&gt;&lt;div&gt;+ enter(string) void&lt;/div&gt;&lt;div&gt;+ leave() void&lt;/div&gt;&lt;div&gt;- errorToString( int ) string&lt;/div&gt;&lt;div&gt;- CriticalSection( CriticalSection &amp;amp; )&lt;/div&gt;&lt;div&gt;- operator = ( CriticalSection &amp;amp; ) CriticalSection&lt;/div&gt;" style="text;strokeColor=none;fillColor=none;align=left;verticalAlign=top;spacingLeft=4;spacingRight=4;overflow=hidden;rotatable=0;points=[[0,0.5],[1,0.5]];portConstraint=eastwest;whiteSpace=wrap;html=1;" parent="IkhU0RiVINw_qmBYVu9J-30" vertex="1">
          <mxGeometry y="60" width="290" height="140" as="geometry" />
        </mxCell>
        <mxCell id="IkhU0RiVINw_qmBYVu9J-34" value="MockCamera" style="swimlane;fontStyle=1;align=center;verticalAlign=top;childLayout=stackLayout;horizontal=1;startSize=26;horizontalStack=0;resizeParent=1;resizeParentMax=0;resizeLast=0;collapsible=1;marginBottom=0;whiteSpace=wrap;html=1;" parent="1" vertex="1">
          <mxGeometry x="1213" y="890" width="242" height="250" as="geometry" />
        </mxCell>
        <mxCell id="IkhU0RiVINw_qmBYVu9J-35" value="-&amp;nbsp;m_imageWidth int&lt;div&gt;-&amp;nbsp;m_imageHeight int&lt;/div&gt;" style="text;strokeColor=none;fillColor=none;align=left;verticalAlign=top;spacingLeft=4;spacingRight=4;overflow=hidden;rotatable=0;points=[[0,0.5],[1,0.5]];portConstraint=eastwest;whiteSpace=wrap;html=1;" parent="IkhU0RiVINw_qmBYVu9J-34" vertex="1">
          <mxGeometry y="26" width="242" height="44" as="geometry" />
        </mxCell>
        <mxCell id="IkhU0RiVINw_qmBYVu9J-36" value="" style="line;strokeWidth=1;fillColor=none;align=left;verticalAlign=middle;spacingTop=-1;spacingLeft=3;spacingRight=3;rotatable=0;labelPosition=right;points=[];portConstraint=eastwest;strokeColor=inherit;" parent="IkhU0RiVINw_qmBYVu9J-34" vertex="1">
          <mxGeometry y="70" width="242" height="8" as="geometry" />
        </mxCell>
        <mxCell id="IkhU0RiVINw_qmBYVu9J-37" value="+&amp;nbsp;MockCamera()&lt;div&gt;+&amp;nbsp;initialize( CameraMode ) void&lt;/div&gt;&lt;div&gt;+&amp;nbsp;acquireImage() Image*&lt;/div&gt;&lt;div&gt;+&amp;nbsp;releaseImage( Image* ) void&lt;/div&gt;&lt;div&gt;+&amp;nbsp;getImageHeight() int&lt;/div&gt;&lt;div&gt;+&amp;nbsp;getImageWidth() int&lt;/div&gt;&lt;div&gt;+&amp;nbsp;getImageComponents() int&lt;/div&gt;&lt;div&gt;+&amp;nbsp;setBurstModeEnabled( bool ) void&lt;/div&gt;&lt;div&gt;+&amp;nbsp;setFlipRedBlue( bool ) void&lt;/div&gt;&lt;div&gt;+-&amp;nbsp;setShutterSpeed( unsigned ) void&lt;/div&gt;" style="text;strokeColor=none;fillColor=none;align=left;verticalAlign=top;spacingLeft=4;spacingRight=4;overflow=hidden;rotatable=0;points=[[0,0.5],[1,0.5]];portConstraint=eastwest;whiteSpace=wrap;html=1;" parent="IkhU0RiVINw_qmBYVu9J-34" vertex="1">
          <mxGeometry y="78" width="242" height="172" as="geometry" />
        </mxCell>
        <mxCell id="IkhU0RiVINw_qmBYVu9J-49" style="edgeStyle=orthogonalEdgeStyle;rounded=0;orthogonalLoop=1;jettySize=auto;html=1;entryX=0.513;entryY=1;entryDx=0;entryDy=0;entryPerimeter=0;exitX=0.515;exitY=0;exitDx=0;exitDy=0;exitPerimeter=0;" parent="1" source="IkhU0RiVINw_qmBYVu9J-38" target="RxCuROtgY9JJL6FJJ5Lr-8" edge="1">
          <mxGeometry relative="1" as="geometry">
            <mxPoint x="1893.17" y="97.61400000000016" as="targetPoint" />
            <Array as="points" />
            <mxPoint x="1889" y="880" as="sourcePoint" />
          </mxGeometry>
        </mxCell>
        <mxCell id="IkhU0RiVINw_qmBYVu9J-38" value="MmalStillCamera" style="swimlane;fontStyle=1;align=center;verticalAlign=top;childLayout=stackLayout;horizontal=1;startSize=26;horizontalStack=0;resizeParent=1;resizeParentMax=0;resizeLast=0;collapsible=1;marginBottom=0;whiteSpace=wrap;html=1;" parent="1" vertex="1">
          <mxGeometry x="1724" y="890" width="320" height="480" as="geometry" />
        </mxCell>
        <mxCell id="IkhU0RiVINw_qmBYVu9J-39" value="-&amp;nbsp;m_imageWidth int&lt;div&gt;-&amp;nbsp;m_imageHeight int&lt;/div&gt;&lt;div&gt;- *m_callbackData MmalStillCallbackData&lt;/div&gt;&lt;div&gt;-&amp;nbsp;m_cs&amp;nbsp;CriticalSection&lt;/div&gt;&lt;div&gt;- *m_camera&amp;nbsp;MMAL_COMPONENT_T&lt;/div&gt;&lt;div&gt;- *m_preview&amp;nbsp;&lt;span style=&quot;background-color: transparent; color: light-dark(rgb(0, 0, 0), rgb(255, 255, 255));&quot;&gt;MMAL_COMPONENT_T&lt;/span&gt;&lt;/div&gt;&lt;div&gt;&lt;span style=&quot;background-color: transparent; color: light-dark(rgb(0, 0, 0), rgb(255, 255, 255));&quot;&gt;- *&lt;/span&gt;&lt;span style=&quot;background-color: transparent;&quot;&gt;m_encoder&amp;nbsp;&lt;/span&gt;&lt;span style=&quot;background-color: transparent; color: light-dark(rgb(0, 0, 0), rgb(255, 255, 255));&quot;&gt;MMAL_COMPONENT_T&lt;/span&gt;&lt;/div&gt;&lt;div&gt;&lt;span style=&quot;background-color: transparent; color: light-dark(rgb(0, 0, 0), rgb(255, 255, 255));&quot;&gt;- *&lt;/span&gt;&lt;span style=&quot;background-color: transparent;&quot;&gt;m_pool&amp;nbsp;&lt;/span&gt;&lt;span style=&quot;background-color: transparent;&quot;&gt;MMAL_POOL_T&lt;/span&gt;&lt;/div&gt;&lt;div&gt;&lt;span style=&quot;background-color: transparent;&quot;&gt;- *&lt;/span&gt;&lt;span style=&quot;background-color: transparent;&quot;&gt;m_previewPort&amp;nbsp;&lt;/span&gt;&lt;span style=&quot;background-color: transparent;&quot;&gt;MMAL_PORT_T&lt;/span&gt;&lt;/div&gt;&lt;div&gt;&lt;span style=&quot;background-color: transparent;&quot;&gt;- *&lt;/span&gt;&lt;span style=&quot;background-color: transparent;&quot;&gt;m_videoPort&amp;nbsp;&lt;/span&gt;&lt;span style=&quot;background-color: transparent; color: light-dark(rgb(0, 0, 0), rgb(255, 255, 255));&quot;&gt;MMAL_PORT_T&lt;/span&gt;&lt;/div&gt;&lt;div&gt;&lt;span style=&quot;background-color: transparent; color: light-dark(rgb(0, 0, 0), rgb(255, 255, 255));&quot;&gt;- *&lt;/span&gt;&lt;span style=&quot;background-color: transparent;&quot;&gt;m_stillPort&amp;nbsp;&lt;/span&gt;&lt;span style=&quot;background-color: transparent;&quot;&gt;MMAL_PORT_T&lt;/span&gt;&lt;/div&gt;&lt;div&gt;&lt;span style=&quot;background-color: transparent; color: light-dark(rgb(0, 0, 0), rgb(255, 255, 255));&quot;&gt;- *&lt;/span&gt;&lt;span style=&quot;background-color: transparent;&quot;&gt;m_targetPort&amp;nbsp;&lt;/span&gt;&lt;span style=&quot;background-color: transparent; color: light-dark(rgb(0, 0, 0), rgb(255, 255, 255));&quot;&gt;MMAL_PORT_T&lt;/span&gt;&lt;/div&gt;&lt;div&gt;&lt;span style=&quot;background-color: transparent; color: light-dark(rgb(0, 0, 0), rgb(255, 255, 255));&quot;&gt;-&amp;nbsp;&lt;/span&gt;&lt;span style=&quot;background-color: transparent;&quot;&gt;m_burstModeEnabled bool&lt;/span&gt;&lt;/div&gt;&lt;div&gt;&lt;span style=&quot;background-color: transparent;&quot;&gt;-&amp;nbsp;&lt;/span&gt;&lt;span style=&quot;background-color: transparent;&quot;&gt;m_flipRedBlue bool&lt;/span&gt;&lt;/div&gt;" style="text;strokeColor=none;fillColor=none;align=left;verticalAlign=top;spacingLeft=4;spacingRight=4;overflow=hidden;rotatable=0;points=[[0,0.5],[1,0.5]];portConstraint=eastwest;whiteSpace=wrap;html=1;" parent="IkhU0RiVINw_qmBYVu9J-38" vertex="1">
          <mxGeometry y="26" width="320" height="224" as="geometry" />
        </mxCell>
        <mxCell id="IkhU0RiVINw_qmBYVu9J-40" value="" style="line;strokeWidth=1;fillColor=none;align=left;verticalAlign=middle;spacingTop=-1;spacingLeft=3;spacingRight=3;rotatable=0;labelPosition=right;points=[];portConstraint=eastwest;strokeColor=inherit;" parent="IkhU0RiVINw_qmBYVu9J-38" vertex="1">
          <mxGeometry y="250" width="320" height="8" as="geometry" />
        </mxCell>
        <mxCell id="IkhU0RiVINw_qmBYVu9J-41" value="+&amp;nbsp;MmalStillCamera()&lt;div&gt;+ ~MmalStillCamera()&lt;/div&gt;&lt;div&gt;+&amp;nbsp;acquireImage() Image*&lt;/div&gt;&lt;div&gt;+&amp;nbsp;initialize( CameraMode ) void&lt;/div&gt;&lt;div&gt;+&amp;nbsp;setBurstModeEnabled( bool ) void&lt;/div&gt;&lt;div&gt;+&amp;nbsp;setFlipRedBlue( bool ) void&lt;/div&gt;&lt;div&gt;+&amp;nbsp;releaseImage( Image* ) void&lt;/div&gt;&lt;div&gt;+&amp;nbsp;getImageHeight() int&lt;/div&gt;&lt;div&gt;+&amp;nbsp;getImageWidth() int&lt;/div&gt;&lt;div&gt;+&amp;nbsp;getImageComponents() int&lt;/div&gt;&lt;div&gt;+-&amp;nbsp;setShutterSpeed( unsigned ) void&lt;/div&gt;&lt;div&gt;-&amp;nbsp;createPreview() void&lt;/div&gt;&lt;div&gt;-&amp;nbsp;createEncoder() void&lt;/div&gt;&lt;div&gt;-&amp;nbsp;createCameraComponent() void&lt;/div&gt;" style="text;strokeColor=none;fillColor=none;align=left;verticalAlign=top;spacingLeft=4;spacingRight=4;overflow=hidden;rotatable=0;points=[[0,0.5],[1,0.5]];portConstraint=eastwest;whiteSpace=wrap;html=1;" parent="IkhU0RiVINw_qmBYVu9J-38" vertex="1">
          <mxGeometry y="258" width="320" height="222" as="geometry" />
        </mxCell>
        <mxCell id="IkhU0RiVINw_qmBYVu9J-50" style="edgeStyle=orthogonalEdgeStyle;rounded=0;orthogonalLoop=1;jettySize=auto;html=1;entryX=0.83;entryY=1.004;entryDx=0;entryDy=0;entryPerimeter=0;" parent="1" source="IkhU0RiVINw_qmBYVu9J-42" target="RxCuROtgY9JJL6FJJ5Lr-8" edge="1">
          <mxGeometry relative="1" as="geometry">
            <mxPoint x="2003" y="69" as="targetPoint" />
            <Array as="points">
              <mxPoint x="2403" y="760" />
              <mxPoint x="2003" y="760" />
            </Array>
          </mxGeometry>
        </mxCell>
        <mxCell id="IkhU0RiVINw_qmBYVu9J-42" value="MmalVideoCamera" style="swimlane;fontStyle=1;align=center;verticalAlign=top;childLayout=stackLayout;horizontal=1;startSize=26;horizontalStack=0;resizeParent=1;resizeParentMax=0;resizeLast=0;collapsible=1;marginBottom=0;whiteSpace=wrap;html=1;" parent="1" vertex="1">
          <mxGeometry x="2279" y="895" width="260" height="470" as="geometry" />
        </mxCell>
        <mxCell id="IkhU0RiVINw_qmBYVu9J-43" value="-&amp;nbsp;m_imageWidth int&lt;div&gt;-&amp;nbsp;m_imageHeight int&lt;/div&gt;&lt;div&gt;-&amp;nbsp;m_frameRate int&lt;/div&gt;&lt;div&gt;-&amp;nbsp;m_imagePreviewWidth int&lt;/div&gt;&lt;div&gt;-&amp;nbsp;m_imagePreviewHeight int&lt;/div&gt;&lt;div&gt;- *m_callbackData MmalVideoCallbackData&lt;/div&gt;&lt;div&gt;-&amp;nbsp;m_cs&amp;nbsp;CriticalSection&lt;/div&gt;&lt;div&gt;- *m_camera&amp;nbsp;MMAL_COMPONENT_T&lt;/div&gt;&lt;div&gt;&lt;span style=&quot;background-color: transparent; color: light-dark(rgb(0, 0, 0), rgb(255, 255, 255));&quot;&gt;- *&lt;/span&gt;&lt;span style=&quot;background-color: transparent;&quot;&gt;m_pool&amp;nbsp;&lt;/span&gt;&lt;span style=&quot;background-color: transparent;&quot;&gt;MMAL_POOL_T&lt;/span&gt;&lt;/div&gt;&lt;div&gt;&lt;span style=&quot;background-color: transparent;&quot;&gt;- *&lt;/span&gt;&lt;span style=&quot;background-color: transparent;&quot;&gt;m_previewPort&amp;nbsp;&lt;/span&gt;&lt;span style=&quot;background-color: transparent;&quot;&gt;MMAL_PORT_T&lt;/span&gt;&lt;/div&gt;&lt;div&gt;&lt;span style=&quot;background-color: transparent;&quot;&gt;- *&lt;/span&gt;&lt;span style=&quot;background-color: transparent;&quot;&gt;m_videoPort&amp;nbsp;&lt;/span&gt;&lt;span style=&quot;background-color: transparent; color: light-dark(rgb(0, 0, 0), rgb(255, 255, 255));&quot;&gt;MMAL_PORT_T&lt;/span&gt;&lt;/div&gt;&lt;div&gt;&lt;span style=&quot;background-color: transparent; color: light-dark(rgb(0, 0, 0), rgb(255, 255, 255));&quot;&gt;- *&lt;/span&gt;&lt;span style=&quot;background-color: transparent;&quot;&gt;m_stillPort&amp;nbsp;&lt;/span&gt;&lt;span style=&quot;background-color: transparent;&quot;&gt;MMAL_PORT_T&lt;/span&gt;&lt;/div&gt;&lt;div&gt;&lt;span style=&quot;background-color: transparent; color: light-dark(rgb(0, 0, 0), rgb(255, 255, 255));&quot;&gt;-&amp;nbsp;&lt;/span&gt;&lt;span style=&quot;background-color: transparent;&quot;&gt;m_videoPortEnabled bool&lt;/span&gt;&lt;/div&gt;&lt;div&gt;&lt;span style=&quot;background-color: transparent;&quot;&gt;-&amp;nbsp;&lt;/span&gt;&lt;span style=&quot;background-color: transparent;&quot;&gt;m_flipRedBlue bool&lt;/span&gt;&lt;/div&gt;" style="text;strokeColor=none;fillColor=none;align=left;verticalAlign=top;spacingLeft=4;spacingRight=4;overflow=hidden;rotatable=0;points=[[0,0.5],[1,0.5]];portConstraint=eastwest;whiteSpace=wrap;html=1;" parent="IkhU0RiVINw_qmBYVu9J-42" vertex="1">
          <mxGeometry y="26" width="260" height="224" as="geometry" />
        </mxCell>
        <mxCell id="IkhU0RiVINw_qmBYVu9J-44" value="" style="line;strokeWidth=1;fillColor=none;align=left;verticalAlign=middle;spacingTop=-1;spacingLeft=3;spacingRight=3;rotatable=0;labelPosition=right;points=[];portConstraint=eastwest;strokeColor=inherit;" parent="IkhU0RiVINw_qmBYVu9J-42" vertex="1">
          <mxGeometry y="250" width="260" height="8" as="geometry" />
        </mxCell>
        <mxCell id="IkhU0RiVINw_qmBYVu9J-45" value="+&amp;nbsp;MmalVideoCamera()&lt;div&gt;+ ~MmalVideoCamera()&lt;/div&gt;&lt;div&gt;&lt;div&gt;+&amp;nbsp;acquireImage() Image*&lt;/div&gt;&lt;div&gt;+&amp;nbsp;initialize( CameraMode ) void&lt;/div&gt;&lt;div&gt;&lt;span style=&quot;background-color: transparent; color: light-dark(rgb(0, 0, 0), rgb(255, 255, 255));&quot;&gt;+&amp;nbsp;releaseImage( Image* ) void&lt;/span&gt;&lt;/div&gt;&lt;/div&gt;&lt;div&gt;&lt;div&gt;&lt;span style=&quot;background-color: transparent; color: light-dark(rgb(0, 0, 0), rgb(255, 255, 255));&quot;&gt;+&amp;nbsp;setFlipRedBlue( bool ) void&lt;/span&gt;&lt;/div&gt;&lt;/div&gt;&lt;div&gt;&lt;div&gt;+&amp;nbsp;getImageHeight() int&lt;/div&gt;&lt;div&gt;+&amp;nbsp;getImageWidth() int&lt;/div&gt;&lt;div&gt;+&amp;nbsp;getImageComponents() int&lt;/div&gt;&lt;/div&gt;&lt;div&gt;+-&amp;nbsp;setShutterSpeed( unsigned ) void&lt;/div&gt;&lt;div&gt;-&amp;nbsp;createCameraComponent() void&lt;/div&gt;&lt;div&gt;-&amp;nbsp;createBufferPool() void&lt;/div&gt;&lt;div&gt;-&amp;nbsp;sendBuffers() void&lt;/div&gt;" style="text;strokeColor=none;fillColor=none;align=left;verticalAlign=top;spacingLeft=4;spacingRight=4;overflow=hidden;rotatable=0;points=[[0,0.5],[1,0.5]];portConstraint=eastwest;whiteSpace=wrap;html=1;" parent="IkhU0RiVINw_qmBYVu9J-42" vertex="1">
          <mxGeometry y="258" width="260" height="212" as="geometry" />
        </mxCell>
        <mxCell id="IkhU0RiVINw_qmBYVu9J-48" style="edgeStyle=orthogonalEdgeStyle;rounded=0;orthogonalLoop=1;jettySize=auto;html=1;entryX=0.205;entryY=0.998;entryDx=0;entryDy=0;entryPerimeter=0;exitX=0.5;exitY=0;exitDx=0;exitDy=0;" parent="1" source="IkhU0RiVINw_qmBYVu9J-34" target="RxCuROtgY9JJL6FJJ5Lr-8" edge="1">
          <mxGeometry relative="1" as="geometry">
            <mxPoint x="1569" y="279" as="sourcePoint" />
            <Array as="points">
              <mxPoint x="1334" y="760" />
              <mxPoint x="1778" y="760" />
            </Array>
          </mxGeometry>
        </mxCell>
        <mxCell id="SYJl2yVjvV2g1gihSQlu-1" value="Image" style="swimlane;fontStyle=1;align=center;verticalAlign=top;childLayout=stackLayout;horizontal=1;startSize=26;horizontalStack=0;resizeParent=1;resizeParentMax=0;resizeLast=0;collapsible=1;marginBottom=0;whiteSpace=wrap;html=1;" parent="1" vertex="1">
          <mxGeometry x="480" y="160" width="550" height="340" as="geometry" />
        </mxCell>
        <mxCell id="SYJl2yVjvV2g1gihSQlu-2" value="-&amp;nbsp;m_pixels unsigned char*&lt;div&gt;-&amp;nbsp;m_numComponents unsigned&lt;/div&gt;&lt;div&gt;-&amp;nbsp;m_width unsigned&lt;/div&gt;&lt;div&gt;-&amp;nbsp;m_height unsigned&lt;/div&gt;&lt;div&gt;-&amp;nbsp;m_owner bool&lt;/div&gt;" style="text;strokeColor=none;fillColor=none;align=left;verticalAlign=top;spacingLeft=4;spacingRight=4;overflow=hidden;rotatable=0;points=[[0,0.5],[1,0.5]];portConstraint=eastwest;whiteSpace=wrap;html=1;" parent="SYJl2yVjvV2g1gihSQlu-1" vertex="1">
          <mxGeometry y="26" width="550" height="84" as="geometry" />
        </mxCell>
        <mxCell id="SYJl2yVjvV2g1gihSQlu-3" value="" style="line;strokeWidth=1;fillColor=none;align=left;verticalAlign=middle;spacingTop=-1;spacingLeft=3;spacingRight=3;rotatable=0;labelPosition=right;points=[];portConstraint=eastwest;strokeColor=inherit;" parent="SYJl2yVjvV2g1gihSQlu-1" vertex="1">
          <mxGeometry y="110" width="550" height="8" as="geometry" />
        </mxCell>
        <mxCell id="SYJl2yVjvV2g1gihSQlu-4" value="+ Image()&lt;div&gt;+ Image( const Image&amp;amp;)&lt;/div&gt;&lt;div&gt;+ Image ( unsigned, unsigned, unsigned )&lt;/div&gt;&lt;div&gt;+ ~Image()&lt;/div&gt;&lt;div&gt;+&amp;nbsp;getHeight() unsigned&lt;/div&gt;&lt;div&gt;+&amp;nbsp;getWidth() unsigned&lt;/div&gt;&lt;div&gt;+&amp;nbsp;getNumComponents() unsigned&lt;/div&gt;&lt;div&gt;+&amp;nbsp;getPixels() unsigned char*&lt;/div&gt;&lt;div&gt;+&amp;nbsp;assignPixels( unsigned char* ) void&lt;/div&gt;&lt;div&gt;+&amp;nbsp;isOwner() bool&lt;/div&gt;&lt;div&gt;+&amp;nbsp;getPixelBufferSize() unsigned&lt;/div&gt;&lt;div&gt;+(s) convertToJpeg( Image&amp;amp;, byte*, unsigned ) void&lt;/div&gt;&lt;div&gt;+(s) writeJpeg( Image&amp;amp;, string&amp;amp; ) void&lt;/div&gt;&lt;div&gt;+(s) overlayPixels( Image&amp;amp;, PixelLocation*, int, unsigned char, unsigned char, unsigned char ) void&lt;/div&gt;" style="text;strokeColor=none;fillColor=none;align=left;verticalAlign=top;spacingLeft=4;spacingRight=4;overflow=hidden;rotatable=0;points=[[0,0.5],[1,0.5]];portConstraint=eastwest;whiteSpace=wrap;html=1;" parent="SYJl2yVjvV2g1gihSQlu-1" vertex="1">
          <mxGeometry y="118" width="550" height="222" as="geometry" />
        </mxCell>
        <mxCell id="SYJl2yVjvV2g1gihSQlu-5" value="MmalImageStore" style="swimlane;fontStyle=1;align=center;verticalAlign=top;childLayout=stackLayout;horizontal=1;startSize=26;horizontalStack=0;resizeParent=1;resizeParentMax=0;resizeLast=0;collapsible=1;marginBottom=0;whiteSpace=wrap;html=1;" parent="1" vertex="1">
          <mxGeometry x="2621" y="399" width="360" height="170" as="geometry" />
        </mxCell>
        <mxCell id="SYJl2yVjvV2g1gihSQlu-6" value="- m_items [&amp;nbsp;&lt;span style=&quot;text-align: center;&quot;&gt;MmalImageStoreItem *]&lt;/span&gt;" style="text;strokeColor=none;fillColor=none;align=left;verticalAlign=top;spacingLeft=4;spacingRight=4;overflow=hidden;rotatable=0;points=[[0,0.5],[1,0.5]];portConstraint=eastwest;whiteSpace=wrap;html=1;" parent="SYJl2yVjvV2g1gihSQlu-5" vertex="1">
          <mxGeometry y="26" width="360" height="26" as="geometry" />
        </mxCell>
        <mxCell id="SYJl2yVjvV2g1gihSQlu-7" value="" style="line;strokeWidth=1;fillColor=none;align=left;verticalAlign=middle;spacingTop=-1;spacingLeft=3;spacingRight=3;rotatable=0;labelPosition=right;points=[];portConstraint=eastwest;strokeColor=inherit;" parent="SYJl2yVjvV2g1gihSQlu-5" vertex="1">
          <mxGeometry y="52" width="360" height="8" as="geometry" />
        </mxCell>
        <mxCell id="SYJl2yVjvV2g1gihSQlu-8" value="+&amp;nbsp;MmalImageStore( int, unsigned, unsigned, unsigned )&lt;div&gt;+ ~MmalImageStore()&lt;/div&gt;&lt;div&gt;+ reserve( )&amp;nbsp;MmalImageStore *&lt;/div&gt;&lt;div&gt;+ reserve( MMAL_BUFFER_HEADER_T * )&amp;nbsp;&lt;span style=&quot;background-color: transparent; color: light-dark(rgb(0, 0, 0), rgb(255, 255, 255));&quot;&gt;MmalImageStore*&lt;/span&gt;&lt;span style=&quot;background-color: transparent; color: light-dark(rgb(0, 0, 0), rgb(255, 255, 255));&quot;&gt;&amp;nbsp;&lt;/span&gt;&lt;/div&gt;&lt;div&gt;&lt;span style=&quot;background-color: transparent; color: light-dark(rgb(0, 0, 0), rgb(255, 255, 255));&quot;&gt;+ release( Image * ) void&lt;/span&gt;&lt;/div&gt;&lt;div&gt;&lt;span style=&quot;background-color: transparent; color: light-dark(rgb(0, 0, 0), rgb(255, 255, 255));&quot;&gt;- release(&amp;nbsp;&lt;/span&gt;&lt;span style=&quot;background-color: transparent;&quot;&gt;MmalImageStoreItem *&lt;/span&gt;&lt;span style=&quot;background-color: transparent; color: light-dark(rgb(0, 0, 0), rgb(255, 255, 255));&quot;&gt;&amp;nbsp;) void&amp;nbsp;&lt;/span&gt;&lt;/div&gt;" style="text;strokeColor=none;fillColor=none;align=left;verticalAlign=top;spacingLeft=4;spacingRight=4;overflow=hidden;rotatable=0;points=[[0,0.5],[1,0.5]];portConstraint=eastwest;whiteSpace=wrap;html=1;" parent="SYJl2yVjvV2g1gihSQlu-5" vertex="1">
          <mxGeometry y="60" width="360" height="110" as="geometry" />
        </mxCell>
        <mxCell id="ML7Zc_7LDOQcSuOdBLfL-1" value="Thread" style="swimlane;fontStyle=1;align=center;verticalAlign=top;childLayout=stackLayout;horizontal=1;startSize=26;horizontalStack=0;resizeParent=1;resizeParentMax=0;resizeLast=0;collapsible=1;marginBottom=0;whiteSpace=wrap;html=1;" parent="1" vertex="1">
          <mxGeometry x="3911" y="399" width="200" height="210" as="geometry" />
        </mxCell>
        <mxCell id="ML7Zc_7LDOQcSuOdBLfL-2" value="+- m_stopRequested bool&lt;div&gt;- m_handle pthread_t&lt;/div&gt;" style="text;strokeColor=none;fillColor=none;align=left;verticalAlign=top;spacingLeft=4;spacingRight=4;overflow=hidden;rotatable=0;points=[[0,0.5],[1,0.5]];portConstraint=eastwest;whiteSpace=wrap;html=1;" parent="ML7Zc_7LDOQcSuOdBLfL-1" vertex="1">
          <mxGeometry y="26" width="200" height="44" as="geometry" />
        </mxCell>
        <mxCell id="ML7Zc_7LDOQcSuOdBLfL-3" value="" style="line;strokeWidth=1;fillColor=none;align=left;verticalAlign=middle;spacingTop=-1;spacingLeft=3;spacingRight=3;rotatable=0;labelPosition=right;points=[];portConstraint=eastwest;strokeColor=inherit;" parent="ML7Zc_7LDOQcSuOdBLfL-1" vertex="1">
          <mxGeometry y="70" width="200" height="8" as="geometry" />
        </mxCell>
        <mxCell id="ML7Zc_7LDOQcSuOdBLfL-4" value="+ Thread()&lt;div&gt;+(v) ~Thread()&lt;/div&gt;&lt;div&gt;+(v) run() = 0 void&lt;/div&gt;&lt;div&gt;+ execute() void&lt;/div&gt;&lt;div&gt;+ join() void&lt;/div&gt;&lt;div&gt;+ stop() void&lt;/div&gt;&lt;div&gt;+(s) usleep( unsigned long ) void&lt;/div&gt;&lt;div&gt;+(s) sleep( unsigned long ) void&lt;/div&gt;" style="text;strokeColor=none;fillColor=none;align=left;verticalAlign=top;spacingLeft=4;spacingRight=4;overflow=hidden;rotatable=0;points=[[0,0.5],[1,0.5]];portConstraint=eastwest;whiteSpace=wrap;html=1;" parent="ML7Zc_7LDOQcSuOdBLfL-1" vertex="1">
          <mxGeometry y="78" width="200" height="132" as="geometry" />
        </mxCell>
        <mxCell id="ML7Zc_7LDOQcSuOdBLfL-5" value="Logger" style="swimlane;fontStyle=1;align=center;verticalAlign=top;childLayout=stackLayout;horizontal=1;startSize=26;horizontalStack=0;resizeParent=1;resizeParentMax=0;resizeLast=0;collapsible=1;marginBottom=0;whiteSpace=wrap;html=1;" parent="1" vertex="1">
          <mxGeometry x="3153" y="399" width="230" height="288" as="geometry" />
        </mxCell>
        <mxCell id="ML7Zc_7LDOQcSuOdBLfL-6" value="- *m_fp FILE&lt;div&gt;+(s) ENDL char*&amp;nbsp;&lt;/div&gt;" style="text;strokeColor=none;fillColor=none;align=left;verticalAlign=top;spacingLeft=4;spacingRight=4;overflow=hidden;rotatable=0;points=[[0,0.5],[1,0.5]];portConstraint=eastwest;whiteSpace=wrap;html=1;" parent="ML7Zc_7LDOQcSuOdBLfL-5" vertex="1">
          <mxGeometry y="26" width="230" height="44" as="geometry" />
        </mxCell>
        <mxCell id="ML7Zc_7LDOQcSuOdBLfL-7" value="" style="line;strokeWidth=1;fillColor=none;align=left;verticalAlign=middle;spacingTop=-1;spacingLeft=3;spacingRight=3;rotatable=0;labelPosition=right;points=[];portConstraint=eastwest;strokeColor=inherit;" parent="ML7Zc_7LDOQcSuOdBLfL-5" vertex="1">
          <mxGeometry y="70" width="230" height="8" as="geometry" />
        </mxCell>
        <mxCell id="ML7Zc_7LDOQcSuOdBLfL-8" value="+ Logger(FILE *)&lt;div&gt;+ operator&amp;lt;&amp;lt;( const string&amp;amp; ) Logger&amp;amp;&lt;/div&gt;&lt;div&gt;+ operator&amp;lt;&amp;lt;( const char* ) Logger&amp;amp;&lt;/div&gt;&lt;div&gt;&lt;span style=&quot;background-color: transparent; color: light-dark(rgb(0, 0, 0), rgb(255, 255, 255));&quot;&gt;+ operator&amp;lt;&amp;lt;( unsigned long ) Logger&amp;amp;&lt;/span&gt;&lt;/div&gt;&lt;div&gt;&lt;span style=&quot;background-color: transparent; color: light-dark(rgb(0, 0, 0), rgb(255, 255, 255));&quot;&gt;+ operator&amp;lt;&amp;lt;( long ) Logger&amp;amp;&lt;/span&gt;&lt;/div&gt;&lt;div&gt;&lt;span style=&quot;background-color: transparent; color: light-dark(rgb(0, 0, 0), rgb(255, 255, 255));&quot;&gt;+ operator&amp;lt;&amp;lt;( unsgined int ) Logger&amp;amp;&lt;/span&gt;&lt;/div&gt;&lt;div&gt;&lt;span style=&quot;background-color: transparent; color: light-dark(rgb(0, 0, 0), rgb(255, 255, 255));&quot;&gt;+ operator&amp;lt;&amp;lt;( int ) Logger&amp;amp;&lt;/span&gt;&lt;/div&gt;&lt;div&gt;&lt;span style=&quot;background-color: transparent; color: light-dark(rgb(0, 0, 0), rgb(255, 255, 255));&quot;&gt;+ operator&amp;lt;&amp;lt;( unsigned short ) Logger&amp;amp;&lt;/span&gt;&lt;/div&gt;&lt;div&gt;&lt;span style=&quot;background-color: transparent; color: light-dark(rgb(0, 0, 0), rgb(255, 255, 255));&quot;&gt;+ operator&amp;lt;&amp;lt;( short ) Logger&amp;amp;&lt;/span&gt;&lt;/div&gt;&lt;div&gt;&lt;span style=&quot;background-color: transparent; color: light-dark(rgb(0, 0, 0), rgb(255, 255, 255));&quot;&gt;+ operator&amp;lt;&amp;lt;( unsigned char ) Logger&amp;amp;&lt;/span&gt;&lt;/div&gt;&lt;div&gt;&lt;span style=&quot;background-color: transparent; color: light-dark(rgb(0, 0, 0), rgb(255, 255, 255));&quot;&gt;+ operator&amp;lt;&amp;lt;( char ) Logger&amp;amp;&lt;/span&gt;&lt;/div&gt;&lt;div&gt;&lt;span style=&quot;background-color: transparent; color: light-dark(rgb(0, 0, 0), rgb(255, 255, 255));&quot;&gt;+ operator&amp;lt;&amp;lt;( fload ) Logger&amp;amp;&lt;/span&gt;&lt;/div&gt;&lt;div&gt;&lt;span style=&quot;background-color: transparent; color: light-dark(rgb(0, 0, 0), rgb(255, 255, 255));&quot;&gt;+ operator&amp;lt;&amp;lt;( double ) Logger&amp;amp;&lt;/span&gt;&lt;/div&gt;" style="text;strokeColor=none;fillColor=none;align=left;verticalAlign=top;spacingLeft=4;spacingRight=4;overflow=hidden;rotatable=0;points=[[0,0.5],[1,0.5]];portConstraint=eastwest;whiteSpace=wrap;html=1;" parent="ML7Zc_7LDOQcSuOdBLfL-5" vertex="1">
          <mxGeometry y="78" width="230" height="210" as="geometry" />
        </mxCell>
        <mxCell id="ML7Zc_7LDOQcSuOdBLfL-9" value="MmalImageStoreItem" style="swimlane;fontStyle=1;align=center;verticalAlign=top;childLayout=stackLayout;horizontal=1;startSize=26;horizontalStack=0;resizeParent=1;resizeParentMax=0;resizeLast=0;collapsible=1;marginBottom=0;whiteSpace=wrap;html=1;" parent="1" vertex="1">
          <mxGeometry x="2624" y="201" width="360" height="124" as="geometry" />
        </mxCell>
        <mxCell id="ML7Zc_7LDOQcSuOdBLfL-10" value="+ image Image&lt;div&gt;+ available bool&lt;/div&gt;&lt;div&gt;+ *buffer&amp;nbsp;MMAL_BUFFER_HEADER_T&lt;/div&gt;" style="text;strokeColor=none;fillColor=none;align=left;verticalAlign=top;spacingLeft=4;spacingRight=4;overflow=hidden;rotatable=0;points=[[0,0.5],[1,0.5]];portConstraint=eastwest;whiteSpace=wrap;html=1;" parent="ML7Zc_7LDOQcSuOdBLfL-9" vertex="1">
          <mxGeometry y="26" width="360" height="64" as="geometry" />
        </mxCell>
        <mxCell id="ML7Zc_7LDOQcSuOdBLfL-11" value="" style="line;strokeWidth=1;fillColor=none;align=left;verticalAlign=middle;spacingTop=-1;spacingLeft=3;spacingRight=3;rotatable=0;labelPosition=right;points=[];portConstraint=eastwest;strokeColor=inherit;" parent="ML7Zc_7LDOQcSuOdBLfL-9" vertex="1">
          <mxGeometry y="90" width="360" height="8" as="geometry" />
        </mxCell>
        <mxCell id="ML7Zc_7LDOQcSuOdBLfL-12" value="&lt;div style=&quot;text-align: center;&quot;&gt;+ MmalImageStoreItem( unsigned, unsigned unsigned )&lt;/div&gt;" style="text;strokeColor=none;fillColor=none;align=left;verticalAlign=top;spacingLeft=4;spacingRight=4;overflow=hidden;rotatable=0;points=[[0,0.5],[1,0.5]];portConstraint=eastwest;whiteSpace=wrap;html=1;" parent="ML7Zc_7LDOQcSuOdBLfL-9" vertex="1">
          <mxGeometry y="98" width="360" height="26" as="geometry" />
        </mxCell>
        <mxCell id="HAzIw1MznUn47DCdTM_P-11" value="ImageProcessor" style="swimlane;fontStyle=1;align=center;verticalAlign=top;childLayout=stackLayout;horizontal=1;startSize=26;horizontalStack=0;resizeParent=1;resizeParentMax=0;resizeLast=0;collapsible=1;marginBottom=0;whiteSpace=wrap;html=1;" parent="1" vertex="1">
          <mxGeometry x="1680" y="2640" width="520" height="490" as="geometry" />
        </mxCell>
        <mxCell id="HAzIw1MznUn47DCdTM_P-6" value="&lt;p style=&quot;margin:0px;margin-top:6px;text-align:center;&quot;&gt;+ TresholdMode&lt;/p&gt;&lt;hr size=&quot;1&quot; style=&quot;border-style:solid;&quot;&gt;&lt;p style=&quot;margin:0px;margin-left:8px;&quot;&gt;+ THM_STATIC&lt;br&gt;+&amp;nbsp;THM_LOW&lt;/p&gt;&lt;p style=&quot;margin:0px;margin-left:8px;&quot;&gt;+&amp;nbsp;THM_MEDIUM&lt;/p&gt;&lt;p style=&quot;margin:0px;margin-left:8px;&quot;&gt;+&amp;nbsp;THM_HIGH&lt;/p&gt;" style="align=left;overflow=fill;html=1;dropTarget=0;whiteSpace=wrap;fillColor=#D5E8D4;strokeColor=default;fillStyle=dots;" parent="HAzIw1MznUn47DCdTM_P-11" vertex="1">
          <mxGeometry y="26" width="520" height="90" as="geometry" />
        </mxCell>
        <mxCell id="HAzIw1MznUn47DCdTM_P-7" value="" style="shape=component;jettyWidth=8;jettyHeight=4;" parent="HAzIw1MznUn47DCdTM_P-6" vertex="1">
          <mxGeometry x="1" width="20" height="20" relative="1" as="geometry">
            <mxPoint x="-24" y="4" as="offset" />
          </mxGeometry>
        </mxCell>
        <mxCell id="HAzIw1MznUn47DCdTM_P-15" value="- LaserRange" style="swimlane;fontStyle=0;childLayout=stackLayout;horizontal=1;startSize=26;fillColor=#FFF4C3;horizontalStack=0;resizeParent=1;resizeParentMax=0;resizeLast=0;collapsible=1;marginBottom=0;whiteSpace=wrap;html=1;labelBackgroundColor=default;fillStyle=zigzag-line;strokeColor=default;" parent="HAzIw1MznUn47DCdTM_P-11" vertex="1">
          <mxGeometry y="116" width="520" height="100" as="geometry">
            <mxRectangle y="116" width="520" height="30" as="alternateBounds" />
          </mxGeometry>
        </mxCell>
        <mxCell id="HAzIw1MznUn47DCdTM_P-16" value="+ startCol int&lt;div&gt;+ endCol int&lt;/div&gt;&lt;div&gt;+ centerCol int&lt;/div&gt;&lt;div&gt;+ energy real&lt;/div&gt;" style="text;strokeColor=default;fillColor=#FFF4C3;align=left;verticalAlign=top;spacingLeft=4;spacingRight=4;overflow=hidden;rotatable=0;points=[[0,0.5],[1,0.5]];portConstraint=eastwest;whiteSpace=wrap;html=1;fillStyle=zigzag-line;" parent="HAzIw1MznUn47DCdTM_P-15" vertex="1">
          <mxGeometry y="26" width="520" height="74" as="geometry" />
        </mxCell>
        <mxCell id="HAzIw1MznUn47DCdTM_P-12" value="-(s) RANGE_DISTANCE_THRESHOLD const unsigned&lt;div&gt;- *m_laser_ranges LaserRange&lt;/div&gt;&lt;div&gt;- m_thresholdMode ThresholdMode&lt;/div&gt;&lt;div&gt;-&amp;nbsp;m_laserMagnitudeThreshold real&lt;/div&gt;&lt;div&gt;-&amp;nbsp;m_laserThresholdFactor real&lt;/div&gt;&lt;div&gt;-&amp;nbsp;m_maxLaserWidth int&lt;/div&gt;&lt;div&gt;-&amp;nbsp;m_minLaserWidth int&lt;/div&gt;&lt;div&gt;- m_magnitudes real []&lt;/div&gt;" style="text;strokeColor=none;fillColor=none;align=left;verticalAlign=top;spacingLeft=4;spacingRight=4;overflow=hidden;rotatable=0;points=[[0,0.5],[1,0.5]];portConstraint=eastwest;whiteSpace=wrap;html=1;" parent="HAzIw1MznUn47DCdTM_P-11" vertex="1">
          <mxGeometry y="216" width="520" height="134" as="geometry" />
        </mxCell>
        <mxCell id="HAzIw1MznUn47DCdTM_P-13" value="" style="line;strokeWidth=1;fillColor=none;align=left;verticalAlign=middle;spacingTop=-1;spacingLeft=3;spacingRight=3;rotatable=0;labelPosition=right;points=[];portConstraint=eastwest;strokeColor=inherit;" parent="HAzIw1MznUn47DCdTM_P-11" vertex="1">
          <mxGeometry y="350" width="520" height="8" as="geometry" />
        </mxCell>
        <mxCell id="HAzIw1MznUn47DCdTM_P-14" value="+&amp;nbsp;ImageProcessor()&lt;div&gt;+ ~ImageProcessor()&lt;/div&gt;&lt;div&gt;+&amp;nbsp;process( Image&amp;amp;, Image&amp;amp;, Image *, PixelLocation *, int, int&amp;amp;, int&amp;amp;, int&amp;amp;, const char*&amp;nbsp;&lt;span style=&quot;background-color: transparent; color: light-dark(rgb(0, 0, 0), rgb(255, 255, 255));&quot;&gt;) int&lt;/span&gt;&lt;/div&gt;&lt;div&gt;&lt;span style=&quot;background-color: transparent; color: light-dark(rgb(0, 0, 0), rgb(255, 255, 255));&quot;&gt;+(s) toHsv( real, real, real, Hsv * ) void&lt;/span&gt;&lt;/div&gt;&lt;div&gt;&lt;span style=&quot;background-color: transparent; color: light-dark(rgb(0, 0, 0), rgb(255, 255, 255));&quot;&gt;-&amp;nbsp;&lt;/span&gt;&lt;span style=&quot;background-color: transparent;&quot;&gt;removeInvalidLaserRanges ( LaserRange *, int, int, unsigned char * ) int&lt;/span&gt;&lt;/div&gt;&lt;div&gt;&lt;span style=&quot;background-color: transparent;&quot;&gt;-&amp;nbsp;&lt;/span&gt;&lt;span style=&quot;background-color: transparent;&quot;&gt;detectBestLaserRange ( LaserRange *, int, int ) int&lt;/span&gt;&lt;/div&gt;&lt;div&gt;&lt;span style=&quot;background-color: transparent;&quot;&gt;-&amp;nbsp;&lt;/span&gt;&lt;span style=&quot;background-color: transparent;&quot;&gt;detectLaserRangeCenter ( const LaserRange&amp;amp;, unsigned char *, unsigned char * ) real&lt;/span&gt;&lt;/div&gt;&lt;div&gt;&lt;span style=&quot;background-color: transparent;&quot;&gt;-&amp;nbsp;&lt;/span&gt;&lt;span style=&quot;background-color: transparent;&quot;&gt;computeMeanAverage ( unsigned char *, int, int ) real&lt;/span&gt;&lt;/div&gt;" style="text;strokeColor=none;fillColor=none;align=left;verticalAlign=top;spacingLeft=4;spacingRight=4;overflow=hidden;rotatable=0;points=[[0,0.5],[1,0.5]];portConstraint=eastwest;whiteSpace=wrap;html=1;" parent="HAzIw1MznUn47DCdTM_P-11" vertex="1">
          <mxGeometry y="358" width="520" height="132" as="geometry" />
        </mxCell>
        <mxCell id="7rvljQhCplWetMC_5oCt-17" value="LocationMapper" style="swimlane;fontStyle=1;align=center;verticalAlign=top;childLayout=stackLayout;horizontal=1;startSize=26;horizontalStack=0;resizeParent=1;resizeParentMax=0;resizeLast=0;collapsible=1;marginBottom=0;whiteSpace=wrap;html=1;" parent="1" vertex="1">
          <mxGeometry x="4193" y="2640" width="490" height="380" as="geometry" />
        </mxCell>
        <mxCell id="7rvljQhCplWetMC_5oCt-18" value="-&amp;nbsp;m_laserPlane Plane&lt;div&gt;-&amp;nbsp;m_laserX real&lt;/div&gt;&lt;div&gt;-&amp;nbsp;m_laserY real&lt;/div&gt;&lt;div&gt;-&amp;nbsp;m_laserZ real&lt;/div&gt;&lt;div&gt;-&amp;nbsp;m_cameraX real&lt;/div&gt;&lt;div&gt;-&amp;nbsp;m_cameraY real&lt;/div&gt;&lt;div&gt;-&amp;nbsp;m_cameraZ real&lt;/div&gt;&lt;div&gt;-&amp;nbsp;m_imageWidth unsigned&lt;/div&gt;&lt;div&gt;- m_imageHeight unsigned&lt;/div&gt;&lt;div&gt;-&amp;nbsp;m_focalLength real&lt;/div&gt;&lt;div&gt;-&amp;nbsp;m_sensorWidth real&lt;/div&gt;&lt;div&gt;-&amp;nbsp;m_sensorHeight real&lt;/div&gt;&lt;div&gt;-&amp;nbsp;m_maxObjectSize real&lt;/div&gt;&lt;div&gt;-&amp;nbsp;m_groundPlaneHeight real&lt;/div&gt;" style="text;strokeColor=none;fillColor=none;align=left;verticalAlign=top;spacingLeft=4;spacingRight=4;overflow=hidden;rotatable=0;points=[[0,0.5],[1,0.5]];portConstraint=eastwest;whiteSpace=wrap;html=1;" parent="7rvljQhCplWetMC_5oCt-17" vertex="1">
          <mxGeometry y="26" width="490" height="224" as="geometry" />
        </mxCell>
        <mxCell id="7rvljQhCplWetMC_5oCt-19" value="" style="line;strokeWidth=1;fillColor=none;align=left;verticalAlign=middle;spacingTop=-1;spacingLeft=3;spacingRight=3;rotatable=0;labelPosition=right;points=[];portConstraint=eastwest;strokeColor=inherit;" parent="7rvljQhCplWetMC_5oCt-17" vertex="1">
          <mxGeometry y="250" width="490" height="8" as="geometry" />
        </mxCell>
        <mxCell id="7rvljQhCplWetMC_5oCt-20" value="+&amp;nbsp;LocationMapper( const Vector3&amp;amp;, const Vector3&amp;amp; )&lt;div&gt;+&amp;nbsp;mapPoints( PixelLocation *, Image *, ColoredPoint *, int, int&amp;amp; ) void&lt;/div&gt;&lt;div&gt;+&amp;nbsp;setLaserPlaneNormal( const Vector3&amp;amp; ) void&lt;/div&gt;&lt;div&gt;+&amp;nbsp;calculateCameraRay( const PixelLocation&amp;amp;, Ray * ) void&lt;/div&gt;&lt;div&gt;+&amp;nbsp;intersectPlane( const Plane&amp;amp;, const Ray&amp;amp;, ColoredPoint *, const PixelLocation&amp;amp; ) bool&lt;/div&gt;&lt;div&gt;+ intersectLaserPlane( const Ray&amp;amp;, ColoredPoint *, const PixelLocation&amp;amp; ) bool&lt;/div&gt;&lt;div&gt;+&amp;nbsp;calculateLaserPlane() void&lt;/div&gt;" style="text;strokeColor=none;fillColor=none;align=left;verticalAlign=top;spacingLeft=4;spacingRight=4;overflow=hidden;rotatable=0;points=[[0,0.5],[1,0.5]];portConstraint=eastwest;whiteSpace=wrap;html=1;" parent="7rvljQhCplWetMC_5oCt-17" vertex="1">
          <mxGeometry y="258" width="490" height="122" as="geometry" />
        </mxCell>
        <mxCell id="qIbzDaBEc3Ywh4Z9UByH-2" value="" style="endArrow=classic;html=1;rounded=0;exitX=0.5;exitY=0;exitDx=0;exitDy=0;entryX=0.447;entryY=1.023;entryDx=0;entryDy=0;entryPerimeter=0;" parent="1" source="kQ6tzHzIxeLgxoE7xuQt-13" target="RxCuROtgY9JJL6FJJ5Lr-12" edge="1">
          <mxGeometry width="50" height="50" relative="1" as="geometry">
            <mxPoint x="3733" y="2570" as="sourcePoint" />
            <mxPoint x="3783" y="2520" as="targetPoint" />
          </mxGeometry>
        </mxCell>
        <mxCell id="SJlRQKeIQYPIyshb4TZr-1" value="IWriter" style="swimlane;fontStyle=1;align=center;verticalAlign=top;childLayout=stackLayout;horizontal=1;startSize=26;horizontalStack=0;resizeParent=1;resizeParentMax=0;resizeLast=0;collapsible=1;marginBottom=0;whiteSpace=wrap;html=1;" parent="1" vertex="1">
          <mxGeometry x="2953" y="2160" width="280" height="110" as="geometry" />
        </mxCell>
        <mxCell id="SJlRQKeIQYPIyshb4TZr-2" value="+&amp;nbsp;" style="text;strokeColor=none;fillColor=none;align=left;verticalAlign=top;spacingLeft=4;spacingRight=4;overflow=hidden;rotatable=0;points=[[0,0.5],[1,0.5]];portConstraint=eastwest;whiteSpace=wrap;html=1;" parent="SJlRQKeIQYPIyshb4TZr-1" vertex="1">
          <mxGeometry y="26" width="280" height="26" as="geometry" />
        </mxCell>
        <mxCell id="SJlRQKeIQYPIyshb4TZr-3" value="" style="line;strokeWidth=1;fillColor=none;align=left;verticalAlign=middle;spacingTop=-1;spacingLeft=3;spacingRight=3;rotatable=0;labelPosition=right;points=[];portConstraint=eastwest;strokeColor=inherit;" parent="SJlRQKeIQYPIyshb4TZr-1" vertex="1">
          <mxGeometry y="52" width="280" height="8" as="geometry" />
        </mxCell>
        <mxCell id="SJlRQKeIQYPIyshb4TZr-4" value="+(v) ~IWriter()&lt;div&gt;+(v) write( const char *, size_t ) void = 0&lt;/div&gt;" style="text;strokeColor=none;fillColor=none;align=left;verticalAlign=top;spacingLeft=4;spacingRight=4;overflow=hidden;rotatable=0;points=[[0,0.5],[1,0.5]];portConstraint=eastwest;whiteSpace=wrap;html=1;" parent="SJlRQKeIQYPIyshb4TZr-1" vertex="1">
          <mxGeometry y="60" width="280" height="50" as="geometry" />
        </mxCell>
        <mxCell id="SJlRQKeIQYPIyshb4TZr-5" value="FileWriter" style="swimlane;fontStyle=1;align=center;verticalAlign=top;childLayout=stackLayout;horizontal=1;startSize=26;horizontalStack=0;resizeParent=1;resizeParentMax=0;resizeLast=0;collapsible=1;marginBottom=0;whiteSpace=wrap;html=1;" parent="1" vertex="1">
          <mxGeometry x="2840" y="2360" width="200" height="130" as="geometry" />
        </mxCell>
        <mxCell id="SJlRQKeIQYPIyshb4TZr-6" value="- m_fout ofstream" style="text;strokeColor=none;fillColor=none;align=left;verticalAlign=top;spacingLeft=4;spacingRight=4;overflow=hidden;rotatable=0;points=[[0,0.5],[1,0.5]];portConstraint=eastwest;whiteSpace=wrap;html=1;" parent="SJlRQKeIQYPIyshb4TZr-5" vertex="1">
          <mxGeometry y="26" width="200" height="26" as="geometry" />
        </mxCell>
        <mxCell id="SJlRQKeIQYPIyshb4TZr-7" value="" style="line;strokeWidth=1;fillColor=none;align=left;verticalAlign=middle;spacingTop=-1;spacingLeft=3;spacingRight=3;rotatable=0;labelPosition=right;points=[];portConstraint=eastwest;strokeColor=inherit;" parent="SJlRQKeIQYPIyshb4TZr-5" vertex="1">
          <mxGeometry y="52" width="200" height="8" as="geometry" />
        </mxCell>
        <mxCell id="SJlRQKeIQYPIyshb4TZr-8" value="+ FileWriter( const char * )&lt;div&gt;+ write( const char *, size_t ) void&lt;/div&gt;&lt;div&gt;+ close() void&lt;/div&gt;&lt;div&gt;+ isOpen() bool&amp;nbsp;&lt;/div&gt;" style="text;strokeColor=none;fillColor=none;align=left;verticalAlign=top;spacingLeft=4;spacingRight=4;overflow=hidden;rotatable=0;points=[[0,0.5],[1,0.5]];portConstraint=eastwest;whiteSpace=wrap;html=1;" parent="SJlRQKeIQYPIyshb4TZr-5" vertex="1">
          <mxGeometry y="60" width="200" height="70" as="geometry" />
        </mxCell>
        <mxCell id="SJlRQKeIQYPIyshb4TZr-10" value="" style="endArrow=classic;html=1;rounded=0;exitX=0.5;exitY=0;exitDx=0;exitDy=0;entryX=0.308;entryY=1.052;entryDx=0;entryDy=0;entryPerimeter=0;" parent="1" source="SJlRQKeIQYPIyshb4TZr-5" target="SJlRQKeIQYPIyshb4TZr-4" edge="1">
          <mxGeometry width="50" height="50" relative="1" as="geometry">
            <mxPoint x="2933" y="2370" as="sourcePoint" />
            <mxPoint x="3076" y="2270" as="targetPoint" />
          </mxGeometry>
        </mxCell>
        <mxCell id="SJlRQKeIQYPIyshb4TZr-11" value="Scanner" style="swimlane;fontStyle=1;align=center;verticalAlign=top;childLayout=stackLayout;horizontal=1;startSize=26;horizontalStack=0;resizeParent=1;resizeParentMax=0;resizeLast=0;collapsible=1;marginBottom=0;whiteSpace=wrap;html=1;fillColor=default;fillStyle=cross-hatch;gradientColor=none;strokeColor=default;" parent="1" vertex="1">
          <mxGeometry x="3713" y="3159" width="630" height="1390" as="geometry">
            <mxRectangle x="3713" y="3159" width="90" height="30" as="alternateBounds" />
          </mxGeometry>
        </mxCell>
        <mxCell id="SJlRQKeIQYPIyshb4TZr-26" value="&lt;p style=&quot;margin:0px;margin-top:6px;text-align:center;&quot;&gt;+ Task&lt;/p&gt;&lt;hr size=&quot;1&quot; style=&quot;border-style:solid;&quot;&gt;&lt;p style=&quot;margin:0px;margin-left:8px;&quot;&gt;+&amp;nbsp;GENERATE_SCAN&lt;br&gt;+&amp;nbsp;GENERATE_DEBUG&lt;/p&gt;&lt;p style=&quot;margin:0px;margin-left:8px;&quot;&gt;+&amp;nbsp;GENERATE_PHOTOS&lt;/p&gt;" style="align=left;overflow=fill;html=1;dropTarget=0;whiteSpace=wrap;fillStyle=dots;" parent="SJlRQKeIQYPIyshb4TZr-11" vertex="1">
          <mxGeometry y="26" width="630" height="90" as="geometry" />
        </mxCell>
        <mxCell id="SJlRQKeIQYPIyshb4TZr-27" value="" style="shape=component;jettyWidth=8;jettyHeight=4;" parent="SJlRQKeIQYPIyshb4TZr-26" vertex="1">
          <mxGeometry x="1" width="20" height="20" relative="1" as="geometry">
            <mxPoint x="-24" y="4" as="offset" />
          </mxGeometry>
        </mxCell>
        <mxCell id="SJlRQKeIQYPIyshb4TZr-33" value="+ LiveData" style="swimlane;fontStyle=0;childLayout=stackLayout;horizontal=1;startSize=26;fillColor=default;horizontalStack=0;resizeParent=1;resizeParentMax=0;resizeLast=0;collapsible=1;marginBottom=0;whiteSpace=wrap;html=1;fillStyle=zigzag-line;gradientColor=none;" parent="SJlRQKeIQYPIyshb4TZr-11" vertex="1">
          <mxGeometry y="116" width="630" height="70" as="geometry">
            <mxRectangle y="116" width="630" height="30" as="alternateBounds" />
          </mxGeometry>
        </mxCell>
        <mxCell id="SJlRQKeIQYPIyshb4TZr-34" value="+ *leftLaserResults DataPoint []&lt;div&gt;+ *rightLaserResults DataPoint []&lt;/div&gt;" style="text;strokeColor=none;fillColor=#FFE599;align=left;verticalAlign=top;spacingLeft=4;spacingRight=4;overflow=hidden;rotatable=0;points=[[0,0.5],[1,0.5]];portConstraint=eastwest;whiteSpace=wrap;html=1;fillStyle=zigzag-line;" parent="SJlRQKeIQYPIyshb4TZr-33" vertex="1">
          <mxGeometry y="26" width="630" height="44" as="geometry" />
        </mxCell>
        <mxCell id="SJlRQKeIQYPIyshb4TZr-20" value="- TimingStats" style="swimlane;fontStyle=0;childLayout=stackLayout;horizontal=1;startSize=26;fillColor=#FFE599;horizontalStack=0;resizeParent=1;resizeParentMax=0;resizeLast=0;collapsible=1;marginBottom=0;whiteSpace=wrap;html=1;fillStyle=zigzag-line;gradientColor=none;strokeColor=default;swimlaneLine=1;glass=0;rounded=0;swimlaneFillColor=none;" parent="SJlRQKeIQYPIyshb4TZr-11" vertex="1">
          <mxGeometry y="186" width="630" height="250" as="geometry">
            <mxRectangle y="146" width="630" height="30" as="alternateBounds" />
          </mxGeometry>
        </mxCell>
        <mxCell id="SJlRQKeIQYPIyshb4TZr-21" value="+&amp;nbsp;imageAcquisitionTime double&lt;div&gt;+&amp;nbsp;imageProcessingTime double&lt;/div&gt;&lt;div&gt;+&amp;nbsp;pointMappingTime double&lt;/div&gt;&lt;div&gt;+&amp;nbsp;rotationTime double&lt;/div&gt;&lt;div&gt;+&amp;nbsp;startTime double&lt;/div&gt;&lt;div&gt;+&amp;nbsp;pointProcessingTime double&lt;/div&gt;&lt;div&gt;+&amp;nbsp;plyWritingTime double&lt;/div&gt;&lt;div&gt;+&amp;nbsp;stlWritingTime double&lt;/div&gt;&lt;div&gt;+&amp;nbsp;xyzWritingTime double&lt;/div&gt;&lt;div&gt;+ facetizationTime double&lt;/div&gt;&lt;div&gt;+ laserTime double&lt;/div&gt;&lt;div&gt;+&amp;nbsp;laserMergeTime double&lt;/div&gt;&lt;div&gt;+&amp;nbsp;numFrameRetries int&lt;/div&gt;&lt;div&gt;+&amp;nbsp;numFrames int&lt;/div&gt;&lt;div&gt;+&amp;nbsp;numEmptyFrames int&lt;/div&gt;" style="text;strokeColor=none;fillColor=#FFE599;align=left;verticalAlign=top;spacingLeft=4;spacingRight=4;overflow=hidden;rotatable=0;points=[[0,0.5],[1,0.5]];portConstraint=eastwest;whiteSpace=wrap;html=1;fillStyle=zigzag-line;gradientColor=none;" parent="SJlRQKeIQYPIyshb4TZr-20" vertex="1">
          <mxGeometry y="26" width="630" height="224" as="geometry" />
        </mxCell>
        <mxCell id="SJlRQKeIQYPIyshb4TZr-12" value="- *m_laser Laser&lt;div&gt;- *m_camera Camera&lt;/div&gt;&lt;div&gt;- *m_turnTable TurnTable&lt;/div&gt;&lt;div&gt;- *m_laserLocations PixelLocation&lt;/div&gt;&lt;div&gt;- *m_imageProcessor ImageProcessor&lt;/div&gt;&lt;div&gt;-&amp;nbsp;m_running bool&lt;/div&gt;&lt;div&gt;-&amp;nbsp;&lt;span style=&quot;background-color: transparent;&quot;&gt;m_range real&lt;/span&gt;&lt;/div&gt;&lt;div&gt;&lt;span style=&quot;background-color: transparent;&quot;&gt;-&amp;nbsp;&lt;/span&gt;&lt;span style=&quot;background-color: transparent;&quot;&gt;m_filename string&lt;/span&gt;&lt;/div&gt;&lt;div&gt;&lt;span style=&quot;background-color: transparent;&quot;&gt;-&amp;nbsp;&lt;/span&gt;&lt;span style=&quot;background-color: transparent;&quot;&gt;m_progress Progress&lt;/span&gt;&lt;/div&gt;&lt;div&gt;&lt;span style=&quot;background-color: transparent;&quot;&gt;-&amp;nbsp;&lt;/span&gt;&lt;span style=&quot;background-color: transparent;&quot;&gt;m_status CriticalSection&lt;/span&gt;&lt;/div&gt;&lt;div&gt;&lt;span style=&quot;background-color: transparent;&quot;&gt;-&amp;nbsp;&lt;/span&gt;&lt;span style=&quot;background-color: transparent;&quot;&gt;m_maxNumFrameRetries const int&lt;/span&gt;&lt;/div&gt;&lt;div&gt;&lt;span style=&quot;background-color: transparent;&quot;&gt;-&amp;nbsp;&lt;/span&gt;&lt;span style=&quot;background-color: transparent;&quot;&gt;m_maxNumFailedRows const real&lt;/span&gt;&lt;/div&gt;&lt;div&gt;&lt;span style=&quot;background-color: transparent;&quot;&gt;-&amp;nbsp;&lt;/span&gt;&lt;span style=&quot;background-color: transparent;&quot;&gt;m_numObjectBaseSubdivisions int&lt;/span&gt;&lt;/div&gt;&lt;div&gt;&lt;span style=&quot;background-color: transparent;&quot;&gt;- *&lt;/span&gt;&lt;span style=&quot;background-color: transparent;&quot;&gt;m_columnPoints&amp;nbsp;&lt;/span&gt;&lt;span style=&quot;background-color: transparent;&quot;&gt;ColoredPoint&lt;/span&gt;&lt;/div&gt;&lt;div&gt;&lt;span style=&quot;background-color: transparent;&quot;&gt;-&amp;nbsp;&lt;/span&gt;&lt;span style=&quot;background-color: transparent;&quot;&gt;m_remainingTime real&lt;/span&gt;&lt;/div&gt;&lt;div&gt;&lt;span style=&quot;background-color: transparent;&quot;&gt;-&amp;nbsp;&lt;/span&gt;&lt;span style=&quot;background-color: transparent;&quot;&gt;m_firstRowRightLaserCol int&lt;/span&gt;&lt;/div&gt;&lt;div&gt;&lt;span style=&quot;background-color: transparent;&quot;&gt;-&amp;nbsp;&lt;/span&gt;&lt;span style=&quot;background-color: transparent;&quot;&gt;m_firstRowLeftLaserCol int&lt;/span&gt;&lt;/div&gt;&lt;div&gt;&lt;span style=&quot;background-color: transparent;&quot;&gt;-&amp;nbsp;&lt;/span&gt;&lt;span style=&quot;background-color: transparent;&quot;&gt;m_maxNumLocations unsigned&lt;/span&gt;&lt;/div&gt;&lt;div&gt;&lt;span style=&quot;background-color: transparent;&quot;&gt;-&amp;nbsp;&lt;/span&gt;&lt;span style=&quot;background-color: transparent;&quot;&gt;m_maxFramesPerRevolution int&lt;/span&gt;&lt;/div&gt;&lt;div&gt;&lt;span style=&quot;background-color: transparent; color: light-dark(rgb(0, 0, 0), rgb(255, 255, 255));&quot;&gt;-&amp;nbsp;&lt;/span&gt;&lt;span style=&quot;background-color: transparent;&quot;&gt;m_radiansBetweenLaserPlanes real&lt;/span&gt;&lt;/div&gt;&lt;div&gt;&lt;span style=&quot;background-color: transparent;&quot;&gt;-&amp;nbsp;&lt;/span&gt;&lt;span style=&quot;background-color: transparent;&quot;&gt;m_radiansPerFrame real&lt;/span&gt;&lt;/div&gt;&lt;div&gt;&lt;span style=&quot;background-color: transparent;&quot;&gt;-&amp;nbsp;&lt;/span&gt;&lt;span style=&quot;background-color: transparent;&quot;&gt;m_rightLaserLoc Vector3&lt;/span&gt;&lt;/div&gt;&lt;div&gt;&lt;span style=&quot;background-color: transparent;&quot;&gt;-&amp;nbsp;&lt;/span&gt;&lt;span style=&quot;background-color: transparent;&quot;&gt;m_leftLaserLoc Vector3&lt;/span&gt;&lt;/div&gt;&lt;div&gt;&lt;span style=&quot;background-color: transparent;&quot;&gt;-&amp;nbsp;&lt;/span&gt;&lt;span style=&quot;background-color: transparent;&quot;&gt;m_cameraLoc Vector3&lt;/span&gt;&lt;/div&gt;&lt;div&gt;&lt;span style=&quot;background-color: transparent;&quot;&gt;-&amp;nbsp;&lt;/span&gt;&lt;span style=&quot;background-color: transparent;&quot;&gt;m_writeRangeCsvEnabled bool&lt;/span&gt;&lt;/div&gt;&lt;div&gt;-&amp;nbsp;m_rangeFout ofstream&lt;/div&gt;&lt;div&gt;-&amp;nbsp;m_numFramesBetweenLaserPlanes float&lt;/div&gt;&lt;div&gt;-&amp;nbsp;m_laserSelection LaserSide&lt;/div&gt;&lt;div&gt;&lt;span style=&quot;background-color: transparent; color: light-dark(rgb(0, 0, 0), rgb(255, 255, 255));&quot;&gt;-&amp;nbsp;&lt;/span&gt;&lt;span style=&quot;background-color: transparent;&quot;&gt;m_task Task&lt;/span&gt;&lt;/div&gt;&lt;div&gt;&lt;span style=&quot;background-color: transparent;&quot;&gt;-&amp;nbsp;&lt;/span&gt;&lt;span style=&quot;background-color: transparent;&quot;&gt;m_leftLaserResults DataPoint []&lt;/span&gt;&lt;/div&gt;&lt;div&gt;&lt;span style=&quot;background-color: transparent;&quot;&gt;-&amp;nbsp;&lt;/span&gt;&lt;span style=&quot;background-color: transparent;&quot;&gt;m_results CriticalSection&lt;/span&gt;&lt;/div&gt;&lt;div&gt;&lt;span style=&quot;background-color: transparent;&quot;&gt;-&amp;nbsp;&lt;/span&gt;&lt;span style=&quot;background-color: transparent;&quot;&gt;m_laserDelaySec double&lt;/span&gt;&lt;/div&gt;&lt;div&gt;&lt;span style=&quot;background-color: transparent;&quot;&gt;-&amp;nbsp;&lt;/span&gt;&lt;span style=&quot;background-color: transparent;&quot;&gt;m_photoPathPrefix string&lt;/span&gt;&lt;/div&gt;&lt;div&gt;&lt;span style=&quot;background-color: transparent;&quot;&gt;-&amp;nbsp;&lt;/span&gt;&lt;span style=&quot;background-color: transparent;&quot;&gt;m_saveLaserImages bool&lt;/span&gt;&lt;/div&gt;" style="text;strokeColor=none;fillColor=none;align=left;verticalAlign=top;spacingLeft=4;spacingRight=4;overflow=hidden;rotatable=0;points=[[0,0.5],[1,0.5]];portConstraint=eastwest;whiteSpace=wrap;html=1;fillStyle=zigzag-line;" parent="SJlRQKeIQYPIyshb4TZr-11" vertex="1">
          <mxGeometry y="436" width="630" height="504" as="geometry" />
        </mxCell>
        <mxCell id="SJlRQKeIQYPIyshb4TZr-13" value="" style="line;strokeWidth=1;fillColor=none;align=left;verticalAlign=middle;spacingTop=-1;spacingLeft=3;spacingRight=3;rotatable=0;labelPosition=right;points=[];portConstraint=eastwest;strokeColor=inherit;" parent="SJlRQKeIQYPIyshb4TZr-11" vertex="1">
          <mxGeometry y="940" width="630" height="8" as="geometry" />
        </mxCell>
        <mxCell id="SJlRQKeIQYPIyshb4TZr-14" value="+&amp;nbsp;Scanner()&lt;div&gt;+ ~Scanner()&lt;/div&gt;&lt;div&gt;+ run() void&lt;/div&gt;&lt;div&gt;+(s)&amp;nbsp;rotatePoints(&amp;nbsp;ColoredPoint *, float, int ) void&lt;/div&gt;&lt;div&gt;+ setTask( Task ) void&lt;/div&gt;&lt;div&gt;+&amp;nbsp;getPastScanResults() ScanResult []&lt;/div&gt;&lt;div&gt;+ setRange ( real ) void&lt;/div&gt;&lt;div&gt;+&amp;nbsp;setPhotoSequencePath( const string&amp;amp; ) void&lt;/div&gt;&lt;div&gt;+&amp;nbsp;setSavePhotoSequenceLaserImages( bool ) void&lt;/div&gt;&lt;div&gt;+&amp;nbsp;isRunning() bool&lt;/div&gt;&lt;div&gt;+&amp;nbsp;getProgress() Progress&amp;amp;&lt;/div&gt;&lt;div&gt;+&amp;nbsp;getRemainingTime() real&lt;/div&gt;&lt;div&gt;+&amp;nbsp;getTask() Task&lt;/div&gt;&lt;div&gt;+&amp;nbsp;generateDebugInfo(&amp;nbsp;LaserSide ) void&lt;/div&gt;&lt;div&gt;+&amp;nbsp;getLiveDataLock() LiveData&lt;/div&gt;&lt;div&gt;+&amp;nbsp;releaseLiveDataLock() void&lt;/div&gt;&lt;div&gt;-&amp;nbsp;singleScan( int, float, float, LocationMapper&amp;amp;, LocationMapper&amp;amp;, TimingStats * ) void&lt;/div&gt;&lt;div&gt;-&amp;nbsp;logTimingStats( ostream &amp;amp;, const TimingStats&amp;amp; ) void&lt;/div&gt;&lt;div&gt;- clearPoints() void&lt;/div&gt;&lt;div&gt;-&amp;nbsp;processScan( Image *, Image *, DataPoint&amp;amp; [], int, float, LocationMapper&amp;amp;, LaserSide&amp;amp;, int&amp;amp;, TimingStats * ) bool&lt;/div&gt;&lt;div&gt;-&amp;nbsp;writeRangePoints(&amp;nbsp;ColoredPoint *, int, LaserSide ) void&lt;/div&gt;&lt;div&gt;-&amp;nbsp;mergeDebuggingImages( Image&amp;amp;, Image&amp;amp;, Image&amp;amp;, LaserSide ) void&lt;/div&gt;&lt;div&gt;-&amp;nbsp;prepareScan() void&lt;/div&gt;&lt;div&gt;-&amp;nbsp;acquireImage() Image *&lt;/div&gt;&lt;div&gt;-&amp;nbsp;releaseImage(&amp;nbsp; Image * ) void&lt;/div&gt;&lt;div&gt;-&amp;nbsp;delayAcquisitionForLaser() void&lt;/div&gt;&lt;div&gt;-&amp;nbsp;highlightPixel(&amp;nbsp;const PixelLocation&amp;amp;, PixelLocation&amp;amp; [] ) void&lt;/div&gt;&lt;div&gt;-&amp;nbsp;runScan() void&lt;/div&gt;&lt;div&gt;-&amp;nbsp;writePhotos( int , real ) void&lt;/div&gt;&lt;div&gt;&lt;br&gt;&lt;/div&gt;" style="text;strokeColor=none;fillColor=none;align=left;verticalAlign=top;spacingLeft=4;spacingRight=4;overflow=hidden;rotatable=0;points=[[0,0.5],[1,0.5]];portConstraint=eastwest;whiteSpace=wrap;html=1;" parent="SJlRQKeIQYPIyshb4TZr-11" vertex="1">
          <mxGeometry y="948" width="630" height="442" as="geometry" />
        </mxCell>
        <mxCell id="SJlRQKeIQYPIyshb4TZr-15" value="Progress" style="swimlane;fontStyle=1;align=center;verticalAlign=top;childLayout=stackLayout;horizontal=1;startSize=26;horizontalStack=0;resizeParent=1;resizeParentMax=0;resizeLast=0;collapsible=1;marginBottom=0;whiteSpace=wrap;html=1;" parent="1" vertex="1">
          <mxGeometry x="3153" y="840" width="236" height="200" as="geometry" />
        </mxCell>
        <mxCell id="SJlRQKeIQYPIyshb4TZr-16" value="- m_percent real&lt;div&gt;- m_label string&lt;/div&gt;&lt;div&gt;- m_cs CriticalSection&lt;/div&gt;" style="text;strokeColor=none;fillColor=none;align=left;verticalAlign=top;spacingLeft=4;spacingRight=4;overflow=hidden;rotatable=0;points=[[0,0.5],[1,0.5]];portConstraint=eastwest;whiteSpace=wrap;html=1;" parent="SJlRQKeIQYPIyshb4TZr-15" vertex="1">
          <mxGeometry y="26" width="236" height="54" as="geometry" />
        </mxCell>
        <mxCell id="SJlRQKeIQYPIyshb4TZr-17" value="" style="line;strokeWidth=1;fillColor=none;align=left;verticalAlign=middle;spacingTop=-1;spacingLeft=3;spacingRight=3;rotatable=0;labelPosition=right;points=[];portConstraint=eastwest;strokeColor=inherit;" parent="SJlRQKeIQYPIyshb4TZr-15" vertex="1">
          <mxGeometry y="80" width="236" height="8" as="geometry" />
        </mxCell>
        <mxCell id="SJlRQKeIQYPIyshb4TZr-18" value="+ Progress()&lt;div&gt;+ getPercent() real&lt;/div&gt;&lt;div&gt;+ getLabel() string&lt;/div&gt;&lt;div&gt;+ setPercent( real ) void&lt;/div&gt;&lt;div&gt;+ setLabel( const string&amp;amp; ) void&lt;/div&gt;&lt;div&gt;- Progress( const Progress&amp;amp;)&lt;/div&gt;&lt;div&gt;- operator = (const Progress&amp;amp;) Progress&amp;amp;&amp;nbsp;&lt;/div&gt;" style="text;strokeColor=none;fillColor=none;align=left;verticalAlign=top;spacingLeft=4;spacingRight=4;overflow=hidden;rotatable=0;points=[[0,0.5],[1,0.5]];portConstraint=eastwest;whiteSpace=wrap;html=1;" parent="SJlRQKeIQYPIyshb4TZr-15" vertex="1">
          <mxGeometry y="88" width="236" height="112" as="geometry" />
        </mxCell>
        <mxCell id="SJlRQKeIQYPIyshb4TZr-19" value="" style="endArrow=classic;html=1;rounded=0;exitX=0.5;exitY=0;exitDx=0;exitDy=0;" parent="1" source="SJlRQKeIQYPIyshb4TZr-11" edge="1">
          <mxGeometry width="50" height="50" relative="1" as="geometry">
            <mxPoint x="4031" y="3120" as="sourcePoint" />
            <mxPoint x="4031" y="610" as="targetPoint" />
          </mxGeometry>
        </mxCell>
        <mxCell id="6D_M0ysuMkQ9SjPejFWx-1" value="PlyReader" style="swimlane;fontStyle=1;align=center;verticalAlign=top;childLayout=stackLayout;horizontal=1;startSize=26;horizontalStack=0;resizeParent=1;resizeParentMax=0;resizeLast=0;collapsible=1;marginBottom=0;whiteSpace=wrap;html=1;" parent="1" vertex="1">
          <mxGeometry x="2473" y="2640" width="360" height="140" as="geometry" />
        </mxCell>
        <mxCell id="6D_M0ysuMkQ9SjPejFWx-2" value="+&amp;nbsp;" style="text;strokeColor=none;fillColor=none;align=left;verticalAlign=top;spacingLeft=4;spacingRight=4;overflow=hidden;rotatable=0;points=[[0,0.5],[1,0.5]];portConstraint=eastwest;whiteSpace=wrap;html=1;" parent="6D_M0ysuMkQ9SjPejFWx-1" vertex="1">
          <mxGeometry y="26" width="360" height="26" as="geometry" />
        </mxCell>
        <mxCell id="6D_M0ysuMkQ9SjPejFWx-3" value="" style="line;strokeWidth=1;fillColor=none;align=left;verticalAlign=middle;spacingTop=-1;spacingLeft=3;spacingRight=3;rotatable=0;labelPosition=right;points=[];portConstraint=eastwest;strokeColor=inherit;" parent="6D_M0ysuMkQ9SjPejFWx-1" vertex="1">
          <mxGeometry y="52" width="360" height="8" as="geometry" />
        </mxCell>
        <mxCell id="6D_M0ysuMkQ9SjPejFWx-4" value="+&amp;nbsp;PlyReader()&lt;div&gt;+&amp;nbsp;read( const string&amp;amp;, ColoredPoint [] &amp;amp;) void&lt;/div&gt;&lt;div&gt;-&amp;nbsp;readAsciiPoints( ColoreadPoint [] &amp;amp;, ifstream&amp;amp;, int) void&lt;/div&gt;&lt;div&gt;-&amp;nbsp;readBinaryPoints( ColoreadPoint [] &amp;amp;, ifstream&amp;amp;, int) void&lt;/div&gt;" style="text;strokeColor=none;fillColor=none;align=left;verticalAlign=top;spacingLeft=4;spacingRight=4;overflow=hidden;rotatable=0;points=[[0,0.5],[1,0.5]];portConstraint=eastwest;whiteSpace=wrap;html=1;" parent="6D_M0ysuMkQ9SjPejFWx-1" vertex="1">
          <mxGeometry y="60" width="360" height="80" as="geometry" />
        </mxCell>
        <mxCell id="6D_M0ysuMkQ9SjPejFWx-5" value="PropertyReaderWriter" style="swimlane;fontStyle=1;align=center;verticalAlign=top;childLayout=stackLayout;horizontal=1;startSize=26;horizontalStack=0;resizeParent=1;resizeParentMax=0;resizeLast=0;collapsible=1;marginBottom=0;whiteSpace=wrap;html=1;" parent="1" vertex="1">
          <mxGeometry x="4792" y="880" width="362" height="120" as="geometry" />
        </mxCell>
        <mxCell id="6D_M0ysuMkQ9SjPejFWx-6" value="+&amp;nbsp;" style="text;strokeColor=none;fillColor=none;align=left;verticalAlign=top;spacingLeft=4;spacingRight=4;overflow=hidden;rotatable=0;points=[[0,0.5],[1,0.5]];portConstraint=eastwest;whiteSpace=wrap;html=1;" parent="6D_M0ysuMkQ9SjPejFWx-5" vertex="1">
          <mxGeometry y="26" width="362" height="26" as="geometry" />
        </mxCell>
        <mxCell id="6D_M0ysuMkQ9SjPejFWx-7" value="" style="line;strokeWidth=1;fillColor=none;align=left;verticalAlign=middle;spacingTop=-1;spacingLeft=3;spacingRight=3;rotatable=0;labelPosition=right;points=[];portConstraint=eastwest;strokeColor=inherit;" parent="6D_M0ysuMkQ9SjPejFWx-5" vertex="1">
          <mxGeometry y="52" width="362" height="8" as="geometry" />
        </mxCell>
        <mxCell id="6D_M0ysuMkQ9SjPejFWx-8" value="+(s) readProperties( const string&amp;amp; ) Property []&lt;div&gt;+(s)&amp;nbsp;writeProperties( const Property [] &amp;amp;, const string&amp;amp; ) void&amp;nbsp;&lt;/div&gt;&lt;div&gt;+(s)&amp;nbsp;writeProperties( ostream&amp;amp;, const Property [] &amp;amp; ) void&lt;/div&gt;" style="text;strokeColor=none;fillColor=none;align=left;verticalAlign=top;spacingLeft=4;spacingRight=4;overflow=hidden;rotatable=0;points=[[0,0.5],[1,0.5]];portConstraint=eastwest;whiteSpace=wrap;html=1;" parent="6D_M0ysuMkQ9SjPejFWx-5" vertex="1">
          <mxGeometry y="60" width="362" height="60" as="geometry" />
        </mxCell>
        <mxCell id="6D_M0ysuMkQ9SjPejFWx-18" value="&lt;span style=&quot;text-align: left;&quot;&gt;&lt;b&gt;MHD_Daemon&lt;/b&gt;&lt;/span&gt;" style="swimlane;fontStyle=0;childLayout=stackLayout;horizontal=1;startSize=26;fillColor=none;horizontalStack=0;resizeParent=1;resizeParentMax=0;resizeLast=0;collapsible=1;marginBottom=0;whiteSpace=wrap;html=1;" parent="1" vertex="1">
          <mxGeometry x="3811" y="4720" width="140" height="52" as="geometry" />
        </mxCell>
        <mxCell id="6D_M0ysuMkQ9SjPejFWx-19" value="+&amp;nbsp;" style="text;strokeColor=none;fillColor=none;align=left;verticalAlign=top;spacingLeft=4;spacingRight=4;overflow=hidden;rotatable=0;points=[[0,0.5],[1,0.5]];portConstraint=eastwest;whiteSpace=wrap;html=1;" parent="6D_M0ysuMkQ9SjPejFWx-18" vertex="1">
          <mxGeometry y="26" width="140" height="26" as="geometry" />
        </mxCell>
        <mxCell id="6D_M0ysuMkQ9SjPejFWx-22" value="PixelLocationWriter" style="swimlane;fontStyle=1;align=center;verticalAlign=top;childLayout=stackLayout;horizontal=1;startSize=26;horizontalStack=0;resizeParent=1;resizeParentMax=0;resizeLast=0;collapsible=1;marginBottom=0;whiteSpace=wrap;html=1;" parent="1" vertex="1">
          <mxGeometry x="480" y="680" width="370" height="110" as="geometry" />
        </mxCell>
        <mxCell id="6D_M0ysuMkQ9SjPejFWx-23" value="+&amp;nbsp;" style="text;strokeColor=none;fillColor=none;align=left;verticalAlign=top;spacingLeft=4;spacingRight=4;overflow=hidden;rotatable=0;points=[[0,0.5],[1,0.5]];portConstraint=eastwest;whiteSpace=wrap;html=1;" parent="6D_M0ysuMkQ9SjPejFWx-22" vertex="1">
          <mxGeometry y="26" width="370" height="26" as="geometry" />
        </mxCell>
        <mxCell id="6D_M0ysuMkQ9SjPejFWx-24" value="" style="line;strokeWidth=1;fillColor=none;align=left;verticalAlign=middle;spacingTop=-1;spacingLeft=3;spacingRight=3;rotatable=0;labelPosition=right;points=[];portConstraint=eastwest;strokeColor=inherit;" parent="6D_M0ysuMkQ9SjPejFWx-22" vertex="1">
          <mxGeometry y="52" width="370" height="8" as="geometry" />
        </mxCell>
        <mxCell id="6D_M0ysuMkQ9SjPejFWx-25" value="+&amp;nbsp;writePixels(&amp;nbsp;const PixelLocation *, int, int, int, const string &amp;amp; ) void&lt;div&gt;+&amp;nbsp;writeImage( Image &amp;amp;, int, int, const string &amp;amp; ) void&amp;nbsp;&lt;/div&gt;" style="text;strokeColor=none;fillColor=none;align=left;verticalAlign=top;spacingLeft=4;spacingRight=4;overflow=hidden;rotatable=0;points=[[0,0.5],[1,0.5]];portConstraint=eastwest;whiteSpace=wrap;html=1;" parent="6D_M0ysuMkQ9SjPejFWx-22" vertex="1">
          <mxGeometry y="60" width="370" height="50" as="geometry" />
        </mxCell>
        <mxCell id="6D_M0ysuMkQ9SjPejFWx-26" value="LaserResultsMerger" style="swimlane;fontStyle=1;align=center;verticalAlign=top;childLayout=stackLayout;horizontal=1;startSize=26;horizontalStack=0;resizeParent=1;resizeParentMax=0;resizeLast=0;collapsible=1;marginBottom=0;whiteSpace=wrap;html=1;" parent="1" vertex="1">
          <mxGeometry x="4840" y="2640" width="610" height="160" as="geometry" />
        </mxCell>
        <mxCell id="6D_M0ysuMkQ9SjPejFWx-27" value="-&amp;nbsp;m_numFramesBetweenLaserPlanes int&lt;div&gt;-&amp;nbsp;m_numFramesPerRevolution real&lt;/div&gt;&lt;div&gt;-&amp;nbsp;m_maxPointY real&lt;/div&gt;" style="text;strokeColor=none;fillColor=none;align=left;verticalAlign=top;spacingLeft=4;spacingRight=4;overflow=hidden;rotatable=0;points=[[0,0.5],[1,0.5]];portConstraint=eastwest;whiteSpace=wrap;html=1;" parent="6D_M0ysuMkQ9SjPejFWx-26" vertex="1">
          <mxGeometry y="26" width="610" height="64" as="geometry" />
        </mxCell>
        <mxCell id="6D_M0ysuMkQ9SjPejFWx-28" value="" style="line;strokeWidth=1;fillColor=none;align=left;verticalAlign=middle;spacingTop=-1;spacingLeft=3;spacingRight=3;rotatable=0;labelPosition=right;points=[];portConstraint=eastwest;strokeColor=inherit;" parent="6D_M0ysuMkQ9SjPejFWx-26" vertex="1">
          <mxGeometry y="90" width="610" height="8" as="geometry" />
        </mxCell>
        <mxCell id="6D_M0ysuMkQ9SjPejFWx-29" value="+&amp;nbsp;LaserResultsMerger()&lt;div&gt;+ merge( DataPoint [] &amp;amp;,&amp;nbsp;&lt;span style=&quot;background-color: transparent; color: light-dark(rgb(0, 0, 0), rgb(255, 255, 255));&quot;&gt;&amp;nbsp;&lt;/span&gt;&lt;span style=&quot;background-color: transparent; color: light-dark(rgb(0, 0, 0), rgb(255, 255, 255));&quot;&gt;DataPoint [] &amp;amp;,&amp;nbsp;&lt;/span&gt;&lt;span style=&quot;background-color: transparent; color: light-dark(rgb(0, 0, 0), rgb(255, 255, 255));&quot;&gt;&amp;nbsp;&lt;/span&gt;&lt;span style=&quot;background-color: transparent; color: light-dark(rgb(0, 0, 0), rgb(255, 255, 255));&quot;&gt;DataPoint [] &amp;amp;, int, int, int,&amp;nbsp;&lt;/span&gt;&lt;span style=&quot;background-color: transparent;&quot;&gt;Preset::LaserMergeAction, Progress &amp;amp;&lt;/span&gt;&lt;span style=&quot;background-color: transparent; color: light-dark(rgb(0, 0, 0), rgb(255, 255, 255));&quot;&gt;&amp;nbsp;) void&lt;/span&gt;&lt;/div&gt;&lt;div&gt;&lt;span style=&quot;background-color: transparent; color: light-dark(rgb(0, 0, 0), rgb(255, 255, 255));&quot;&gt;- getIndex( const DataPoint &amp;amp; ) int&lt;/span&gt;&lt;/div&gt;" style="text;strokeColor=none;fillColor=none;align=left;verticalAlign=top;spacingLeft=4;spacingRight=4;overflow=hidden;rotatable=0;points=[[0,0.5],[1,0.5]];portConstraint=eastwest;whiteSpace=wrap;html=1;" parent="6D_M0ysuMkQ9SjPejFWx-26" vertex="1">
          <mxGeometry y="98" width="610" height="62" as="geometry" />
        </mxCell>
        <mxCell id="YHoSYV_7GGhgw3SN9Gff-1" value="StlWriter" style="swimlane;fontStyle=1;align=center;verticalAlign=top;childLayout=stackLayout;horizontal=1;startSize=26;horizontalStack=0;resizeParent=1;resizeParentMax=0;resizeLast=0;collapsible=1;marginBottom=0;whiteSpace=wrap;html=1;" parent="1" vertex="1">
          <mxGeometry x="2800" y="1283" width="560" height="160" as="geometry" />
        </mxCell>
        <mxCell id="YHoSYV_7GGhgw3SN9Gff-2" value="-&amp;nbsp;m_normal real32 [3]&lt;div&gt;-&amp;nbsp;m_attribute uint16&lt;/div&gt;" style="text;strokeColor=none;fillColor=none;align=left;verticalAlign=top;spacingLeft=4;spacingRight=4;overflow=hidden;rotatable=0;points=[[0,0.5],[1,0.5]];portConstraint=eastwest;whiteSpace=wrap;html=1;" parent="YHoSYV_7GGhgw3SN9Gff-1" vertex="1">
          <mxGeometry y="26" width="560" height="44" as="geometry" />
        </mxCell>
        <mxCell id="YHoSYV_7GGhgw3SN9Gff-3" value="" style="line;strokeWidth=1;fillColor=none;align=left;verticalAlign=middle;spacingTop=-1;spacingLeft=3;spacingRight=3;rotatable=0;labelPosition=right;points=[];portConstraint=eastwest;strokeColor=inherit;" parent="YHoSYV_7GGhgw3SN9Gff-1" vertex="1">
          <mxGeometry y="70" width="560" height="8" as="geometry" />
        </mxCell>
        <mxCell id="YHoSYV_7GGhgw3SN9Gff-4" value="+&amp;nbsp;StlWriter()&lt;div&gt;+&amp;nbsp;write( const string &amp;amp;, const DataPoint [] &amp;amp;, const FaceMap &amp;amp;, Progress &amp;amp; ) void&lt;/div&gt;&lt;div&gt;- writeHeader( ofstream &amp;amp;, const FaceMap &amp;amp; ) void&lt;/div&gt;&lt;div&gt;- writeTriangle( const ColoredPoint &amp;amp;,&amp;nbsp;&lt;span style=&quot;background-color: transparent; color: light-dark(rgb(0, 0, 0), rgb(255, 255, 255));&quot;&gt;const ColoredPoint &amp;amp;,&amp;nbsp;&lt;/span&gt;&lt;span style=&quot;background-color: transparent; color: light-dark(rgb(0, 0, 0), rgb(255, 255, 255));&quot;&gt;const ColoredPoint &amp;amp;, ofstream &amp;amp;&lt;/span&gt;&lt;span style=&quot;background-color: transparent; color: light-dark(rgb(0, 0, 0), rgb(255, 255, 255));&quot;&gt;&amp;nbsp;) void&amp;nbsp;&lt;/span&gt;&lt;/div&gt;" style="text;strokeColor=none;fillColor=none;align=left;verticalAlign=top;spacingLeft=4;spacingRight=4;overflow=hidden;rotatable=0;points=[[0,0.5],[1,0.5]];portConstraint=eastwest;whiteSpace=wrap;html=1;" parent="YHoSYV_7GGhgw3SN9Gff-1" vertex="1">
          <mxGeometry y="78" width="560" height="82" as="geometry" />
        </mxCell>
        <mxCell id="YHoSYV_7GGhgw3SN9Gff-5" value="XyzWriter" style="swimlane;fontStyle=1;align=center;verticalAlign=top;childLayout=stackLayout;horizontal=1;startSize=26;horizontalStack=0;resizeParent=1;resizeParentMax=0;resizeLast=0;collapsible=1;marginBottom=0;whiteSpace=wrap;html=1;" parent="1" vertex="1">
          <mxGeometry x="3513.5" y="1283" width="400" height="86" as="geometry" />
        </mxCell>
        <mxCell id="YHoSYV_7GGhgw3SN9Gff-6" value="+&amp;nbsp;" style="text;strokeColor=none;fillColor=none;align=left;verticalAlign=top;spacingLeft=4;spacingRight=4;overflow=hidden;rotatable=0;points=[[0,0.5],[1,0.5]];portConstraint=eastwest;whiteSpace=wrap;html=1;" parent="YHoSYV_7GGhgw3SN9Gff-5" vertex="1">
          <mxGeometry y="26" width="400" height="26" as="geometry" />
        </mxCell>
        <mxCell id="YHoSYV_7GGhgw3SN9Gff-7" value="" style="line;strokeWidth=1;fillColor=none;align=left;verticalAlign=middle;spacingTop=-1;spacingLeft=3;spacingRight=3;rotatable=0;labelPosition=right;points=[];portConstraint=eastwest;strokeColor=inherit;" parent="YHoSYV_7GGhgw3SN9Gff-5" vertex="1">
          <mxGeometry y="52" width="400" height="8" as="geometry" />
        </mxCell>
        <mxCell id="YHoSYV_7GGhgw3SN9Gff-8" value="+ write( const string &amp;amp;, const DataPoint [] &amp;amp;, Progress &amp;amp; ) void" style="text;strokeColor=none;fillColor=none;align=left;verticalAlign=top;spacingLeft=4;spacingRight=4;overflow=hidden;rotatable=0;points=[[0,0.5],[1,0.5]];portConstraint=eastwest;whiteSpace=wrap;html=1;" parent="YHoSYV_7GGhgw3SN9Gff-5" vertex="1">
          <mxGeometry y="60" width="400" height="26" as="geometry" />
        </mxCell>
        <mxCell id="YHoSYV_7GGhgw3SN9Gff-9" value="Facetizer" style="swimlane;fontStyle=1;align=center;verticalAlign=top;childLayout=stackLayout;horizontal=1;startSize=26;horizontalStack=0;resizeParent=1;resizeParentMax=0;resizeLast=0;collapsible=1;marginBottom=0;whiteSpace=wrap;html=1;" parent="1" vertex="1">
          <mxGeometry x="81" y="2640" width="559" height="190" as="geometry" />
        </mxCell>
        <mxCell id="YHoSYV_7GGhgw3SN9Gff-10" value="-&amp;nbsp;m_maxEdgeDistMmSq real32&lt;div&gt;-&amp;nbsp;m_imageWidth int&lt;/div&gt;&lt;div&gt;&lt;br&gt;&lt;/div&gt;" style="text;strokeColor=none;fillColor=none;align=left;verticalAlign=top;spacingLeft=4;spacingRight=4;overflow=hidden;rotatable=0;points=[[0,0.5],[1,0.5]];portConstraint=eastwest;whiteSpace=wrap;html=1;" parent="YHoSYV_7GGhgw3SN9Gff-9" vertex="1">
          <mxGeometry y="26" width="559" height="44" as="geometry" />
        </mxCell>
        <mxCell id="YHoSYV_7GGhgw3SN9Gff-11" value="" style="line;strokeWidth=1;fillColor=none;align=left;verticalAlign=middle;spacingTop=-1;spacingLeft=3;spacingRight=3;rotatable=0;labelPosition=right;points=[];portConstraint=eastwest;strokeColor=inherit;" parent="YHoSYV_7GGhgw3SN9Gff-9" vertex="1">
          <mxGeometry y="70" width="559" height="8" as="geometry" />
        </mxCell>
        <mxCell id="YHoSYV_7GGhgw3SN9Gff-12" value="+&amp;nbsp;Facetizer()&lt;div&gt;+&amp;nbsp;facetize( FaceMap &amp;amp;, DataPoint [] &amp;amp;, bool, Progress &amp;amp;, bool ) void&lt;/div&gt;&lt;div&gt;-&amp;nbsp;isInwardFacingFace( const DataPoint &amp;amp;,&amp;nbsp;&lt;span style=&quot;background-color: transparent; color: light-dark(rgb(0, 0, 0), rgb(255, 255, 255));&quot;&gt;const DataPoint &amp;amp;,&amp;nbsp;&lt;/span&gt;&lt;span style=&quot;background-color: transparent; color: light-dark(rgb(0, 0, 0), rgb(255, 255, 255));&quot;&gt;const DataPoint &amp;amp;&lt;/span&gt;&lt;span style=&quot;background-color: transparent; color: light-dark(rgb(0, 0, 0), rgb(255, 255, 255));&quot;&gt;&amp;nbsp;) bool&lt;/span&gt;&lt;/div&gt;&lt;div&gt;&lt;span style=&quot;background-color: transparent; color: light-dark(rgb(0, 0, 0), rgb(255, 255, 255));&quot;&gt;-&amp;nbsp;&lt;/span&gt;&lt;span style=&quot;background-color: transparent;&quot;&gt;isValidTriangle(&amp;nbsp;&lt;/span&gt;&lt;span style=&quot;background-color: transparent; color: light-dark(rgb(0, 0, 0), rgb(255, 255, 255));&quot;&gt;const ColoredPoint &amp;amp;,&amp;nbsp;&lt;/span&gt;&lt;span style=&quot;background-color: transparent; color: light-dark(rgb(0, 0, 0), rgb(255, 255, 255));&quot;&gt;const ColoredPoint &amp;amp;,&amp;nbsp;&lt;/span&gt;&lt;span style=&quot;background-color: transparent; color: light-dark(rgb(0, 0, 0), rgb(255, 255, 255));&quot;&gt;const ColoredPoint &amp;amp;&lt;/span&gt;&lt;span style=&quot;background-color: transparent; color: light-dark(rgb(0, 0, 0), rgb(255, 255, 255));&quot;&gt;&amp;nbsp;) bool&lt;/span&gt;&lt;/div&gt;&lt;div&gt;&lt;span style=&quot;background-color: transparent; color: light-dark(rgb(0, 0, 0), rgb(255, 255, 255));&quot;&gt;-&amp;nbsp;&lt;/span&gt;&lt;span style=&quot;background-color: transparent;&quot;&gt;addFacesForColumn( const DataPoint [] &amp;amp;,&amp;nbsp;&lt;/span&gt;&lt;span style=&quot;background-color: transparent; color: light-dark(rgb(0, 0, 0), rgb(255, 255, 255));&quot;&gt;const DataPoint [] &amp;amp;, FaceMap &amp;amp;, uint32 &amp;amp;&lt;/span&gt;&lt;span style=&quot;background-color: transparent; color: light-dark(rgb(0, 0, 0), rgb(255, 255, 255));&quot;&gt;&amp;nbsp;&amp;nbsp;) void&lt;/span&gt;&lt;/div&gt;&lt;div&gt;&lt;span style=&quot;background-color: transparent; color: light-dark(rgb(0, 0, 0), rgb(255, 255, 255));&quot;&gt;-&amp;nbsp;&lt;/span&gt;&lt;span style=&quot;background-color: transparent;&quot;&gt;addTriangle(&amp;nbsp;&lt;/span&gt;&lt;span style=&quot;background-color: transparent;&quot;&gt;const DataPoint &amp;amp;,&amp;nbsp;&lt;/span&gt;&lt;span style=&quot;background-color: transparent;&quot;&gt;const DataPoint &amp;amp;,&amp;nbsp;&lt;/span&gt;&lt;span style=&quot;background-color: transparent;&quot;&gt;const DataPoint &amp;amp;, bool, FaceMap &amp;amp;&lt;/span&gt;&lt;span style=&quot;background-color: transparent; color: light-dark(rgb(0, 0, 0), rgb(255, 255, 255));&quot;&gt;&amp;nbsp;) void&lt;/span&gt;&lt;span style=&quot;background-color: transparent; color: light-dark(rgb(0, 0, 0), rgb(255, 255, 255));&quot;&gt;&amp;nbsp;&lt;/span&gt;&lt;/div&gt;" style="text;strokeColor=none;fillColor=none;align=left;verticalAlign=top;spacingLeft=4;spacingRight=4;overflow=hidden;rotatable=0;points=[[0,0.5],[1,0.5]];portConstraint=eastwest;whiteSpace=wrap;html=1;" parent="YHoSYV_7GGhgw3SN9Gff-9" vertex="1">
          <mxGeometry y="78" width="559" height="112" as="geometry" />
        </mxCell>
        <mxCell id="YHoSYV_7GGhgw3SN9Gff-13" value="ObjectBaseCreator" style="swimlane;fontStyle=1;align=center;verticalAlign=top;childLayout=stackLayout;horizontal=1;startSize=26;horizontalStack=0;resizeParent=1;resizeParentMax=0;resizeLast=0;collapsible=1;marginBottom=0;whiteSpace=wrap;html=1;" parent="1" vertex="1">
          <mxGeometry x="760" y="2640" width="600" height="170" as="geometry" />
        </mxCell>
        <mxCell id="YHoSYV_7GGhgw3SN9Gff-14" value="+&amp;nbsp;" style="text;strokeColor=none;fillColor=none;align=left;verticalAlign=top;spacingLeft=4;spacingRight=4;overflow=hidden;rotatable=0;points=[[0,0.5],[1,0.5]];portConstraint=eastwest;whiteSpace=wrap;html=1;" parent="YHoSYV_7GGhgw3SN9Gff-13" vertex="1">
          <mxGeometry y="26" width="600" height="26" as="geometry" />
        </mxCell>
        <mxCell id="YHoSYV_7GGhgw3SN9Gff-15" value="" style="line;strokeWidth=1;fillColor=none;align=left;verticalAlign=middle;spacingTop=-1;spacingLeft=3;spacingRight=3;rotatable=0;labelPosition=right;points=[];portConstraint=eastwest;strokeColor=inherit;" parent="YHoSYV_7GGhgw3SN9Gff-13" vertex="1">
          <mxGeometry y="52" width="600" height="8" as="geometry" />
        </mxCell>
        <mxCell id="YHoSYV_7GGhgw3SN9Gff-16" value="+&amp;nbsp;ObjectBaseCreator()&lt;div&gt;+ createBase( FaceMap &amp;amp;, DataPoint [] &amp;amp;, real32, int, Progress &amp;amp; ) void&lt;/div&gt;&lt;div&gt;-&amp;nbsp;subdivide( unsigned [] &amp;amp;, DataPoint [] &amp;amp; ) void&lt;/div&gt;&lt;div&gt;- splitEdge(&amp;nbsp;const DataPoint &amp;amp;,&amp;nbsp;const DataPoint &amp;amp;, DataPoint [] &amp;amp; ) DataPoint&lt;/div&gt;&lt;div&gt;-&amp;nbsp;addTriangle(&amp;nbsp;const DataPoint &amp;amp;,&amp;nbsp;const DataPoint &amp;amp;,&amp;nbsp;const DataPoint &amp;amp;, unsigned [] &amp;amp; ) void&lt;/div&gt;&lt;div&gt;-&amp;nbsp;updateTriangle( unsigned, const DataPoint &amp;amp;,&amp;nbsp;&lt;span style=&quot;background-color: transparent; color: light-dark(rgb(0, 0, 0), rgb(255, 255, 255));&quot;&gt;const DataPoint &amp;amp;,&amp;nbsp;&lt;/span&gt;&lt;span style=&quot;background-color: transparent; color: light-dark(rgb(0, 0, 0), rgb(255, 255, 255));&quot;&gt;const DataPoint &amp;amp;, unsigned [] &amp;amp;&lt;/span&gt;&lt;span style=&quot;background-color: transparent; color: light-dark(rgb(0, 0, 0), rgb(255, 255, 255));&quot;&gt;&amp;nbsp;) void&lt;/span&gt;&lt;/div&gt;" style="text;strokeColor=none;fillColor=none;align=left;verticalAlign=top;spacingLeft=4;spacingRight=4;overflow=hidden;rotatable=0;points=[[0,0.5],[1,0.5]];portConstraint=eastwest;whiteSpace=wrap;html=1;" parent="YHoSYV_7GGhgw3SN9Gff-13" vertex="1">
          <mxGeometry y="60" width="600" height="110" as="geometry" />
        </mxCell>
        <mxCell id="BiT3kw33S_-bqASwYlN4-1" value="Calibrator" style="swimlane;fontStyle=1;align=center;verticalAlign=top;childLayout=stackLayout;horizontal=1;startSize=26;horizontalStack=0;resizeParent=1;resizeParentMax=0;resizeLast=0;collapsible=1;marginBottom=0;whiteSpace=wrap;html=1;" parent="1" vertex="1">
          <mxGeometry x="1680" y="3320" width="650" height="190" as="geometry" />
        </mxCell>
        <mxCell id="BiT3kw33S_-bqASwYlN4-2" value="+&amp;nbsp;" style="text;strokeColor=none;fillColor=none;align=left;verticalAlign=top;spacingLeft=4;spacingRight=4;overflow=hidden;rotatable=0;points=[[0,0.5],[1,0.5]];portConstraint=eastwest;whiteSpace=wrap;html=1;" parent="BiT3kw33S_-bqASwYlN4-1" vertex="1">
          <mxGeometry y="26" width="650" height="24" as="geometry" />
        </mxCell>
        <mxCell id="BiT3kw33S_-bqASwYlN4-3" value="" style="line;strokeWidth=1;fillColor=none;align=left;verticalAlign=middle;spacingTop=-1;spacingLeft=3;spacingRight=3;rotatable=0;labelPosition=right;points=[];portConstraint=eastwest;strokeColor=inherit;" parent="BiT3kw33S_-bqASwYlN4-1" vertex="1">
          <mxGeometry y="50" width="650" height="8" as="geometry" />
        </mxCell>
        <mxCell id="BiT3kw33S_-bqASwYlN4-4" value="+(s) computeCameraZ( real ) real&lt;div&gt;+(s)&amp;nbsp;computeLaserX( real, real, real ) real&lt;/div&gt;&lt;div&gt;+(s)&amp;nbsp;calculateOriginYOnSensor( real &amp;amp; ) bool&lt;/div&gt;&lt;div&gt;+(s)&amp;nbsp;calculateLaserPlane( Plane &amp;amp;, PixelLocation &amp;amp;, PixelLocation &amp;amp;, Laser *, Laser::LaserSide , const Vector3 &amp;amp; ) void&amp;nbsp;&lt;/div&gt;&lt;div&gt;+(s) addCalibrationLines( Image * )void&lt;/div&gt;&lt;div&gt;+(s)&amp;nbsp;calculateLaserPlane( const Vector3 &amp;amp;, const PixelLocation &amp;amp;, const PixelLocation &amp;amp; ) Plane&lt;/div&gt;&lt;div&gt;+(s)&amp;nbsp;detectLaserX( real *, PixelLocation &amp;amp;, PixelLocation &amp;amp;, Laser *, Laser::LaserSide ) bool&lt;/div&gt;&lt;div&gt;+(s)&amp;nbsp;intersectPlane( const Ray &amp;amp;, const Plane &amp;amp;, Vector3 * ) bool&lt;/div&gt;" style="text;strokeColor=none;fillColor=none;align=left;verticalAlign=top;spacingLeft=4;spacingRight=4;overflow=hidden;rotatable=0;points=[[0,0.5],[1,0.5]];portConstraint=eastwest;whiteSpace=wrap;html=1;" parent="BiT3kw33S_-bqASwYlN4-1" vertex="1">
          <mxGeometry y="58" width="650" height="132" as="geometry" />
        </mxCell>
        <mxCell id="ba2es9QydZnvaUp6ja1f-1" value="WebContent" style="swimlane;fontStyle=1;align=center;verticalAlign=top;childLayout=stackLayout;horizontal=1;startSize=26;horizontalStack=0;resizeParent=1;resizeParentMax=0;resizeLast=0;collapsible=1;marginBottom=0;whiteSpace=wrap;html=1;" parent="1" vertex="1">
          <mxGeometry x="5673" y="3840" width="610" height="2510" as="geometry" />
        </mxCell>
        <mxCell id="ba2es9QydZnvaUp6ja1f-6" value="+&amp;nbsp;CalibrationData" style="swimlane;fontStyle=0;childLayout=stackLayout;horizontal=1;startSize=26;fillColor=default;horizontalStack=0;resizeParent=1;resizeParentMax=0;resizeLast=0;collapsible=1;marginBottom=0;whiteSpace=wrap;html=1;fillStyle=zigzag-line;" parent="ba2es9QydZnvaUp6ja1f-1" vertex="1">
          <mxGeometry y="26" width="610" height="90" as="geometry" />
        </mxCell>
        <mxCell id="ba2es9QydZnvaUp6ja1f-7" value="+ camZ real&lt;div&gt;+ rightLaserX real&lt;/div&gt;&lt;div&gt;+ rightLaserY real&lt;/div&gt;" style="text;strokeColor=none;fillColor=default;align=left;verticalAlign=top;spacingLeft=4;spacingRight=4;overflow=hidden;rotatable=0;points=[[0,0.5],[1,0.5]];portConstraint=eastwest;whiteSpace=wrap;html=1;fillStyle=zigzag-line;" parent="ba2es9QydZnvaUp6ja1f-6" vertex="1">
          <mxGeometry y="26" width="610" height="64" as="geometry" />
        </mxCell>
        <mxCell id="ba2es9QydZnvaUp6ja1f-2" value="&lt;div&gt;+(s) PROFILE_NAME const string&lt;/div&gt;&lt;div&gt;+(s) SERIAL_NUMBER const string&lt;/div&gt;&lt;div&gt;+(s) CAMERA_X const string&lt;/div&gt;&lt;div&gt;+(s) CAMERA_Y const string&lt;/div&gt;&lt;div&gt;+(s) CAMERA_Z const string&lt;/div&gt;&lt;div&gt;+(s) CAMERA_MODE const string&lt;/div&gt;&lt;div&gt;+(s) RIGHT_LASER_X const string&lt;/div&gt;&lt;div&gt;+(s) RIGHT_LASER_Y const string&lt;/div&gt;&lt;div&gt;+(s) RIGHT_LASER_Z const string&lt;/div&gt;&lt;div&gt;+(s) RIGHT_LASER_PIN const string&lt;/div&gt;&lt;div&gt;+(s) LEFT_LASER_X const string&lt;/div&gt;&lt;div&gt;+(s) LEFT_LASER_Y const string&lt;/div&gt;&lt;div&gt;+(s) LEFT_LASER_Z const string&lt;/div&gt;&lt;div&gt;+(s) LEFT_LASER_PIN const string&lt;/div&gt;&lt;div&gt;+(s) LASER_MAGNITUDE_THRESHOLD const string&lt;/div&gt;&lt;div&gt;+(s) LASER_ON_VALUE const string&lt;/div&gt;&lt;div&gt;+(s) LASER_SELECTION const string&lt;/div&gt;&lt;div&gt;+(s) STABILITY_DELAY const string&lt;/div&gt;&lt;div&gt;+(s) MAX_LASER_WIDTH const string&lt;/div&gt;&lt;div&gt;+(s) MIN_LASER_WIDTH const string&lt;/div&gt;&lt;div&gt;+(s) STEPS_PER_REVOLUTION const string&lt;/div&gt;&lt;div&gt;+(s) ENABLE_PIN const string&lt;/div&gt;&lt;div&gt;+(s) STEP_PIN const string&lt;/div&gt;&lt;div&gt;+(s) DIRECTION_PIN const string&lt;/div&gt;&lt;div&gt;+(s) DIRECTION_VALUE const string&lt;/div&gt;&lt;div&gt;+(s) RESPONSE_DELAY const string&lt;/div&gt;&lt;div&gt;+(s) STEP_DELAY const string&lt;/div&gt;&lt;div&gt;+(s) FRAMES_PER_REVOLUTION const string&lt;/div&gt;&lt;div&gt;+(s) GENERATE_XYZ const string&lt;/div&gt;&lt;div&gt;+(s) GENERATE_STL const string&lt;/div&gt;&lt;div&gt;+(s) GENERATE_PLY const string&lt;/div&gt;&lt;div&gt;+(s) SEPARATE_LASERS_BY_COLOR const string&lt;/div&gt;&lt;div&gt;+(s) UNIT_OF_LENGTH const string&lt;/div&gt;&lt;div&gt;+(s) VERSION_NAME const string&lt;/div&gt;&lt;div&gt;+(s) GROUND_PLANE_HEIGHT const string&lt;/div&gt;&lt;div&gt;+(s) PLY_DATA_FORMAT const string&lt;/div&gt;&lt;div&gt;+(s) FREE_DISK_SPACE const string&lt;/div&gt;&lt;div&gt;+(s) ENABLE_BURST_MODE const string&lt;/div&gt;&lt;div&gt;+(s) ENABLE_LIGHTING const string&lt;/div&gt;&lt;div&gt;+(s) LIGHTING_PIN const string&lt;/div&gt;&lt;div&gt;+(s) CREATE_BASE_FOR_OBJECT const string&lt;/div&gt;&lt;div&gt;+(s) WIFI_ESSID const string&lt;/div&gt;&lt;div&gt;+(s) WIFI_ESSID_HIDDEN const string&lt;/div&gt;&lt;div&gt;+(s) WIFI_PASSWORD const string&lt;/div&gt;&lt;div&gt;+(s) KERNEL_VERSION const string&lt;/div&gt;&lt;div&gt;+(s) MENU2 const string&lt;/div&gt;&lt;div&gt;+(s) MENU2_EXPERIMENTAL const string&lt;/div&gt;&lt;div&gt;+(s) MENU3 const string&lt;/div&gt;&lt;div&gt;+(s) ENABLE_AUTHENTICATION const string&lt;/div&gt;&lt;div&gt;+(s) AUTH_USERNAME const string&lt;/div&gt;&lt;div&gt;+(s) AUTH_PASSWORD1 const string&lt;/div&gt;&lt;div&gt;+(s) AUTH_PASSWORD2 const string&lt;/div&gt;&lt;div&gt;+(s) NOISE_REMOVAL_SETTING const string&lt;/div&gt;&lt;div&gt;+(s) IMAGE_THRESHOLD_MODE const string&lt;/div&gt;&lt;div&gt;+(s) CAMERA_EXPOSURE_TIME const string&lt;/div&gt;&lt;div&gt;+(s) ENABLE_USB_NETWORK_CONFIG const string&lt;/div&gt;&lt;div&gt;+(s) MOUNT_SERVERPATH const string&lt;/div&gt;&lt;div&gt;+(s) MOUNT_USERNAME const string&lt;/div&gt;&lt;div&gt;+(s) MOUNT_PASSWORD const string&lt;/div&gt;&lt;div&gt;+(s) MOUNT_WORKGROUP const string&lt;/div&gt;&lt;div&gt;+(s) PHOTO_MOUNT const string&lt;/div&gt;&lt;div&gt;+(s) PHOTO_WRITE_LASER_IMAGES const string&lt;/div&gt;&lt;div&gt;+(s) MOUNT_INDEX const string&lt;/div&gt;&lt;div&gt;+(s) GPU_MEMORY const string&lt;/div&gt;&lt;div&gt;+(s) DISABLE_CAMERA_LED const string&lt;/div&gt;&lt;div&gt;+(s) ENABLE_EXPERIMENTAL const string&lt;/div&gt;&lt;div&gt;+(s) RESTORE_DEFAULTS const string&lt;/div&gt;&lt;div&gt;+(s) WIDTH const string&lt;/div&gt;&lt;div&gt;+(s) PIXEL_RADIUS const string&lt;/div&gt;&lt;div&gt;+(s) ROTATION const string&lt;/div&gt;&lt;div&gt;+(s) ENABLE_WEBGL const string&lt;/div&gt;&lt;div&gt;+(s) ID const string&lt;/div&gt;&lt;div&gt;+(s) CAMERA_SENSOR const string&lt;/div&gt;&lt;div&gt;+(s) ENABLE_POINT_CLOUD_RENDERER const string&lt;/div&gt;&lt;div&gt;+(s) OVERRIDE_FOCAL_LENGTH const string&lt;/div&gt;&lt;div&gt;+(s) OVERRIDDEN_FOCAL_LENGTH const string&lt;/div&gt;&lt;div&gt;+(s) FLIP_RED_BLUE const string&lt;/div&gt;&lt;div&gt;+(s) MAX_OBJECT_SIZE const string&lt;/div&gt;&lt;div&gt;-(s)&amp;nbsp;LOW_DISK_SPACE_MB const int&lt;/div&gt;&lt;div&gt;&lt;div&gt;-(s) CSS const string&lt;/div&gt;&lt;div&gt;-(s) JAVASCRIPT const string&lt;/div&gt;&lt;div&gt;-(s) SERIAL_NUMBER_DESCR const string&lt;/div&gt;&lt;div&gt;-(s) CAMERA_X_DESCR const string&lt;/div&gt;&lt;div&gt;-(s) CAMERA_Y_DESCR const string&lt;/div&gt;&lt;div&gt;-(s) CAMERA_Z_DESCR const string&lt;/div&gt;&lt;div&gt;-(s) RIGHT_LASER_X_DESCR const string&lt;/div&gt;&lt;div&gt;-(s) RIGHT_LASER_Y_DESCR const string&lt;/div&gt;&lt;div&gt;-(s) RIGHT_LASER_Z_DESCR const string&lt;/div&gt;&lt;div&gt;-(s) LEFT_LASER_X_DESCR const string&lt;/div&gt;&lt;div&gt;-(s) LEFT_LASER_Y_DESCR const string&lt;/div&gt;&lt;div&gt;-(s) LEFT_LASER_Z_DESCR const string&lt;/div&gt;&lt;div&gt;-(s) LASER_MAGNITUDE_THRESHOLD_DESCR const string&lt;/div&gt;&lt;div&gt;-(s) RIGHT_LASER_PIN_DESCR const string&lt;/div&gt;&lt;div&gt;-(s) LEFT_LASER_PIN_DESCR const string&lt;/div&gt;&lt;div&gt;-(s) LASER_ON_VALUE_DESCR const string&lt;/div&gt;&lt;div&gt;-(s) STABILITY_DELAY_DESCR const string&lt;/div&gt;&lt;div&gt;-(s) MAX_LASER_WIDTH_DESCR const string&lt;/div&gt;&lt;div&gt;-(s) MIN_LASER_WIDTH_DESCR const string&lt;/div&gt;&lt;div&gt;-(s) STEPS_PER_REVOLUTION_DESCR const string&lt;/div&gt;&lt;div&gt;-(s) ENABLE_PIN_DESCR const string&lt;/div&gt;&lt;div&gt;-(s) STEP_PIN_DESCR const string&lt;/div&gt;&lt;div&gt;-(s) STEP_DELAY_DESCR const string&lt;/div&gt;&lt;div&gt;-(s) DIRECTION_PIN_DESCR const string&lt;/div&gt;&lt;div&gt;-(s) RESPONSE_DELAY_DESCR const string&lt;/div&gt;&lt;div&gt;-(s) FRAMES_PER_REVOLUTION_DESCR const string&lt;/div&gt;&lt;div&gt;-(s) GENERATE_XYZ_DESCR const string&lt;/div&gt;&lt;div&gt;-(s) GENERATE_STL_DESCR const string&lt;/div&gt;&lt;div&gt;-(s) GENERATE_PLY_DESCR const string&lt;/div&gt;&lt;div&gt;-(s) SEPARATE_LASERS_BY_COLOR_DESCR const string&lt;/div&gt;&lt;div&gt;-(s) GROUND_PLANE_HEIGHT_DESCR const string&lt;/div&gt;&lt;div&gt;-(s) PLY_DATA_FORMAT_DESCR const string&lt;/div&gt;&lt;div&gt;-(s) ENABLE_BURST_MODE_DESCR const string&lt;/div&gt;&lt;div&gt;-(s) ENABLE_LIGHTING_DESCR const string&lt;/div&gt;&lt;div&gt;-(s) LIGHTING_PIN_DESCR const string&lt;/div&gt;&lt;div&gt;-(s) CREATE_BASE_FOR_OBJECT_DESCR const string&lt;/div&gt;&lt;div&gt;-(s) WIFI_ESSID_DESCR const string&lt;/div&gt;&lt;div&gt;-(s) WIFI_PASSWORD_DESCR const string&lt;/div&gt;&lt;div&gt;-(s) ENABLE_AUTHENTICATION_DESCR const string&lt;/div&gt;&lt;div&gt;-(s) AUTH_USERNAME_DESCR const string&lt;/div&gt;&lt;div&gt;-(s) AUTH_PASSWORD1_DESCR const string&lt;/div&gt;&lt;div&gt;-(s) AUTH_PASSWORD2_DESCR const string&lt;/div&gt;&lt;div&gt;-(s) NOISE_REMOVAL_SETTING_DESCR const string&lt;/div&gt;&lt;div&gt;-(s) IMAGE_THRESHOLD_MODE_DESCR const string&lt;/div&gt;&lt;div&gt;-(s) CAMERA_EXPOSURE_TIME_DESCR const string&lt;/div&gt;&lt;div&gt;-(s) ENABLE_USB_NETWORK_CONFIG_DESCR const string&lt;/div&gt;&lt;div&gt;-(s) MOUNT_PASSWORD_DESCR const string&lt;/div&gt;&lt;div&gt;-(s) MOUNT_USERNAME_DESCR const string&lt;/div&gt;&lt;div&gt;-(s) MOUNT_SERVERPATH_DESCR const string&lt;/div&gt;&lt;div&gt;-(s) MOUNT_WORKGROUP_DESCR const string&lt;/div&gt;&lt;div&gt;-(s) PHOTO_MOUNT_DESCR const string&lt;/div&gt;&lt;div&gt;-(s) PHOTO_WRITE_LASER_IMAGES_DESCR const string&lt;/div&gt;&lt;div&gt;-(s) GPU_MEMORY_DESCR const string&lt;/div&gt;&lt;div&gt;-(s) DISABLE_CAMERA_LED_DESCR const string&lt;/div&gt;&lt;div&gt;-(s) ENABLE_EXPERIMENTAL_DESCR const string&lt;/div&gt;&lt;div&gt;-(s) RESTORE_DEFAULTS_DESCR const string&lt;/div&gt;&lt;div&gt;-(s) ENABLE_WEBGL_DESCR const string&lt;/div&gt;&lt;div&gt;-(s) ENABLE_POINT_CLOUD_RENDERER_DESCR const string&lt;/div&gt;&lt;div&gt;-(s) OVERRIDE_FOCAL_LENGTH_DESCR const string&lt;/div&gt;&lt;div&gt;-(s) OVERRIDDEN_FOCAL_LENGTH_DESCR const string&lt;/div&gt;&lt;div&gt;-(s) FLIP_RED_BLUE_DESCR const string&lt;/div&gt;&lt;div&gt;-(s) MAX_OBJECT_SIZE_DESCR const string&lt;/div&gt;&lt;/div&gt;" style="text;strokeColor=none;fillColor=none;align=left;verticalAlign=top;spacingLeft=4;spacingRight=4;overflow=hidden;rotatable=0;points=[[0,0.5],[1,0.5]];portConstraint=eastwest;whiteSpace=wrap;html=1;" parent="ba2es9QydZnvaUp6ja1f-1" vertex="1">
          <mxGeometry y="116" width="610" height="2044" as="geometry" />
        </mxCell>
        <mxCell id="ba2es9QydZnvaUp6ja1f-3" value="" style="line;strokeWidth=1;fillColor=none;align=left;verticalAlign=middle;spacingTop=-1;spacingLeft=3;spacingRight=3;rotatable=0;labelPosition=right;points=[];portConstraint=eastwest;strokeColor=inherit;" parent="ba2es9QydZnvaUp6ja1f-1" vertex="1">
          <mxGeometry y="2160" width="610" height="8" as="geometry" />
        </mxCell>
        <mxCell id="ba2es9QydZnvaUp6ja1f-4" value="+(s)&amp;nbsp;scan( const ScanResult [] &amp;amp; ) string&lt;div&gt;+(s)&amp;nbsp;scanRunning( Progress &amp;amp;, real, Scanner::Task, const string &amp;amp;, bool, const string &amp;amp;, const string &amp;amp; ) string&lt;/div&gt;&lt;div&gt;+(s) cal1( const string &amp;amp; ) string&lt;/div&gt;&lt;div&gt;+(s)&amp;nbsp;settings( const string &amp;amp; ) string&lt;/div&gt;&lt;div&gt;+(s)&amp;nbsp;setup( const string &amp;amp; ) string&lt;/div&gt;&lt;div&gt;+(s)&amp;nbsp;viewScan( const string &amp;amp; ) string&lt;/div&gt;&lt;div&gt;+(s)&amp;nbsp;viewScanRender( int, const string &amp;amp;,&amp;nbsp;&lt;span style=&quot;background-color: transparent; color: light-dark(rgb(0, 0, 0), rgb(255, 255, 255));&quot;&gt;const string &amp;amp;,&amp;nbsp;&lt;/span&gt;&lt;span style=&quot;background-color: transparent; color: light-dark(rgb(0, 0, 0), rgb(255, 255, 255));&quot;&gt;const string &amp;amp;&lt;/span&gt;&lt;span style=&quot;background-color: transparent; color: light-dark(rgb(0, 0, 0), rgb(255, 255, 255));&quot;&gt;&amp;nbsp;) string&lt;/span&gt;&lt;/div&gt;&lt;div&gt;&lt;span style=&quot;background-color: transparent; color: light-dark(rgb(0, 0, 0), rgb(255, 255, 255));&quot;&gt;+(s)&amp;nbsp;&lt;/span&gt;&lt;span style=&quot;background-color: transparent;&quot;&gt;showUpdate( SoftwareUpdate *, const string &amp;amp; ) string&lt;/span&gt;&lt;/div&gt;&lt;div&gt;&lt;span style=&quot;background-color: transparent;&quot;&gt;+(s)&amp;nbsp;&lt;/span&gt;&lt;span style=&quot;background-color: transparent;&quot;&gt;updateApplied&lt;/span&gt;&lt;span style=&quot;background-color: transparent; color: light-dark(rgb(0, 0, 0), rgb(255, 255, 255));&quot;&gt;( SoftwareUpdate *, const string &amp;amp;, bool ) string&lt;/span&gt;&lt;/div&gt;&lt;div&gt;&lt;span style=&quot;background-color: transparent; color: light-dark(rgb(0, 0, 0), rgb(255, 255, 255));&quot;&gt;+(s)&amp;nbsp;&lt;/span&gt;&lt;span style=&quot;background-color: transparent;&quot;&gt;network( const string &amp;amp;, bool ) string&lt;/span&gt;&lt;/div&gt;&lt;div&gt;&lt;span style=&quot;background-color: transparent;&quot;&gt;+(s)&amp;nbsp;&lt;/span&gt;&lt;span style=&quot;background-color: transparent;&quot;&gt;security( const string &amp;amp; ) string&lt;/span&gt;&lt;/div&gt;&lt;div&gt;&lt;span style=&quot;background-color: transparent;&quot;&gt;+(s)&amp;nbsp;&lt;/span&gt;&lt;span style=&quot;background-color: transparent;&quot;&gt;mounts( const string &amp;amp;, const string [] &amp;amp; ) string&lt;/span&gt;&lt;/div&gt;&lt;div&gt;&lt;span style=&quot;background-color: transparent;&quot;&gt;+(s) writePhotos( const string [] &amp;amp; ) string&lt;/span&gt;&lt;/div&gt;&lt;div&gt;&lt;span style=&quot;background-color: transparent;&quot;&gt;+(s) restoreDefaults() string&lt;/span&gt;&lt;/div&gt;&lt;div&gt;&lt;span style=&quot;background-color: transparent;&quot;&gt;-(s)&amp;nbsp;&lt;/span&gt;&lt;span style=&quot;background-color: transparent;&quot;&gt;setting(&amp;nbsp;&lt;/span&gt;&lt;span style=&quot;background-color: transparent; color: light-dark(rgb(0, 0, 0), rgb(255, 255, 255));&quot;&gt;const string &amp;amp;,&amp;nbsp;&lt;/span&gt;&lt;span style=&quot;background-color: transparent; color: light-dark(rgb(0, 0, 0), rgb(255, 255, 255));&quot;&gt;const string &amp;amp;,&amp;nbsp;&lt;/span&gt;&lt;span style=&quot;background-color: transparent; color: light-dark(rgb(0, 0, 0), rgb(255, 255, 255));&quot;&gt;const string &amp;amp;,&amp;nbsp;&lt;/span&gt;&lt;span style=&quot;background-color: transparent; color: light-dark(rgb(0, 0, 0), rgb(255, 255, 255));&quot;&gt;const string &amp;amp;,&amp;nbsp;&lt;/span&gt;&lt;span style=&quot;background-color: transparent; color: light-dark(rgb(0, 0, 0), rgb(255, 255, 255));&quot;&gt;const string &amp;amp;, bool, bool&lt;/span&gt;&lt;span style=&quot;background-color: transparent; color: light-dark(rgb(0, 0, 0), rgb(255, 255, 255));&quot;&gt;&amp;nbsp;) string&lt;/span&gt;&lt;/div&gt;&lt;div&gt;&lt;span style=&quot;background-color: transparent; color: light-dark(rgb(0, 0, 0), rgb(255, 255, 255));&quot;&gt;-(s)&amp;nbsp;&lt;/span&gt;&lt;span style=&quot;background-color: transparent;&quot;&gt;setting(&amp;nbsp;&lt;/span&gt;&lt;span style=&quot;background-color: transparent; color: light-dark(rgb(0, 0, 0), rgb(255, 255, 255));&quot;&gt;const string &amp;amp;,&amp;nbsp;&lt;/span&gt;&lt;span style=&quot;background-color: transparent; color: light-dark(rgb(0, 0, 0), rgb(255, 255, 255));&quot;&gt;const string &amp;amp;, int,&amp;nbsp;&lt;/span&gt;&lt;span style=&quot;background-color: transparent; color: light-dark(rgb(0, 0, 0), rgb(255, 255, 255));&quot;&gt;const string &amp;amp;,&amp;nbsp;&lt;/span&gt;&lt;span style=&quot;background-color: transparent; color: light-dark(rgb(0, 0, 0), rgb(255, 255, 255));&quot;&gt;const string &amp;amp;, bool&lt;/span&gt;&lt;span style=&quot;background-color: transparent; color: light-dark(rgb(0, 0, 0), rgb(255, 255, 255));&quot;&gt;&amp;nbsp;) string&lt;/span&gt;&lt;/div&gt;&lt;div&gt;&lt;span style=&quot;background-color: transparent; color: light-dark(rgb(0, 0, 0), rgb(255, 255, 255));&quot;&gt;-(s) setting(&amp;nbsp;&lt;/span&gt;&lt;span style=&quot;background-color: transparent; color: light-dark(rgb(0, 0, 0), rgb(255, 255, 255));&quot;&gt;const string &amp;amp;,&lt;/span&gt;&lt;span style=&quot;background-color: transparent; color: light-dark(rgb(0, 0, 0), rgb(255, 255, 255));&quot;&gt;const string &amp;amp;, real,&amp;nbsp;&lt;/span&gt;&lt;span style=&quot;background-color: transparent; color: light-dark(rgb(0, 0, 0), rgb(255, 255, 255));&quot;&gt;const string &amp;amp;,&amp;nbsp;&lt;/span&gt;&lt;span style=&quot;background-color: transparent; color: light-dark(rgb(0, 0, 0), rgb(255, 255, 255));&quot;&gt;const string &amp;amp;, bool&lt;/span&gt;&lt;span style=&quot;background-color: transparent; color: light-dark(rgb(0, 0, 0), rgb(255, 255, 255));&quot;&gt;&amp;nbsp;) string&lt;/span&gt;&lt;/div&gt;&lt;div&gt;&lt;span style=&quot;background-color: transparent; color: light-dark(rgb(0, 0, 0), rgb(255, 255, 255));&quot;&gt;-(s) checkbox(&amp;nbsp;&lt;/span&gt;&lt;span style=&quot;background-color: transparent; color: light-dark(rgb(0, 0, 0), rgb(255, 255, 255));&quot;&gt;const string &amp;amp;,&amp;nbsp;&lt;/span&gt;&lt;span style=&quot;background-color: transparent; color: light-dark(rgb(0, 0, 0), rgb(255, 255, 255));&quot;&gt;const string &amp;amp;, bool,&lt;/span&gt;&lt;span style=&quot;background-color: transparent; color: light-dark(rgb(0, 0, 0), rgb(255, 255, 255));&quot;&gt;&amp;nbsp;&lt;/span&gt;&lt;span style=&quot;background-color: transparent; color: light-dark(rgb(0, 0, 0), rgb(255, 255, 255));&quot;&gt;const string &amp;amp;&amp;nbsp;&lt;/span&gt;&lt;span style=&quot;background-color: transparent; color: light-dark(rgb(0, 0, 0), rgb(255, 255, 255));&quot;&gt;) string&lt;/span&gt;&lt;/div&gt;&lt;div&gt;&lt;span style=&quot;background-color: transparent; color: light-dark(rgb(0, 0, 0), rgb(255, 255, 255));&quot;&gt;-(s)&amp;nbsp;&lt;/span&gt;&lt;span style=&quot;background-color: transparent;&quot;&gt;scanResult( size_t, const ScanResult &amp;amp;, bool ) string&lt;/span&gt;&lt;/div&gt;&lt;div&gt;&lt;span style=&quot;background-color: transparent;&quot;&gt;-(s)&amp;nbsp;&lt;/span&gt;&lt;span style=&quot;background-color: transparent;&quot;&gt;exposureDiv( int, const string &amp;amp;, bool ) string&lt;/span&gt;&lt;/div&gt;&lt;div&gt;&lt;span style=&quot;background-color: transparent;&quot;&gt;-(s) menu2() string&lt;/span&gt;&lt;/div&gt;&lt;div&gt;&lt;span style=&quot;background-color: transparent;&quot;&gt;-(s)&amp;nbsp;&lt;/span&gt;&lt;span style=&quot;background-color: transparent;&quot;&gt;renderImageControls( const string &amp;amp;,&amp;nbsp;&lt;/span&gt;&lt;span style=&quot;background-color: transparent; color: light-dark(rgb(0, 0, 0), rgb(255, 255, 255));&quot;&gt;const string &amp;amp;,&amp;nbsp;&lt;/span&gt;&lt;span style=&quot;background-color: transparent; color: light-dark(rgb(0, 0, 0), rgb(255, 255, 255));&quot;&gt;const string &amp;amp;, int&lt;/span&gt;&lt;span style=&quot;background-color: transparent; color: light-dark(rgb(0, 0, 0), rgb(255, 255, 255));&quot;&gt;&amp;nbsp;) string&lt;/span&gt;&lt;/div&gt;" style="text;strokeColor=none;fillColor=none;align=left;verticalAlign=top;spacingLeft=4;spacingRight=4;overflow=hidden;rotatable=0;points=[[0,0.5],[1,0.5]];portConstraint=eastwest;whiteSpace=wrap;html=1;" parent="ba2es9QydZnvaUp6ja1f-1" vertex="1">
          <mxGeometry y="2168" width="610" height="342" as="geometry" />
        </mxCell>
        <mxCell id="xlFHA0M18CjBzjN4UUGx-1" value="MemWriter" style="swimlane;fontStyle=1;align=center;verticalAlign=top;childLayout=stackLayout;horizontal=1;startSize=26;horizontalStack=0;resizeParent=1;resizeParentMax=0;resizeLast=0;collapsible=1;marginBottom=0;whiteSpace=wrap;html=1;" parent="1" vertex="1">
          <mxGeometry x="3160" y="2360" width="240" height="110" as="geometry" />
        </mxCell>
        <mxCell id="xlFHA0M18CjBzjN4UUGx-2" value="- m_data unsigned char []" style="text;strokeColor=none;fillColor=none;align=left;verticalAlign=top;spacingLeft=4;spacingRight=4;overflow=hidden;rotatable=0;points=[[0,0.5],[1,0.5]];portConstraint=eastwest;whiteSpace=wrap;html=1;" parent="xlFHA0M18CjBzjN4UUGx-1" vertex="1">
          <mxGeometry y="26" width="240" height="26" as="geometry" />
        </mxCell>
        <mxCell id="xlFHA0M18CjBzjN4UUGx-3" value="" style="line;strokeWidth=1;fillColor=none;align=left;verticalAlign=middle;spacingTop=-1;spacingLeft=3;spacingRight=3;rotatable=0;labelPosition=right;points=[];portConstraint=eastwest;strokeColor=inherit;" parent="xlFHA0M18CjBzjN4UUGx-1" vertex="1">
          <mxGeometry y="52" width="240" height="8" as="geometry" />
        </mxCell>
        <mxCell id="xlFHA0M18CjBzjN4UUGx-4" value="+ write( const char *, size_t ) void&lt;div&gt;+ getData() const unsigned char [] &amp;amp;&lt;/div&gt;" style="text;strokeColor=none;fillColor=none;align=left;verticalAlign=top;spacingLeft=4;spacingRight=4;overflow=hidden;rotatable=0;points=[[0,0.5],[1,0.5]];portConstraint=eastwest;whiteSpace=wrap;html=1;" parent="xlFHA0M18CjBzjN4UUGx-1" vertex="1">
          <mxGeometry y="60" width="240" height="50" as="geometry" />
        </mxCell>
        <mxCell id="xlFHA0M18CjBzjN4UUGx-5" value="" style="endArrow=classic;html=1;rounded=0;exitX=0.5;exitY=0;exitDx=0;exitDy=0;entryX=0.738;entryY=1.037;entryDx=0;entryDy=0;entryPerimeter=0;" parent="1" source="xlFHA0M18CjBzjN4UUGx-1" target="SJlRQKeIQYPIyshb4TZr-4" edge="1">
          <mxGeometry width="50" height="50" relative="1" as="geometry">
            <mxPoint x="3290" y="2490" as="sourcePoint" />
            <mxPoint x="3340" y="2440" as="targetPoint" />
          </mxGeometry>
        </mxCell>
        <mxCell id="-wMlBVOHYKi_8TKysCTs-1" value="PointCloudRenderer" style="swimlane;fontStyle=1;align=center;verticalAlign=top;childLayout=stackLayout;horizontal=1;startSize=26;horizontalStack=0;resizeParent=1;resizeParentMax=0;resizeLast=0;collapsible=1;marginBottom=0;whiteSpace=wrap;html=1;" parent="1" vertex="1">
          <mxGeometry x="480" y="3840" width="600" height="260" as="geometry" />
        </mxCell>
        <mxCell id="-wMlBVOHYKi_8TKysCTs-2" value="- *m_image Image&lt;div&gt;-&amp;nbsp;m_transform&amp;nbsp;Eigen::Matrix4f&lt;/div&gt;&lt;div&gt;-&amp;nbsp;m_pixelRadius int&lt;/div&gt;&lt;div&gt;-&amp;nbsp;m_depthBuffer real []&lt;/div&gt;" style="text;strokeColor=none;fillColor=none;align=left;verticalAlign=top;spacingLeft=4;spacingRight=4;overflow=hidden;rotatable=0;points=[[0,0.5],[1,0.5]];portConstraint=eastwest;whiteSpace=wrap;html=1;" parent="-wMlBVOHYKi_8TKysCTs-1" vertex="1">
          <mxGeometry y="26" width="600" height="74" as="geometry" />
        </mxCell>
        <mxCell id="-wMlBVOHYKi_8TKysCTs-3" value="" style="line;strokeWidth=1;fillColor=none;align=left;verticalAlign=middle;spacingTop=-1;spacingLeft=3;spacingRight=3;rotatable=0;labelPosition=right;points=[];portConstraint=eastwest;strokeColor=inherit;" parent="-wMlBVOHYKi_8TKysCTs-1" vertex="1">
          <mxGeometry y="100" width="600" height="8" as="geometry" />
        </mxCell>
        <mxCell id="-wMlBVOHYKi_8TKysCTs-4" value="+&amp;nbsp;PointCloudRenderer( int = 640, int = 480, int =1, real = 0)&lt;div&gt;+ ~PointCloudRenderer()&lt;/div&gt;&lt;div&gt;+&amp;nbsp;addPoints( DataPoint [] &amp;amp; ) void&lt;/div&gt;&lt;div&gt;+ addPoints( ColoredPoint [] &amp;amp; ) void&lt;/div&gt;&lt;div&gt;+ getImage( ) Image *&lt;/div&gt;&lt;div&gt;-&amp;nbsp;&lt;span style=&quot;background-color: transparent; color: light-dark(rgb(0, 0, 0), rgb(255, 255, 255));&quot;&gt;template&amp;lt;class T&amp;gt;&amp;nbsp;&lt;/span&gt;&lt;span style=&quot;background-color: transparent; color: light-dark(rgb(0, 0, 0), rgb(255, 255, 255));&quot;&gt;addPointsImpl(const T [] &amp;amp; )&amp;nbsp; void&lt;/span&gt;&lt;/div&gt;&lt;div&gt;&lt;span style=&quot;background-color: transparent; color: light-dark(rgb(0, 0, 0), rgb(255, 255, 255));&quot;&gt;- getPoint( const ColoredPoint &amp;amp; ) const ColoredPoint *&lt;/span&gt;&lt;/div&gt;&lt;div&gt;&lt;span style=&quot;background-color: transparent; color: light-dark(rgb(0, 0, 0), rgb(255, 255, 255));&quot;&gt;- getPoint( const DataPoint &amp;amp; ) const ColoredPoint *&lt;/span&gt;&lt;/div&gt;&lt;div&gt;&lt;span style=&quot;background-color: transparent; color: light-dark(rgb(0, 0, 0), rgb(255, 255, 255));&quot;&gt;- setPixel( unsigned char *, int, int, int, int, int, int, int, real, unsigned char, unsighned char, unsigned char ) void&lt;/span&gt;&lt;/div&gt;" style="text;strokeColor=none;fillColor=none;align=left;verticalAlign=top;spacingLeft=4;spacingRight=4;overflow=hidden;rotatable=0;points=[[0,0.5],[1,0.5]];portConstraint=eastwest;whiteSpace=wrap;html=1;" parent="-wMlBVOHYKi_8TKysCTs-1" vertex="1">
          <mxGeometry y="108" width="600" height="152" as="geometry" />
        </mxCell>
        <mxCell id="-wMlBVOHYKi_8TKysCTs-5" value="&lt;font style=&quot;font-size: 50px;&quot;&gt;Main.h&lt;/font&gt;" style="text;strokeColor=none;fillColor=none;html=1;fontSize=24;fontStyle=1;verticalAlign=middle;align=center;" parent="1" vertex="1">
          <mxGeometry x="41" y="-2210" width="300" height="60" as="geometry" />
        </mxCell>
        <mxCell id="-wMlBVOHYKi_8TKysCTs-6" value="Camera.h" style="text;strokeColor=none;fillColor=none;html=1;fontSize=50;fontStyle=1;verticalAlign=middle;align=center;" parent="1" vertex="1">
          <mxGeometry x="1584" y="-1148" width="100" height="40" as="geometry" />
        </mxCell>
        <mxCell id="-wMlBVOHYKi_8TKysCTs-8" value="&lt;h1 style=&quot;margin-top: 0px;&quot;&gt;Legend&lt;/h1&gt;&lt;p&gt;+ stands for public&lt;/p&gt;&lt;p&gt;+- stands for protected&lt;/p&gt;&lt;p&gt;- stands for private&lt;/p&gt;&lt;p&gt;(s) stands for static&lt;/p&gt;&lt;p&gt;(v) stands for virtual&amp;nbsp;&lt;/p&gt;" style="text;html=1;whiteSpace=wrap;overflow=hidden;rounded=0;" parent="1" vertex="1">
          <mxGeometry x="90" y="-2600" width="170" height="190" as="geometry" />
        </mxCell>
        <mxCell id="-wMlBVOHYKi_8TKysCTs-9" value="&lt;p style=&quot;margin:0px;margin-top:6px;text-align:center;&quot;&gt;&lt;b&gt;Enum object&lt;/b&gt;&lt;/p&gt;" style="align=left;overflow=fill;html=1;dropTarget=0;whiteSpace=wrap;fillStyle=dots;" parent="1" vertex="1">
          <mxGeometry x="270" y="-2550" width="130" height="50" as="geometry" />
        </mxCell>
        <mxCell id="-wMlBVOHYKi_8TKysCTs-10" value="" style="shape=component;jettyWidth=8;jettyHeight=4;" parent="-wMlBVOHYKi_8TKysCTs-9" vertex="1">
          <mxGeometry x="1" width="20" height="20" relative="1" as="geometry">
            <mxPoint x="-24" y="4" as="offset" />
          </mxGeometry>
        </mxCell>
      </root>
    </mxGraphModel>
  </diagram>
</mxfile>
